SplineFontDB: 3.2
FontName: RisingSun-Thin
FullName: Rising Sun Thin
FamilyName: Rising Sun Thin
Weight: Thin
Copyright: Copyright (c) 2012, The Raleway Project Authors (matt@pixelspread.com)
Version: 4.321
ItalicAngle: 0
UnderlinePosition: -125
UnderlineWidth: 50
Ascent: 800
Descent: 200
InvalidEm: 0
sfntRevision: 0x0004526e
LayerCount: 2
Layer: 0 1 "Back" 1
Layer: 1 1 "Fore" 0
XUID: [1021 158 994486733 9915431]
StyleMap: 0x0040
FSType: 0
OS2Version: 4
OS2_WeightWidthSlopeOnly: 0
OS2_UseTypoMetrics: 1
CreationTime: 1683072783
ModificationTime: 1710186306
PfmFamily: 81
TTFWeight: 100
TTFWidth: 5
LineGap: 21
VLineGap: 0
Panose: 0 0 0 0 0 0 0 0 0 0
OS2TypoAscent: 923
OS2TypoAOffset: 0
OS2TypoDescent: -213
OS2TypoDOffset: 0
OS2TypoLinegap: 21
OS2WinAscent: 944
OS2WinAOffset: 0
OS2WinDescent: 234
OS2WinDOffset: 0
HheadAscent: 923
HheadAOffset: 0
HheadDescent: -213
HheadDOffset: 0
OS2SubXSize: 650
OS2SubYSize: 600
OS2SubXOff: 0
OS2SubYOff: 75
OS2SupXSize: 650
OS2SupYSize: 600
OS2SupXOff: 0
OS2SupYOff: 350
OS2StrikeYSize: 50
OS2StrikeYPos: 300
OS2CapHeight: 710
OS2XHeight: 519
OS2Vendor: '    '
OS2CodePages: 2000019f.00000000
OS2UnicodeRanges: a00002ff.4000205b.00000000.00000000
Lookup: 1 0 0 "'aalt' Access All Alternates lookup 0" { "'aalt' Access All Alternates lookup 0 subtable"  } ['aalt' ('DFLT' <'dflt' > 'cyrl' <'BGR ' 'SRB ' 'dflt' > 'latn' <'AZE ' 'CAT ' 'CRT ' 'KAZ ' 'MOL ' 'ROM ' 'TAT ' 'TRK ' 'dflt' > ) ]
Lookup: 3 0 0 "'aalt' Access All Alternates lookup 1" { "'aalt' Access All Alternates lookup 1 subtable"  } ['aalt' ('DFLT' <'dflt' > 'cyrl' <'BGR ' 'SRB ' 'dflt' > 'latn' <'AZE ' 'CAT ' 'CRT ' 'KAZ ' 'MOL ' 'ROM ' 'TAT ' 'TRK ' 'dflt' > ) ]

StartChar: .notdef
Encoding: 65536 -1 0
Width: 608
GlyphClass: 1
Flags: W
LayerCount: 2
Fore
SplineSet
558 689 m 2,0,1
 558 699 558 699 553 704.5 c 128,-1,2
 548 710 548 710 540 710 c 2,3,-1
 69 710 l 2,4,5
 61 710 61 710 55.5 704 c 128,-1,6
 50 698 50 698 50 687 c 2,7,-1
 50 25 l 2,8,9
 50 12 50 12 55.5 6 c 128,-1,10
 61 0 61 0 77 0 c 2,11,-1
 525 0 l 2,12,13
 542 0 542 0 550 6.5 c 128,-1,14
 558 13 558 13 558 29 c 2,15,-1
 558 689 l 2,0,1
506 74 m 2,16,17
 506 61 506 61 499 55.5 c 128,-1,18
 492 50 492 50 478 50 c 2,19,-1
 125 50 l 2,20,21
 111 50 111 50 106.5 55 c 128,-1,22
 102 60 102 60 102 71 c 2,23,-1
 102 641 l 2,24,25
 102 650 102 650 106.5 655 c 128,-1,26
 111 660 111 660 118 660 c 2,27,-1
 491 660 l 2,28,29
 498 660 498 660 502 655 c 128,-1,30
 506 650 506 650 506 642 c 2,31,-1
 506 74 l 2,16,17
538 33 m 1,32,-1
 123 696 l 1,33,-1
 71 669 l 1,34,-1
 478 28 l 1,35,-1
 538 33 l 1,32,-1
EndSplineSet
EndChar

StartChar: exclam
Encoding: 33 33 4
Width: 228
GlyphClass: 1
Flags: W
LayerCount: 2
Fore
SplineSet
80 29 m 256,0,1
 80 22 80 22 82.5 15.5 c 128,-1,2
 85 9 85 9 89.5 4.5 c 128,-1,3
 94 0 94 0 100.5 -2.5 c 128,-1,4
 107 -5 107 -5 114 -5 c 256,5,6
 121 -5 121 -5 127.5 -2.5 c 128,-1,7
 134 0 134 0 138.5 4.5 c 128,-1,8
 143 9 143 9 145.5 15.5 c 128,-1,9
 148 22 148 22 148 29 c 256,10,11
 148 36 148 36 145.5 42 c 128,-1,12
 143 48 143 48 138.5 52.5 c 128,-1,13
 134 57 134 57 127.5 59.5 c 128,-1,14
 121 62 121 62 114 62 c 256,15,16
 107 62 107 62 100.5 59.5 c 128,-1,17
 94 57 94 57 89.5 52.5 c 128,-1,18
 85 48 85 48 82.5 42 c 128,-1,19
 80 36 80 36 80 29 c 256,0,1
124 200 m 1,20,-1
 124 400 l 1,21,-1
 124 717 l 1,22,-1
 104 717 l 1,23,-1
 104 400 l 1,24,-1
 104 200 l 1,25,-1
 124 200 l 1,20,-1
EndSplineSet
EndChar

StartChar: numbersign
Encoding: 35 35 6
Width: 650
GlyphClass: 1
Flags: W
LayerCount: 2
Fore
SplineSet
612 501 m 1,0,-1
 499 501 l 1,1,-1
 551 710 l 1,2,-1
 530 710 l 1,3,-1
 479 501 l 1,4,-1
 239 501 l 1,5,-1
 291 710 l 1,6,-1
 270 710 l 1,7,-1
 219 501 l 1,8,-1
 78 501 l 1,9,-1
 78 481 l 1,10,-1
 214 481 l 1,11,-1
 156 241 l 1,12,-1
 38 241 l 1,13,-1
 38 221 l 1,14,-1
 151 221 l 1,15,-1
 97 0 l 1,16,-1
 118 0 l 1,17,-1
 171 221 l 1,18,-1
 411 221 l 1,19,-1
 357 0 l 1,20,-1
 378 0 l 1,21,-1
 431 221 l 1,22,-1
 572 221 l 1,23,-1
 572 241 l 1,24,-1
 436 241 l 1,25,-1
 494 481 l 1,26,-1
 612 481 l 1,27,-1
 612 501 l 1,0,-1
176 241 m 1,28,-1
 234 481 l 1,29,-1
 474 481 l 1,30,-1
 416 241 l 1,31,-1
 176 241 l 1,28,-1
EndSplineSet
EndChar

StartChar: dollar
Encoding: 36 36 7
Width: 613
GlyphClass: 1
Flags: W
LayerCount: 2
Fore
SplineSet
300 -93 m 1,0,-1
 320 -93 l 1,1,-1
 320 0 l 1,2,-1
 300 1 l 1,3,-1
 300 -93 l 1,0,-1
320 4 m 1,4,-1
 320 708 l 1,5,-1
 300 706 l 1,6,-1
 300 5 l 1,7,-1
 320 4 l 1,4,-1
300 702 m 1,8,-1
 320 704 l 1,9,-1
 320 815 l 1,10,-1
 300 815 l 1,11,-1
 300 702 l 1,8,-1
529 630 m 1,12,13
 508 653 508 653 485 669 c 128,-1,14
 462 685 462 685 436 695.5 c 128,-1,15
 410 706 410 706 381 710.5 c 128,-1,16
 352 715 352 715 318 715 c 0,17,18
 261 715 261 715 215.5 702.5 c 128,-1,19
 170 690 170 690 137.5 665.5 c 128,-1,20
 105 641 105 641 87.5 605.5 c 128,-1,21
 70 570 70 570 70 524 c 0,22,23
 70 480 70 480 86 451 c 128,-1,24
 102 422 102 422 133.5 402.5 c 128,-1,25
 165 383 165 383 210.5 370 c 128,-1,26
 256 357 256 357 315 346 c 0,27,28
 377 334 377 334 421.5 320 c 128,-1,29
 466 306 466 306 495 286 c 128,-1,30
 524 266 524 266 538 238.5 c 128,-1,31
 552 211 552 211 552 171 c 0,32,33
 552 91 552 91 490.5 51.5 c 128,-1,34
 429 12 429 12 323 12 c 0,35,36
 283 12 283 12 247 18 c 128,-1,37
 211 24 211 24 178.5 37 c 128,-1,38
 146 50 146 50 117 70 c 128,-1,39
 88 90 88 90 61 118 c 1,40,-1
 46 105 l 1,41,42
 75 77 75 77 105.5 56 c 128,-1,43
 136 35 136 35 170 21.5 c 128,-1,44
 204 8 204 8 241.5 1.5 c 128,-1,45
 279 -5 279 -5 322 -5 c 0,46,47
 380 -5 380 -5 426.5 7 c 128,-1,48
 473 19 473 19 505 41.5 c 128,-1,49
 537 64 537 64 554.5 97.5 c 128,-1,50
 572 131 572 131 572 174 c 0,51,52
 572 221 572 221 554 252 c 128,-1,53
 536 283 536 283 502.5 304 c 128,-1,54
 469 325 469 325 421 339 c 128,-1,55
 373 353 373 353 314 365 c 256,56,57
 255 377 255 377 212.5 389.5 c 128,-1,58
 170 402 170 402 143 419.5 c 128,-1,59
 116 437 116 437 103 462.5 c 128,-1,60
 90 488 90 488 90 526 c 0,61,62
 90 603 90 603 144.5 649.5 c 128,-1,63
 199 696 199 696 320 696 c 0,64,65
 352 696 352 696 378.5 692 c 128,-1,66
 405 688 405 688 428.5 679 c 128,-1,67
 452 670 452 670 473.5 654.5 c 128,-1,68
 495 639 495 639 516 616 c 1,69,-1
 529 630 l 1,12,13
EndSplineSet
EndChar

StartChar: percent
Encoding: 37 37 8
Width: 670
GlyphClass: 1
Flags: W
LayerCount: 2
Fore
SplineSet
186 444 m 0,0,1
 215 444 215 444 240 455 c 128,-1,2
 265 466 265 466 283.5 484.5 c 128,-1,3
 302 503 302 503 313 528.5 c 128,-1,4
 324 554 324 554 324 582 c 0,5,6
 324 611 324 611 313 636 c 128,-1,7
 302 661 302 661 283.5 679.5 c 128,-1,8
 265 698 265 698 240 709 c 128,-1,9
 215 720 215 720 186 720 c 0,10,11
 158 720 158 720 132.5 709 c 128,-1,12
 107 698 107 698 88.5 679.5 c 128,-1,13
 70 661 70 661 59 636 c 128,-1,14
 48 611 48 611 48 583 c 0,15,16
 48 554 48 554 59 528.5 c 128,-1,17
 70 503 70 503 88.5 484.5 c 128,-1,18
 107 466 107 466 132.5 455 c 128,-1,19
 158 444 158 444 186 444 c 0,0,1
186 464 m 0,20,21
 162 464 162 464 140.5 473 c 128,-1,22
 119 482 119 482 103 498 c 128,-1,23
 87 514 87 514 77.5 535.5 c 128,-1,24
 68 557 68 557 68 582 c 0,25,26
 68 605 68 605 77 626.5 c 128,-1,27
 86 648 86 648 102 664.5 c 128,-1,28
 118 681 118 681 139.5 690.5 c 128,-1,29
 161 700 161 700 186 700 c 0,30,31
 209 700 209 700 230.5 691 c 128,-1,32
 252 682 252 682 268.5 666 c 128,-1,33
 285 650 285 650 294.5 628.5 c 128,-1,34
 304 607 304 607 304 582 c 0,35,36
 304 559 304 559 295 537.5 c 128,-1,37
 286 516 286 516 270 499.5 c 128,-1,38
 254 483 254 483 232.5 473.5 c 128,-1,39
 211 464 211 464 186 464 c 0,20,21
486 -10 m 0,40,41
 514 -10 514 -10 539 0.5 c 128,-1,42
 564 11 564 11 582.5 30 c 128,-1,43
 601 49 601 49 612 74 c 128,-1,44
 623 99 623 99 623 128 c 256,45,46
 623 157 623 157 612 182 c 128,-1,47
 601 207 601 207 582.5 225.5 c 128,-1,48
 564 244 564 244 539 255 c 128,-1,49
 514 266 514 266 485 266 c 0,50,51
 457 266 457 266 431.5 255 c 128,-1,52
 406 244 406 244 387.5 225.5 c 128,-1,53
 369 207 369 207 358 182 c 128,-1,54
 347 157 347 157 347 128 c 256,55,56
 347 99 347 99 358 74 c 128,-1,57
 369 49 369 49 387.5 30 c 128,-1,58
 406 11 406 11 431.5 0.5 c 128,-1,59
 457 -10 457 -10 486 -10 c 0,40,41
485 10 m 0,60,61
 461 10 461 10 439.5 19 c 128,-1,62
 418 28 418 28 402 44 c 128,-1,63
 386 60 386 60 376.5 81.5 c 128,-1,64
 367 103 367 103 367 128 c 0,65,66
 367 151 367 151 376 172.5 c 128,-1,67
 385 194 385 194 401 210.5 c 128,-1,68
 417 227 417 227 438.5 236.5 c 128,-1,69
 460 246 460 246 485 246 c 0,70,71
 508 246 508 246 529.5 236.5 c 128,-1,72
 551 227 551 227 567.5 211 c 128,-1,73
 584 195 584 195 593.5 173.5 c 128,-1,74
 603 152 603 152 603 128 c 256,75,76
 603 104 603 104 594 83 c 128,-1,77
 585 62 585 62 569 45.5 c 128,-1,78
 553 29 553 29 531.5 19.5 c 128,-1,79
 510 10 510 10 485 10 c 0,60,61
64 -1 m 1,80,-1
 341 347 l 1,81,-1
 622 699 l 1,82,-1
 606 711 l 1,83,-1
 327 361 l 1,84,-1
 48 11 l 1,85,-1
 64 -1 l 1,80,-1
EndSplineSet
EndChar

StartChar: ampersand
Encoding: 38 38 9
Width: 635
GlyphClass: 1
Flags: W
LayerCount: 2
Fore
SplineSet
625 0 m 1,0,-1
 240 400 l 2,1,2
 206 436 206 436 184.5 462.5 c 128,-1,3
 163 489 163 489 151 509 c 128,-1,4
 139 529 139 529 134.5 544.5 c 128,-1,5
 130 560 130 560 130 573 c 0,6,7
 130 599 130 599 141.5 622 c 128,-1,8
 153 645 153 645 172.5 662 c 128,-1,9
 192 679 192 679 218.5 689 c 128,-1,10
 245 699 245 699 276 699 c 0,11,12
 333 699 333 699 369.5 668 c 128,-1,13
 406 637 406 637 406 589 c 0,14,15
 406 562 406 562 394 539 c 128,-1,16
 382 516 382 516 359.5 493.5 c 128,-1,17
 337 471 337 471 305 448 c 128,-1,18
 273 425 273 425 233 398 c 0,19,20
 196 373 196 373 163.5 348.5 c 128,-1,21
 131 324 131 324 106.5 297 c 128,-1,22
 82 270 82 270 67.5 239 c 128,-1,23
 53 208 53 208 53 170 c 0,24,25
 53 126 53 126 71.5 92.5 c 128,-1,26
 90 59 90 59 121 36 c 128,-1,27
 152 13 152 13 191 1.5 c 128,-1,28
 230 -10 230 -10 270 -10 c 0,29,30
 338 -10 338 -10 392 20 c 128,-1,31
 446 50 446 50 483.5 98.5 c 128,-1,32
 521 147 521 147 541.5 208.5 c 128,-1,33
 562 270 562 270 562 333 c 1,34,-1
 542 333 l 1,35,36
 542 272 542 272 523 213.5 c 128,-1,37
 504 155 504 155 469 109.5 c 128,-1,38
 434 64 434 64 384.5 36 c 128,-1,39
 335 8 335 8 273 8 c 0,40,41
 239 8 239 8 203 17.5 c 128,-1,42
 167 27 167 27 138.5 47 c 128,-1,43
 110 67 110 67 91.5 97 c 128,-1,44
 73 127 73 127 73 168 c 0,45,46
 73 204 73 204 87 233.5 c 128,-1,47
 101 263 101 263 124.5 289 c 128,-1,48
 148 315 148 315 179 338 c 128,-1,49
 210 361 210 361 243 384 c 0,50,51
 278 408 278 408 310.5 431.5 c 128,-1,52
 343 455 343 455 369 480 c 128,-1,53
 395 505 395 505 410.5 532.5 c 128,-1,54
 426 560 426 560 426 591 c 0,55,56
 426 617 426 617 415 640 c 128,-1,57
 404 663 404 663 384 680.5 c 128,-1,58
 364 698 364 698 337 708.5 c 128,-1,59
 310 719 310 719 277 719 c 0,60,61
 242 719 242 719 211.5 707 c 128,-1,62
 181 695 181 695 158.5 675 c 128,-1,63
 136 655 136 655 123 629 c 128,-1,64
 110 603 110 603 110 574 c 0,65,66
 110 556 110 556 116 537 c 128,-1,67
 122 518 122 518 136.5 496 c 128,-1,68
 151 474 151 474 173.5 447.5 c 128,-1,69
 196 421 196 421 229 386 c 2,70,-1
 598 0 l 1,71,-1
 625 0 l 1,0,-1
EndSplineSet
EndChar

StartChar: quotesingle
Encoding: 39 39 10
Width: 166
GlyphClass: 1
Flags: W
LayerCount: 2
Fore
SplineSet
85 565 m 1,0,-1
 118 710 l 1,1,-1
 82 710 l 1,2,-1
 61 565 l 1,3,-1
 85 565 l 1,0,-1
EndSplineSet
EndChar

StartChar: parenleft
Encoding: 40 40 11
Width: 234
GlyphClass: 1
Flags: W
LayerCount: 2
Fore
SplineSet
50 345 m 0,0,1
 50 300 50 300 58.5 254 c 128,-1,2
 67 208 67 208 84 161.5 c 128,-1,3
 101 115 101 115 126 68 c 128,-1,4
 151 21 151 21 183 -26 c 1,5,-1
 199 -14 l 1,6,7
 168 30 168 30 143.5 77 c 128,-1,8
 119 124 119 124 102.5 170 c 128,-1,9
 86 216 86 216 77.5 260 c 128,-1,10
 69 304 69 304 69 342 c 0,11,12
 69 387 69 387 80.5 438 c 128,-1,13
 92 489 92 489 110 538.5 c 128,-1,14
 128 588 128 588 151.5 633.5 c 128,-1,15
 175 679 175 679 199 714 c 1,16,-1
 183 726 l 1,17,18
 156 680 156 680 131.5 634 c 128,-1,19
 107 588 107 588 89 541 c 128,-1,20
 71 494 71 494 60.5 445 c 128,-1,21
 50 396 50 396 50 345 c 0,0,1
EndSplineSet
EndChar

StartChar: parenright
Encoding: 41 41 12
Width: 233
GlyphClass: 1
Flags: W
LayerCount: 2
Fore
SplineSet
184 345 m 0,0,1
 184 396 184 396 173.5 445 c 128,-1,2
 163 494 163 494 145 541 c 128,-1,3
 127 588 127 588 102.5 634 c 128,-1,4
 78 680 78 680 51 726 c 1,5,-1
 35 714 l 1,6,7
 59 679 59 679 82.5 633.5 c 128,-1,8
 106 588 106 588 124 538.5 c 128,-1,9
 142 489 142 489 153.5 438 c 128,-1,10
 165 387 165 387 165 342 c 0,11,12
 165 304 165 304 156.5 260 c 128,-1,13
 148 216 148 216 131.5 170 c 128,-1,14
 115 124 115 124 90.5 77 c 128,-1,15
 66 30 66 30 35 -14 c 1,16,-1
 51 -26 l 1,17,18
 83 21 83 21 108 68 c 128,-1,19
 133 115 133 115 150 161.5 c 128,-1,20
 167 208 167 208 175.5 254 c 128,-1,21
 184 300 184 300 184 345 c 0,0,1
EndSplineSet
EndChar

StartChar: asterisk
Encoding: 42 42 13
Width: 302
GlyphClass: 1
Flags: W
LayerCount: 2
Fore
SplineSet
110 552 m 1,0,-1
 151 609 l 1,1,-1
 192 552 l 1,2,-1
 209 564 l 1,3,-1
 167 621 l 1,4,-1
 234 643 l 1,5,-1
 228 662 l 1,6,-1
 161 640 l 1,7,-1
 161 710 l 1,8,-1
 141 710 l 1,9,-1
 141 640 l 1,10,-1
 74 662 l 1,11,-1
 68 643 l 1,12,-1
 135 621 l 1,13,-1
 94 564 l 1,14,-1
 110 552 l 1,0,-1
EndSplineSet
EndChar

StartChar: plus
Encoding: 43 43 14
Width: 412
GlyphClass: 1
Flags: W
LayerCount: 2
Fore
SplineSet
216 365 m 1,0,-1
 216 515 l 1,1,-1
 196 515 l 1,2,-1
 196 365 l 1,3,-1
 56 365 l 1,4,-1
 56 345 l 1,5,-1
 196 345 l 1,6,-1
 196 195 l 1,7,-1
 216 195 l 1,8,-1
 216 345 l 1,9,-1
 356 345 l 1,10,-1
 356 365 l 1,11,-1
 216 365 l 1,0,-1
EndSplineSet
EndChar

StartChar: comma
Encoding: 44 44 15
Width: 260
GlyphClass: 1
Flags: W
LayerCount: 2
Fore
SplineSet
106 -160 m 1,0,-1
 152 100 l 1,1,-1
 116 100 l 1,2,-1
 82 -160 l 1,3,-1
 106 -160 l 1,0,-1
EndSplineSet
EndChar

StartChar: hyphen
Encoding: 45 45 16
Width: 421
GlyphClass: 1
Flags: W
LayerCount: 2
Fore
SplineSet
352 261 m 1,0,-1
 352 281 l 1,1,-1
 69 281 l 1,2,-1
 69 261 l 1,3,-1
 352 261 l 1,0,-1
EndSplineSet
EndChar

StartChar: period
Encoding: 46 46 17
Width: 158
GlyphClass: 1
Flags: W
LayerCount: 2
Fore
SplineSet
45 29 m 256,0,1
 45 15 45 15 55 5 c 128,-1,2
 65 -5 65 -5 79 -5 c 256,3,4
 93 -5 93 -5 103 5 c 128,-1,5
 113 15 113 15 113 29 c 256,6,7
 113 43 113 43 103 52.5 c 128,-1,8
 93 62 93 62 79 62 c 256,9,10
 65 62 65 62 55 52.5 c 128,-1,11
 45 43 45 43 45 29 c 256,0,1
EndSplineSet
EndChar

StartChar: slash
Encoding: 47 47 18
Width: 536
GlyphClass: 1
Flags: W
LayerCount: 2
Fore
SplineSet
482 710 m 1,0,-1
 27 0 l 1,1,-1
 52 0 l 1,2,-1
 508 710 l 1,3,-1
 482 710 l 1,0,-1
EndSplineSet
Substitution2: "'frac' Diagonal Fractions lookup 21 subtable" fraction
Substitution2: "'aalt' Access All Alternates lookup 0 subtable" fraction
EndChar

StartChar: zero
Encoding: 48 48 19
Width: 668
GlyphClass: 1
Flags: W
LayerCount: 2
Fore
SplineSet
334 -10 m 0,0,1
 399 -9 399 -9 451.5 23 c 128,-1,2
 504 55 504 55 540.5 106 c 128,-1,3
 577 157 577 157 596.5 221 c 128,-1,4
 616 285 616 285 616 350 c 0,5,6
 616 408 616 408 598 471.5 c 128,-1,7
 580 535 580 535 544.5 588 c 128,-1,8
 509 641 509 641 456.5 675.5 c 128,-1,9
 404 710 404 710 334 710 c 0,10,11
 269 710 269 710 216.5 678 c 128,-1,12
 164 646 164 646 127.5 594.5 c 128,-1,13
 91 543 91 543 71.5 478.5 c 128,-1,14
 52 414 52 414 52 350 c 0,15,16
 52 290 52 290 70 227 c 128,-1,17
 88 164 88 164 123.5 112 c 128,-1,18
 159 60 159 60 211.5 26 c 128,-1,19
 264 -8 264 -8 334 -10 c 0,0,1
72 350 m 0,20,21
 72 404 72 404 88.5 463.5 c 128,-1,22
 105 523 105 523 138 573.5 c 128,-1,23
 171 624 171 624 220 657 c 128,-1,24
 269 690 269 690 334 690 c 0,25,26
 395 690 395 690 443.5 659 c 128,-1,27
 492 628 492 628 526 579.5 c 128,-1,28
 560 531 560 531 578 470.5 c 128,-1,29
 596 410 596 410 596 350 c 0,30,31
 596 296 596 296 579.5 236 c 128,-1,32
 563 176 563 176 530 126 c 128,-1,33
 497 76 497 76 448 43 c 128,-1,34
 399 10 399 10 334 10 c 0,35,36
 271 10 271 10 223.5 41 c 128,-1,37
 176 72 176 72 143 120.5 c 128,-1,38
 110 169 110 169 92 229.5 c 128,-1,39
 74 290 74 290 72 350 c 0,20,21
EndSplineSet
Substitution2: "'tnum' Tabular Numbers lookup 41 subtable" zero.tnum
Substitution2: "'frac' Diagonal Fractions lookup 22 subtable" zero.numr
Substitution2: "'dnom' Denominators lookup 20 subtable" zero.dnom
Substitution2: "'numr' Numerators lookup 19 subtable" zero.numr
Substitution2: "'sups' Superscript lookup 18 subtable" uni2070
Substitution2: "'sinf' Scientific Inferiors lookup 17 subtable" zero.subs
Substitution2: "'subs' Subscript lookup 16 subtable" uni2080
AlternateSubs2: "'aalt' Access All Alternates lookup 1 subtable" uni2080 zero.subs uni2070 zero.numr zero.dnom
EndChar

StartChar: one
Encoding: 49 49 20
Width: 334
GlyphClass: 1
Flags: W
LayerCount: 2
Fore
SplineSet
214 720 m 1,0,-1
 194 720 l 2,1,2
 193 719 193 719 178.5 703 c 128,-1,3
 164 687 164 687 141.5 669 c 128,-1,4
 119 651 119 651 92 636 c 128,-1,5
 65 621 65 621 39 621 c 1,6,-1
 39 601 l 1,7,8
 59 601 59 601 83 610 c 128,-1,9
 107 619 107 619 129 632.5 c 128,-1,10
 151 646 151 646 168.5 660.5 c 128,-1,11
 186 675 186 675 194 687 c 1,12,-1
 194 0 l 1,13,-1
 214 0 l 1,14,-1
 214 720 l 1,0,-1
EndSplineSet
Substitution2: "'tnum' Tabular Numbers lookup 41 subtable" one.tnum
Substitution2: "'frac' Diagonal Fractions lookup 22 subtable" one.numr
Substitution2: "'dnom' Denominators lookup 20 subtable" one.dnom
Substitution2: "'numr' Numerators lookup 19 subtable" one.numr
Substitution2: "'sups' Superscript lookup 18 subtable" onesuperior
Substitution2: "'sinf' Scientific Inferiors lookup 17 subtable" one.subs
Substitution2: "'subs' Subscript lookup 16 subtable" uni2081
AlternateSubs2: "'aalt' Access All Alternates lookup 1 subtable" uni2081 one.subs onesuperior one.numr one.dnom
EndChar

StartChar: two
Encoding: 50 50 21
Width: 561
GlyphClass: 1
Flags: W
LayerCount: 2
Fore
SplineSet
505 0 m 1,0,-1
 505 20 l 1,1,-1
 71 20 l 1,2,3
 71 49 71 49 75.5 86.5 c 128,-1,4
 80 124 80 124 98.5 162.5 c 128,-1,5
 117 201 117 201 155.5 237.5 c 128,-1,6
 194 274 194 274 261 301 c 0,7,8
 296 315 296 315 338 330 c 128,-1,9
 380 345 380 345 417 369 c 128,-1,10
 454 393 454 393 479 429 c 128,-1,11
 504 465 504 465 504 521 c 0,12,13
 504 558 504 558 491.5 593.5 c 128,-1,14
 479 629 479 629 453 657 c 128,-1,15
 427 685 427 685 387.5 702 c 128,-1,16
 348 719 348 719 294 719 c 0,17,18
 234 719 234 719 190.5 699.5 c 128,-1,19
 147 680 147 680 118 657 c 128,-1,20
 89 634 89 634 75 614 c 128,-1,21
 61 594 61 594 61 593 c 2,22,-1
 78 583 l 1,23,24
 88 598 88 598 105.5 618 c 128,-1,25
 123 638 123 638 149 656 c 128,-1,26
 175 674 175 674 210.5 686.5 c 128,-1,27
 246 699 246 699 292 699 c 0,28,29
 342 699 342 699 378 684 c 128,-1,30
 414 669 414 669 437.5 644 c 128,-1,31
 461 619 461 619 472.5 587 c 128,-1,32
 484 555 484 555 484 522 c 0,33,34
 484 472 484 472 461.5 439.5 c 128,-1,35
 439 407 439 407 405 385.5 c 128,-1,36
 371 364 371 364 330.5 349 c 128,-1,37
 290 334 290 334 253 319 c 0,38,39
 208 301 208 301 169 274.5 c 128,-1,40
 130 248 130 248 102.5 210 c 128,-1,41
 75 172 75 172 61.5 120.5 c 128,-1,42
 48 69 48 69 52 0 c 1,43,-1
 505 0 l 1,0,-1
EndSplineSet
Substitution2: "'tnum' Tabular Numbers lookup 41 subtable" two.tnum
Substitution2: "'frac' Diagonal Fractions lookup 22 subtable" two.numr
Substitution2: "'dnom' Denominators lookup 20 subtable" two.dnom
Substitution2: "'numr' Numerators lookup 19 subtable" two.numr
Substitution2: "'sups' Superscript lookup 18 subtable" twosuperior
Substitution2: "'sinf' Scientific Inferiors lookup 17 subtable" two.subs
Substitution2: "'subs' Subscript lookup 16 subtable" uni2082
AlternateSubs2: "'aalt' Access All Alternates lookup 1 subtable" uni2082 two.subs twosuperior two.numr two.dnom
EndChar

StartChar: three
Encoding: 51 51 22
Width: 583
GlyphClass: 1
Flags: W
LayerCount: 2
Fore
SplineSet
283 -9 m 0,0,1
 333 -9 333 -9 377.5 5.5 c 128,-1,2
 422 20 422 20 456 45 c 128,-1,3
 490 70 490 70 509.5 104 c 128,-1,4
 529 138 529 138 529 178 c 0,5,6
 529 212 529 212 517.5 241.5 c 128,-1,7
 506 271 506 271 484.5 295 c 128,-1,8
 463 319 463 319 432.5 335.5 c 128,-1,9
 402 352 402 352 365 359 c 1,10,11
 401 368 401 368 428 383 c 128,-1,12
 455 398 455 398 473 418.5 c 128,-1,13
 491 439 491 439 500 464.5 c 128,-1,14
 509 490 509 490 509 521 c 0,15,16
 509 563 509 563 492 599.5 c 128,-1,17
 475 636 475 636 444.5 662.5 c 128,-1,18
 414 689 414 689 372 704 c 128,-1,19
 330 719 330 719 281 719 c 0,20,21
 244 719 244 719 210 710 c 128,-1,22
 176 701 176 701 148 684.5 c 128,-1,23
 120 668 120 668 99 644.5 c 128,-1,24
 78 621 78 621 66 592 c 1,25,-1
 84 584 l 1,26,27
 105 637 105 637 158.5 668 c 128,-1,28
 212 699 212 699 281 699 c 0,29,30
 326 699 326 699 364 685.5 c 128,-1,31
 402 672 402 672 430 648.5 c 128,-1,32
 458 625 458 625 473.5 592.5 c 128,-1,33
 489 560 489 560 489 521 c 0,34,35
 489 447 489 447 431.5 408.5 c 128,-1,36
 374 370 374 370 264 370 c 2,37,-1
 229 370 l 1,38,-1
 229 350 l 1,39,-1
 264 350 l 2,40,41
 319 350 319 350 364 338 c 128,-1,42
 409 326 409 326 441.5 303.5 c 128,-1,43
 474 281 474 281 491.5 249.5 c 128,-1,44
 509 218 509 218 509 179 c 0,45,46
 509 143 509 143 491 112.5 c 128,-1,47
 473 82 473 82 442 59.5 c 128,-1,48
 411 37 411 37 370 24 c 128,-1,49
 329 11 329 11 283 11 c 0,50,51
 248 11 248 11 214.5 19.5 c 128,-1,52
 181 28 181 28 153 43 c 128,-1,53
 125 58 125 58 104.5 79 c 128,-1,54
 84 100 84 100 75 126 c 1,55,-1
 56 119 l 1,56,57
 67 90 67 90 89.5 66 c 128,-1,58
 112 42 112 42 143 25.5 c 128,-1,59
 174 9 174 9 210 0 c 128,-1,60
 246 -9 246 -9 283 -9 c 0,0,1
EndSplineSet
Substitution2: "'tnum' Tabular Numbers lookup 41 subtable" three.tnum
Substitution2: "'frac' Diagonal Fractions lookup 22 subtable" three.numr
Substitution2: "'dnom' Denominators lookup 20 subtable" three.dnom
Substitution2: "'numr' Numerators lookup 19 subtable" three.numr
Substitution2: "'sups' Superscript lookup 18 subtable" threesuperior
Substitution2: "'sinf' Scientific Inferiors lookup 17 subtable" three.subs
Substitution2: "'subs' Subscript lookup 16 subtable" uni2083
AlternateSubs2: "'aalt' Access All Alternates lookup 1 subtable" uni2083 three.subs threesuperior three.numr three.dnom
EndChar

StartChar: four
Encoding: 52 52 23
Width: 550
GlyphClass: 1
Flags: W
LayerCount: 2
Fore
SplineSet
429 0 m 1,0,-1
 429 211 l 1,1,-1
 517 211 l 1,2,-1
 517 231 l 1,3,-1
 429 231 l 1,4,-1
 429 710 l 1,5,-1
 415 710 l 1,6,-1
 24 228 l 1,7,-1
 24 211 l 1,8,-1
 409 211 l 1,9,-1
 409 0 l 1,10,-1
 429 0 l 1,0,-1
409 673 m 1,11,-1
 409 231 l 1,12,-1
 52 231 l 1,13,-1
 409 673 l 1,11,-1
EndSplineSet
Substitution2: "'tnum' Tabular Numbers lookup 41 subtable" four.tnum
Substitution2: "'frac' Diagonal Fractions lookup 22 subtable" four.numr
Substitution2: "'dnom' Denominators lookup 20 subtable" four.dnom
Substitution2: "'numr' Numerators lookup 19 subtable" four.numr
Substitution2: "'sups' Superscript lookup 18 subtable" uni2074
Substitution2: "'sinf' Scientific Inferiors lookup 17 subtable" four.subs
Substitution2: "'subs' Subscript lookup 16 subtable" uni2084
AlternateSubs2: "'aalt' Access All Alternates lookup 1 subtable" uni2084 four.subs uni2074 four.numr four.dnom
EndChar

StartChar: five
Encoding: 53 53 24
Width: 550
GlyphClass: 1
Flags: W
LayerCount: 2
Fore
SplineSet
270 -10 m 0,0,1
 317 -10 317 -10 359.5 6.5 c 128,-1,2
 402 23 402 23 434.5 53.5 c 128,-1,3
 467 84 467 84 486 126.5 c 128,-1,4
 505 169 505 169 505 221 c 0,5,6
 505 271 505 271 487 312 c 128,-1,7
 469 353 469 353 437.5 382.5 c 128,-1,8
 406 412 406 412 364 428.5 c 128,-1,9
 322 445 322 445 275 445 c 0,10,11
 222 445 222 445 173.5 424.5 c 128,-1,12
 125 404 125 404 89 365 c 1,13,-1
 154 690 l 1,14,-1
 474 690 l 1,15,-1
 474 710 l 1,16,-1
 137 710 l 1,17,-1
 59 327 l 1,18,-1
 83 327 l 1,19,20
 116 375 116 375 167 400 c 128,-1,21
 218 425 218 425 275 425 c 0,22,23
 319 425 319 425 357 410 c 128,-1,24
 395 395 395 395 423.5 368 c 128,-1,25
 452 341 452 341 468.5 303.5 c 128,-1,26
 485 266 485 266 485 221 c 0,27,28
 485 175 485 175 468 136 c 128,-1,29
 451 97 451 97 422 69 c 128,-1,30
 393 41 393 41 354 25.5 c 128,-1,31
 315 10 315 10 270 10 c 0,32,33
 203 10 203 10 149 44.5 c 128,-1,34
 95 79 95 79 68 136 c 1,35,-1
 50 126 l 1,36,37
 79 60 79 60 137 25 c 128,-1,38
 195 -10 195 -10 270 -10 c 0,0,1
EndSplineSet
Substitution2: "'tnum' Tabular Numbers lookup 41 subtable" five.tnum
Substitution2: "'frac' Diagonal Fractions lookup 22 subtable" five.numr
Substitution2: "'dnom' Denominators lookup 20 subtable" five.dnom
Substitution2: "'numr' Numerators lookup 19 subtable" five.numr
Substitution2: "'sups' Superscript lookup 18 subtable" uni2075
Substitution2: "'sinf' Scientific Inferiors lookup 17 subtable" five.subs
Substitution2: "'subs' Subscript lookup 16 subtable" uni2085
AlternateSubs2: "'aalt' Access All Alternates lookup 1 subtable" uni2085 five.subs uni2075 five.numr five.dnom
EndChar

StartChar: six
Encoding: 54 54 25
Width: 595
GlyphClass: 1
Flags: W
LayerCount: 2
Fore
SplineSet
552 232 m 256,0,1
 552 182 552 182 533 138 c 128,-1,2
 514 94 514 94 480.5 61 c 128,-1,3
 447 28 447 28 402 9 c 128,-1,4
 357 -10 357 -10 306 -10 c 0,5,6
 253 -10 253 -10 207.5 9 c 128,-1,7
 162 28 162 28 128 64 c 128,-1,8
 94 100 94 100 75 151 c 128,-1,9
 56 202 56 202 56 266 c 0,10,11
 56 383 56 383 74.5 467.5 c 128,-1,12
 93 552 93 552 126.5 607 c 128,-1,13
 160 662 160 662 206.5 688.5 c 128,-1,14
 253 715 253 715 308 715 c 0,15,16
 381 715 381 715 436.5 675.5 c 128,-1,17
 492 636 492 636 514 568 c 1,18,-1
 495 561 l 1,19,20
 476 621 476 621 425 658 c 128,-1,21
 374 695 374 695 309 695 c 0,22,23
 257 695 257 695 214.5 669 c 128,-1,24
 172 643 172 643 141.5 593.5 c 128,-1,25
 111 544 111 544 94.5 472 c 128,-1,26
 78 400 78 400 78 308 c 1,27,28
 90 345 90 345 112.5 376 c 128,-1,29
 135 407 135 407 166 429 c 128,-1,30
 197 451 197 451 233.5 463 c 128,-1,31
 270 475 270 475 310 475 c 0,32,33
 360 475 360 475 404 456 c 128,-1,34
 448 437 448 437 481 404 c 128,-1,35
 514 371 514 371 533 326.5 c 128,-1,36
 552 282 552 282 552 232 c 256,0,1
308 10 m 256,37,38
 354 10 354 10 395 27.5 c 128,-1,39
 436 45 436 45 466.5 75 c 128,-1,40
 497 105 497 105 514.5 145.5 c 128,-1,41
 532 186 532 186 532 231 c 0,42,43
 532 277 532 277 514 317.5 c 128,-1,44
 496 358 496 358 465.5 388.5 c 128,-1,45
 435 419 435 419 394 437 c 128,-1,46
 353 455 353 455 307 455 c 256,47,48
 261 455 261 455 220 437 c 128,-1,49
 179 419 179 419 148.5 388.5 c 128,-1,50
 118 358 118 358 100 317.5 c 128,-1,51
 82 277 82 277 82 232 c 256,52,53
 82 187 82 187 100 146.5 c 128,-1,54
 118 106 118 106 149 75.5 c 128,-1,55
 180 45 180 45 221 27.5 c 128,-1,56
 262 10 262 10 308 10 c 256,37,38
EndSplineSet
Substitution2: "'tnum' Tabular Numbers lookup 41 subtable" six.tnum
Substitution2: "'frac' Diagonal Fractions lookup 22 subtable" six.numr
Substitution2: "'dnom' Denominators lookup 20 subtable" six.dnom
Substitution2: "'numr' Numerators lookup 19 subtable" six.numr
Substitution2: "'sups' Superscript lookup 18 subtable" uni2076
Substitution2: "'sinf' Scientific Inferiors lookup 17 subtable" six.subs
Substitution2: "'subs' Subscript lookup 16 subtable" uni2086
AlternateSubs2: "'aalt' Access All Alternates lookup 1 subtable" uni2086 six.subs uni2076 six.numr six.dnom
EndChar

StartChar: seven
Encoding: 55 55 26
Width: 491
GlyphClass: 1
Flags: W
LayerCount: 2
Fore
SplineSet
102 0 m 1,0,-1
 125 0 l 1,1,-1
 489 710 l 1,2,-1
 29 710 l 1,3,-1
 29 690 l 1,4,-1
 456 690 l 1,5,-1
 102 0 l 1,0,-1
EndSplineSet
Substitution2: "'tnum' Tabular Numbers lookup 41 subtable" seven.tnum
Substitution2: "'frac' Diagonal Fractions lookup 22 subtable" seven.numr
Substitution2: "'dnom' Denominators lookup 20 subtable" seven.dnom
Substitution2: "'numr' Numerators lookup 19 subtable" seven.numr
Substitution2: "'sups' Superscript lookup 18 subtable" uni2077
Substitution2: "'sinf' Scientific Inferiors lookup 17 subtable" seven.subs
Substitution2: "'subs' Subscript lookup 16 subtable" uni2087
AlternateSubs2: "'aalt' Access All Alternates lookup 1 subtable" uni2087 seven.subs uni2077 seven.numr seven.dnom
EndChar

StartChar: eight
Encoding: 56 56 27
Width: 581
GlyphClass: 1
Flags: W
LayerCount: 2
Fore
SplineSet
528 188 m 0,0,1
 528 224 528 224 515.5 254.5 c 128,-1,2
 503 285 503 285 480.5 310 c 128,-1,3
 458 335 458 335 428 353 c 128,-1,4
 398 371 398 371 363 381 c 1,5,6
 391 391 391 391 416 406 c 128,-1,7
 441 421 441 421 460 441 c 128,-1,8
 479 461 479 461 490.5 486 c 128,-1,9
 502 511 502 511 502 541 c 0,10,11
 502 582 502 582 483.5 613.5 c 128,-1,12
 465 645 465 645 435.5 666.5 c 128,-1,13
 406 688 406 688 368 699 c 128,-1,14
 330 710 330 710 291 710 c 256,15,16
 252 710 252 710 214 699 c 128,-1,17
 176 688 176 688 146 666.5 c 128,-1,18
 116 645 116 645 97.5 613.5 c 128,-1,19
 79 582 79 582 79 541 c 0,20,21
 79 511 79 511 90 486 c 128,-1,22
 101 461 101 461 120 441 c 128,-1,23
 139 421 139 421 164 406 c 128,-1,24
 189 391 189 391 217 381 c 1,25,26
 187 373 187 373 157.5 356 c 128,-1,27
 128 339 128 339 104.5 314.5 c 128,-1,28
 81 290 81 290 67 258.5 c 128,-1,29
 53 227 53 227 53 190 c 0,30,31
 53 151 53 151 69.5 115.5 c 128,-1,32
 86 80 86 80 116.5 53 c 128,-1,33
 147 26 147 26 190 9.5 c 128,-1,34
 233 -7 233 -7 287 -7 c 0,35,36
 335 -7 335 -7 378.5 6.5 c 128,-1,37
 422 20 422 20 455.5 45.5 c 128,-1,38
 489 71 489 71 508.5 107 c 128,-1,39
 528 143 528 143 528 188 c 0,0,1
508 191 m 0,40,41
 508 149 508 149 488.5 115.5 c 128,-1,42
 469 82 469 82 438.5 58.5 c 128,-1,43
 408 35 408 35 369.5 22.5 c 128,-1,44
 331 10 331 10 292 10 c 0,45,46
 255 10 255 10 216 22 c 128,-1,47
 177 34 177 34 145 57 c 128,-1,48
 113 80 113 80 93 113 c 128,-1,49
 73 146 73 146 73 189 c 0,50,51
 73 230 73 230 92 263.5 c 128,-1,52
 111 297 111 297 142 321 c 128,-1,53
 173 345 173 345 211.5 358 c 128,-1,54
 250 371 250 371 289 371 c 0,55,56
 327 371 327 371 365.5 359 c 128,-1,57
 404 347 404 347 436 324 c 128,-1,58
 468 301 468 301 488 267.5 c 128,-1,59
 508 234 508 234 508 191 c 0,40,41
99 539 m 256,60,61
 99 575 99 575 115 603 c 128,-1,62
 131 631 131 631 157.5 650.5 c 128,-1,63
 184 670 184 670 218.5 680 c 128,-1,64
 253 690 253 690 289 690 c 256,65,66
 325 690 325 690 360 680 c 128,-1,67
 395 670 395 670 422 651 c 128,-1,68
 449 632 449 632 465.5 604.5 c 128,-1,69
 482 577 482 577 482 541 c 256,70,71
 482 505 482 505 464.5 477.5 c 128,-1,72
 447 450 447 450 419 430.5 c 128,-1,73
 391 411 391 411 357 401 c 128,-1,74
 323 391 323 391 290 391 c 256,75,76
 257 391 257 391 223.5 401 c 128,-1,77
 190 411 190 411 162 429.5 c 128,-1,78
 134 448 134 448 116.5 475.5 c 128,-1,79
 99 503 99 503 99 539 c 256,60,61
EndSplineSet
Substitution2: "'tnum' Tabular Numbers lookup 41 subtable" eight.tnum
Substitution2: "'frac' Diagonal Fractions lookup 22 subtable" eight.numr
Substitution2: "'dnom' Denominators lookup 20 subtable" eight.dnom
Substitution2: "'numr' Numerators lookup 19 subtable" eight.numr
Substitution2: "'sups' Superscript lookup 18 subtable" uni2078
Substitution2: "'sinf' Scientific Inferiors lookup 17 subtable" eight.subs
Substitution2: "'subs' Subscript lookup 16 subtable" uni2088
AlternateSubs2: "'aalt' Access All Alternates lookup 1 subtable" uni2088 eight.subs uni2078 eight.numr eight.dnom
EndChar

StartChar: nine
Encoding: 57 57 28
Width: 595
GlyphClass: 1
Flags: W
LayerCount: 2
Fore
SplineSet
43 473 m 256,0,1
 43 523 43 523 62 567 c 128,-1,2
 81 611 81 611 114.5 644 c 128,-1,3
 148 677 148 677 193 696 c 128,-1,4
 238 715 238 715 289 715 c 0,5,6
 342 715 342 715 387.5 696 c 128,-1,7
 433 677 433 677 467 641 c 128,-1,8
 501 605 501 605 520 554 c 128,-1,9
 539 503 539 503 539 439 c 0,10,11
 539 322 539 322 520.5 237.5 c 128,-1,12
 502 153 502 153 468.5 98 c 128,-1,13
 435 43 435 43 389 16.5 c 128,-1,14
 343 -10 343 -10 287 -10 c 0,15,16
 214 -10 214 -10 158.5 29.5 c 128,-1,17
 103 69 103 69 81 137 c 1,18,-1
 100 144 l 1,19,20
 119 84 119 84 170 47 c 128,-1,21
 221 10 221 10 286 10 c 0,22,23
 338 10 338 10 380.5 36 c 128,-1,24
 423 62 423 62 453.5 111.5 c 128,-1,25
 484 161 484 161 500.5 233 c 128,-1,26
 517 305 517 305 517 397 c 1,27,28
 505 360 505 360 482.5 329 c 128,-1,29
 460 298 460 298 429 276 c 128,-1,30
 398 254 398 254 361.5 242 c 128,-1,31
 325 230 325 230 285 230 c 0,32,33
 235 230 235 230 191 249 c 128,-1,34
 147 268 147 268 114 301 c 128,-1,35
 81 334 81 334 62 378.5 c 128,-1,36
 43 423 43 423 43 473 c 256,0,1
287 695 m 256,37,38
 241 695 241 695 200 677.5 c 128,-1,39
 159 660 159 660 128.5 630 c 128,-1,40
 98 600 98 600 80.5 559.5 c 128,-1,41
 63 519 63 519 63 474 c 0,42,43
 63 428 63 428 81 387.5 c 128,-1,44
 99 347 99 347 130 316.5 c 128,-1,45
 161 286 161 286 201.5 268 c 128,-1,46
 242 250 242 250 288 250 c 256,47,48
 334 250 334 250 375 268 c 128,-1,49
 416 286 416 286 446.5 316.5 c 128,-1,50
 477 347 477 347 495 387.5 c 128,-1,51
 513 428 513 428 513 473 c 256,52,53
 513 518 513 518 495 558.5 c 128,-1,54
 477 599 477 599 446 629.5 c 128,-1,55
 415 660 415 660 374 677.5 c 128,-1,56
 333 695 333 695 287 695 c 256,37,38
EndSplineSet
Substitution2: "'tnum' Tabular Numbers lookup 41 subtable" nine.tnum
Substitution2: "'frac' Diagonal Fractions lookup 22 subtable" nine.numr
Substitution2: "'dnom' Denominators lookup 20 subtable" nine.dnom
Substitution2: "'numr' Numerators lookup 19 subtable" nine.numr
Substitution2: "'sups' Superscript lookup 18 subtable" uni2079
Substitution2: "'sinf' Scientific Inferiors lookup 17 subtable" nine.subs
Substitution2: "'subs' Subscript lookup 16 subtable" uni2089
AlternateSubs2: "'aalt' Access All Alternates lookup 1 subtable" uni2089 nine.subs uni2079 nine.numr nine.dnom
EndChar

StartChar: less
Encoding: 60 60 31
Width: 502
GlyphClass: 1
Flags: W
LayerCount: 2
Fore
SplineSet
34 250 m 1,0,-1
 451 0 l 1,1,-1
 451 22 l 1,2,-1
 63 259 l 1,3,-1
 451 495 l 1,4,-1
 451 517 l 1,5,-1
 34 268 l 1,6,-1
 34 250 l 1,0,-1
EndSplineSet
EndChar

StartChar: equal
Encoding: 61 61 32
Width: 435
GlyphClass: 1
Flags: W
LayerCount: 2
Fore
SplineSet
364 231 m 1,0,-1
 364 251 l 1,1,-1
 71 251 l 1,2,-1
 71 231 l 1,3,-1
 364 231 l 1,0,-1
364 301 m 1,4,-1
 364 321 l 1,5,-1
 71 321 l 1,6,-1
 71 301 l 1,7,-1
 364 301 l 1,4,-1
EndSplineSet
EndChar

StartChar: greater
Encoding: 62 62 33
Width: 502
GlyphClass: 1
Flags: W
LayerCount: 2
Fore
SplineSet
468 268 m 1,0,-1
 51 517 l 1,1,-1
 51 495 l 1,2,-1
 439 259 l 1,3,-1
 51 22 l 1,4,-1
 51 0 l 1,5,-1
 468 250 l 1,6,-1
 468 268 l 1,0,-1
EndSplineSet
EndChar

StartChar: question
Encoding: 63 63 34
Width: 468
GlyphClass: 1
Flags: W
LayerCount: 2
Fore
SplineSet
198 179 m 1,0,1
 198 223 198 223 203.5 251.5 c 128,-1,2
 209 280 209 280 219 298.5 c 128,-1,3
 229 317 229 317 242.5 327.5 c 128,-1,4
 256 338 256 338 272 347 c 0,5,6
 299 362 299 362 327 375.5 c 128,-1,7
 355 389 355 389 378 408.5 c 128,-1,8
 401 428 401 428 415.5 457.5 c 128,-1,9
 430 487 430 487 430 532 c 0,10,11
 430 578 430 578 414.5 613 c 128,-1,12
 399 648 399 648 373 671.5 c 128,-1,13
 347 695 347 695 313 707 c 128,-1,14
 279 719 279 719 243 719 c 0,15,16
 212 719 212 719 181 710.5 c 128,-1,17
 150 702 150 702 122 685.5 c 128,-1,18
 94 669 94 669 71.5 645 c 128,-1,19
 49 621 49 621 35 590 c 1,20,-1
 53 582 l 1,21,22
 66 609 66 609 86 630.5 c 128,-1,23
 106 652 106 652 131 667.5 c 128,-1,24
 156 683 156 683 185 691 c 128,-1,25
 214 699 214 699 244 699 c 0,26,27
 276 699 276 699 305.5 689.5 c 128,-1,28
 335 680 335 680 358.5 660 c 128,-1,29
 382 640 382 640 396 609 c 128,-1,30
 410 578 410 578 410 535 c 256,31,32
 410 492 410 492 396 465 c 128,-1,33
 382 438 382 438 360.5 420 c 128,-1,34
 339 402 339 402 313.5 390 c 128,-1,35
 288 378 288 378 264 366 c 0,36,37
 246 357 246 357 230 344.5 c 128,-1,38
 214 332 214 332 202.5 311 c 128,-1,39
 191 290 191 290 184.5 258.5 c 128,-1,40
 178 227 178 227 178 179 c 1,41,-1
 198 179 l 1,0,1
154 29 m 256,42,43
 154 15 154 15 164 5 c 128,-1,44
 174 -5 174 -5 188 -5 c 256,45,46
 202 -5 202 -5 212 5 c 128,-1,47
 222 15 222 15 222 29 c 256,48,49
 222 43 222 43 212 52.5 c 128,-1,50
 202 62 202 62 188 62 c 256,51,52
 174 62 174 62 164 52.5 c 128,-1,53
 154 43 154 43 154 29 c 256,42,43
EndSplineSet
EndChar

StartChar: at
Encoding: 64 64 35
Width: 830
GlyphClass: 1
Flags: W
LayerCount: 2
Fore
SplineSet
413 603 m 0,0,1
 343 603 343 603 277 575.5 c 128,-1,2
 211 548 211 548 161 498.5 c 128,-1,3
 111 449 111 449 80.5 380.5 c 128,-1,4
 50 312 50 312 50 230 c 0,5,6
 50 151 50 151 78.5 82.5 c 128,-1,7
 107 14 107 14 156.5 -37 c 128,-1,8
 206 -88 206 -88 272 -117 c 128,-1,9
 338 -146 338 -146 412 -146 c 0,10,11
 454 -146 454 -146 494.5 -136 c 128,-1,12
 535 -126 535 -126 574 -106 c 1,13,-1
 564 -88 l 1,14,15
 528 -108 528 -108 489.5 -117 c 128,-1,16
 451 -126 451 -126 412 -126 c 0,17,18
 342 -126 342 -126 279.5 -98 c 128,-1,19
 217 -70 217 -70 170.5 -22 c 128,-1,20
 124 26 124 26 97 91 c 128,-1,21
 70 156 70 156 70 230 c 0,22,23
 70 307 70 307 98.5 371.5 c 128,-1,24
 127 436 127 436 174.5 483 c 128,-1,25
 222 530 222 530 284 556.5 c 128,-1,26
 346 583 346 583 413 583 c 0,27,28
 482 583 482 583 543.5 554.5 c 128,-1,29
 605 526 605 526 650.5 477.5 c 128,-1,30
 696 429 696 429 722.5 363.5 c 128,-1,31
 749 298 749 298 749 223 c 0,32,33
 749 192 749 192 743.5 153.5 c 128,-1,34
 738 115 738 115 724 82 c 128,-1,35
 710 49 710 49 687.5 26.5 c 128,-1,36
 665 4 665 4 630 4 c 0,37,38
 613 4 613 4 602.5 10 c 128,-1,39
 592 16 592 16 586.5 27.5 c 128,-1,40
 581 39 581 39 579 56 c 128,-1,41
 577 73 577 73 577 95 c 2,42,-1
 577 248 l 2,43,44
 577 285 577 285 572 321 c 128,-1,45
 567 357 567 357 551 385.5 c 128,-1,46
 535 414 535 414 505.5 431.5 c 128,-1,47
 476 449 476 449 427 449 c 0,48,49
 382 449 382 449 343.5 434.5 c 128,-1,50
 305 420 305 420 270 397 c 1,51,-1
 282 381 l 1,52,53
 314 404 314 404 351 416.5 c 128,-1,54
 388 429 388 429 426 429 c 0,55,56
 465 429 465 429 490.5 415.5 c 128,-1,57
 516 402 516 402 531 377 c 128,-1,58
 546 352 546 352 552 317.5 c 128,-1,59
 558 283 558 283 558 242 c 1,60,61
 541 248 541 248 504 256.5 c 128,-1,62
 467 265 467 265 422 265 c 0,63,64
 390 265 390 265 357.5 259 c 128,-1,65
 325 253 325 253 299 238.5 c 128,-1,66
 273 224 273 224 257 200 c 128,-1,67
 241 176 241 176 241 140 c 0,68,69
 241 83 241 83 281 47.5 c 128,-1,70
 321 12 321 12 387 12 c 0,71,72
 439 12 439 12 483.5 33.5 c 128,-1,73
 528 55 528 55 554 84 c 1,74,75
 556 63 556 63 559 45 c 128,-1,76
 562 27 562 27 569.5 13 c 128,-1,77
 577 -1 577 -1 591 -8.5 c 128,-1,78
 605 -16 605 -16 629 -16 c 0,79,80
 677 -16 677 -16 705 13 c 128,-1,81
 733 42 733 42 747 81 c 128,-1,82
 761 120 761 120 765 160 c 128,-1,83
 769 200 769 200 769 222 c 0,84,85
 769 301 769 301 741 370.5 c 128,-1,86
 713 440 713 440 665 491.5 c 128,-1,87
 617 543 617 543 552 573 c 128,-1,88
 487 603 487 603 413 603 c 0,0,1
484 55 m 0,89,90
 465 46 465 46 439 39 c 128,-1,91
 413 32 413 32 387 32 c 0,92,93
 362 32 362 32 339.5 39 c 128,-1,94
 317 46 317 46 299.5 59.5 c 128,-1,95
 282 73 282 73 271.5 93.5 c 128,-1,96
 261 114 261 114 261 140 c 0,97,98
 261 170 261 170 274.5 190.5 c 128,-1,99
 288 211 288 211 310.5 223 c 128,-1,100
 333 235 333 235 361 240 c 128,-1,101
 389 245 389 245 417 245 c 256,102,103
 445 245 445 245 468.5 241.5 c 128,-1,104
 492 238 492 238 509.5 233.5 c 128,-1,105
 527 229 527 229 539 225 c 128,-1,106
 551 221 551 221 557 221 c 1,107,-1
 557 174 l 2,108,109
 557 159 557 159 555 142.5 c 128,-1,110
 553 126 553 126 545.5 110.5 c 128,-1,111
 538 95 538 95 523.5 81 c 128,-1,112
 509 67 509 67 484 55 c 0,89,90
EndSplineSet
EndChar

StartChar: A
Encoding: 65 65 36
Width: 674
GlyphClass: 1
Flags: W
LayerCount: 2
Fore
SplineSet
18 0 m 1,0,-1
 40 0 l 1,1,-1
 151 254 l 1,2,-1
 522 254 l 1,3,-1
 633 0 l 1,4,-1
 655 0 l 1,5,-1
 346 710 l 1,6,-1
 328 710 l 1,7,-1
 18 0 l 1,0,-1
159 274 m 1,8,-1
 337 681 l 1,9,-1
 513 274 l 1,10,-1
 159 274 l 1,8,-1
EndSplineSet
Substitution2: "Single Substitution lookup 45 subtable" ordfeminine
Substitution2: "'aalt' Access All Alternates lookup 0 subtable" ordfeminine
EndChar

StartChar: B
Encoding: 66 66 37
Width: 655
GlyphClass: 1
Flags: W
LayerCount: 2
Fore
SplineSet
605 184 m 0,0,1
 605 214 605 214 596 242.5 c 128,-1,2
 587 271 587 271 569.5 295 c 128,-1,3
 552 319 552 319 527.5 337 c 128,-1,4
 503 355 503 355 473 364 c 1,5,6
 520 385 520 385 547.5 430 c 128,-1,7
 575 475 575 475 575 529 c 0,8,9
 575 562 575 562 564 594.5 c 128,-1,10
 553 627 553 627 532 652.5 c 128,-1,11
 511 678 511 678 481 694 c 128,-1,12
 451 710 451 710 413 710 c 2,13,-1
 99 710 l 1,14,-1
 99 0 l 1,15,-1
 428 0 l 2,16,17
 464 0 464 0 496.5 15 c 128,-1,18
 529 30 529 30 553 55.5 c 128,-1,19
 577 81 577 81 591 114 c 128,-1,20
 605 147 605 147 605 184 c 0,0,1
585 184 m 0,21,22
 585 153 585 153 573 123.5 c 128,-1,23
 561 94 561 94 539.5 71 c 128,-1,24
 518 48 518 48 489.5 34 c 128,-1,25
 461 20 461 20 428 20 c 2,26,-1
 119 20 l 1,27,-1
 119 348 l 1,28,-1
 435 348 l 2,29,30
 467 348 467 348 494.5 334.5 c 128,-1,31
 522 321 522 321 542 298 c 128,-1,32
 562 275 562 275 573.5 245.5 c 128,-1,33
 585 216 585 216 585 184 c 0,21,22
413 690 m 2,34,35
 445 690 445 690 471 677 c 128,-1,36
 497 664 497 664 515.5 641.5 c 128,-1,37
 534 619 534 619 544.5 590 c 128,-1,38
 555 561 555 561 555 529 c 0,39,40
 555 499 555 499 544 470.5 c 128,-1,41
 533 442 533 442 513.5 419 c 128,-1,42
 494 396 494 396 467 382 c 128,-1,43
 440 368 440 368 407 368 c 2,44,-1
 119 368 l 1,45,-1
 119 690 l 1,46,-1
 413 690 l 2,34,35
EndSplineSet
EndChar

StartChar: C
Encoding: 67 67 38
Width: 697
GlyphClass: 1
Flags: W
LayerCount: 2
Fore
SplineSet
48 360 m 0,0,1
 48 293 48 293 72.5 227 c 128,-1,2
 97 161 97 161 140.5 109.5 c 128,-1,3
 184 58 184 58 245 26 c 128,-1,4
 306 -6 306 -6 378 -6 c 0,5,6
 419 -6 419 -6 461 4.5 c 128,-1,7
 503 15 503 15 541 36 c 128,-1,8
 579 57 579 57 610 88 c 128,-1,9
 641 119 641 119 659 159 c 1,10,-1
 640 164 l 1,11,12
 619 125 619 125 589.5 96.5 c 128,-1,13
 560 68 560 68 525.5 50 c 128,-1,14
 491 32 491 32 454 23 c 128,-1,15
 417 14 417 14 382 14 c 0,16,17
 316 14 316 14 259 42 c 128,-1,18
 202 70 202 70 159.5 117.5 c 128,-1,19
 117 165 117 165 92.5 227 c 128,-1,20
 68 289 68 289 68 357 c 0,21,22
 68 419 68 419 89 479 c 128,-1,23
 110 539 110 539 149.5 587 c 128,-1,24
 189 635 189 635 247 664.5 c 128,-1,25
 305 694 305 694 379 694 c 0,26,27
 413 694 413 694 447.5 686.5 c 128,-1,28
 482 679 482 679 514.5 662.5 c 128,-1,29
 547 646 547 646 574.5 619 c 128,-1,30
 602 592 602 592 623 553 c 1,31,-1
 642 559 l 1,32,33
 610 627 610 627 544 670.5 c 128,-1,34
 478 714 478 714 383 714 c 0,35,36
 303 714 303 714 240.5 682.5 c 128,-1,37
 178 651 178 651 135.5 600.5 c 128,-1,38
 93 550 93 550 70.5 487 c 128,-1,39
 48 424 48 424 48 360 c 0,0,1
EndSplineSet
EndChar

StartChar: D
Encoding: 68 68 39
Width: 711
GlyphClass: 1
Flags: W
LayerCount: 2
Fore
SplineSet
327 0 m 2,0,1
 404 0 404 0 465.5 25.5 c 128,-1,2
 527 51 527 51 570 97.5 c 128,-1,3
 613 144 613 144 636.5 209.5 c 128,-1,4
 660 275 660 275 660 356 c 0,5,6
 660 430 660 430 639.5 494.5 c 128,-1,7
 619 559 619 559 577.5 607 c 128,-1,8
 536 655 536 655 473.5 682.5 c 128,-1,9
 411 710 411 710 327 710 c 2,10,-1
 99 710 l 1,11,-1
 99 0 l 1,12,-1
 327 0 l 2,0,1
640 356 m 0,13,14
 640 284 640 284 620 222.5 c 128,-1,15
 600 161 600 161 560.5 116 c 128,-1,16
 521 71 521 71 462.5 45.5 c 128,-1,17
 404 20 404 20 327 20 c 2,18,-1
 119 20 l 1,19,-1
 119 690 l 1,20,-1
 327 690 l 2,21,22
 402 690 402 690 460.5 665 c 128,-1,23
 519 640 519 640 559 595.5 c 128,-1,24
 599 551 599 551 619.5 490 c 128,-1,25
 640 429 640 429 640 356 c 0,13,14
EndSplineSet
EndChar

StartChar: E
Encoding: 69 69 40
Width: 617
GlyphClass: 1
Flags: W
LayerCount: 2
Fore
SplineSet
119 20 m 1,0,-1
 119 353 l 1,1,-1
 502 353 l 1,2,-1
 502 373 l 1,3,-1
 119 373 l 1,4,-1
 119 690 l 1,5,-1
 556 690 l 1,6,-1
 556 710 l 1,7,-1
 99 710 l 1,8,-1
 99 0 l 1,9,-1
 565 0 l 1,10,-1
 565 20 l 1,11,-1
 119 20 l 1,0,-1
EndSplineSet
EndChar

StartChar: F
Encoding: 70 70 41
Width: 602
GlyphClass: 1
Flags: W
LayerCount: 2
Fore
SplineSet
119 0 m 1,0,-1
 119 354 l 1,1,-1
 492 354 l 1,2,-1
 492 374 l 1,3,-1
 119 374 l 1,4,-1
 119 690 l 1,5,-1
 556 690 l 1,6,-1
 556 710 l 1,7,-1
 99 710 l 1,8,-1
 99 0 l 1,9,-1
 119 0 l 1,0,-1
EndSplineSet
EndChar

StartChar: G
Encoding: 71 71 42
Width: 736
GlyphClass: 1
Flags: W
LayerCount: 2
Fore
SplineSet
377 -5 m 0,0,1
 418 -5 418 -5 458.5 4 c 128,-1,2
 499 13 499 13 537 29.5 c 128,-1,3
 575 46 575 46 609 68 c 128,-1,4
 643 90 643 90 669 115 c 1,5,-1
 669 329 l 1,6,-1
 401 329 l 1,7,-1
 401 309 l 1,8,-1
 647 309 l 1,9,-1
 647 124 l 1,10,11
 622 102 622 102 591.5 82 c 128,-1,12
 561 62 561 62 527.5 47 c 128,-1,13
 494 32 494 32 456.5 23.5 c 128,-1,14
 419 15 419 15 379 15 c 0,15,16
 312 15 312 15 254.5 43.5 c 128,-1,17
 197 72 197 72 156 119 c 128,-1,18
 115 166 115 166 91.5 227 c 128,-1,19
 68 288 68 288 68 353 c 0,20,21
 68 417 68 417 90.5 478.5 c 128,-1,22
 113 540 113 540 154 588 c 128,-1,23
 195 636 195 636 252 665.5 c 128,-1,24
 309 695 309 695 378 695 c 0,25,26
 419 695 419 695 456.5 684 c 128,-1,27
 494 673 494 673 527 653 c 128,-1,28
 560 633 560 633 587 605 c 128,-1,29
 614 577 614 577 635 544 c 1,30,-1
 649 558 l 1,31,32
 606 627 606 627 536.5 671 c 128,-1,33
 467 715 467 715 379 715 c 0,34,35
 309 715 309 715 248.5 685.5 c 128,-1,36
 188 656 188 656 143.5 606 c 128,-1,37
 99 556 99 556 73.5 491.5 c 128,-1,38
 48 427 48 427 48 356 c 0,39,40
 48 287 48 287 72.5 222 c 128,-1,41
 97 157 97 157 141 106.5 c 128,-1,42
 185 56 185 56 245 25.5 c 128,-1,43
 305 -5 305 -5 377 -5 c 0,0,1
EndSplineSet
Substitution2: "'ss11' Style Set 11 lookup 39 subtable" G.ss11
Substitution2: "'aalt' Access All Alternates lookup 0 subtable" G.ss11
EndChar

StartChar: H
Encoding: 72 72 43
Width: 731
GlyphClass: 1
Flags: W
LayerCount: 2
Fore
SplineSet
612 710 m 1,0,-1
 612 373 l 1,1,-1
 119 373 l 1,2,-1
 119 710 l 1,3,-1
 99 710 l 1,4,-1
 99 0 l 1,5,-1
 119 0 l 1,6,-1
 119 353 l 1,7,-1
 612 353 l 1,8,-1
 612 0 l 1,9,-1
 632 0 l 1,10,-1
 632 710 l 1,11,-1
 612 710 l 1,0,-1
EndSplineSet
EndChar

StartChar: I
Encoding: 73 73 44
Width: 218
GlyphClass: 1
Flags: W
LayerCount: 2
Fore
SplineSet
119 0 m 1,0,-1
 119 710 l 1,1,-1
 99 710 l 1,2,-1
 99 0 l 1,3,-1
 119 0 l 1,0,-1
EndSplineSet
EndChar

StartChar: J
Encoding: 74 74 45
Width: 518
GlyphClass: 2
Flags: W
LayerCount: 2
Fore
SplineSet
202 -5 m 0,0,1
 178 -5 178 -5 151.5 2 c 128,-1,2
 125 9 125 9 100 22.5 c 128,-1,3
 75 36 75 36 55 54.5 c 128,-1,4
 35 73 35 73 26 96 c 1,5,-1
 43 105 l 1,6,7
 51 85 51 85 69.5 68 c 128,-1,8
 88 51 88 51 110.5 39 c 128,-1,9
 133 27 133 27 157 20.5 c 128,-1,10
 181 14 181 14 202 14 c 0,11,12
 249 14 249 14 285 29 c 128,-1,13
 321 44 321 44 346 70.5 c 128,-1,14
 371 97 371 97 383.5 134.5 c 128,-1,15
 396 172 396 172 396 217 c 2,16,-1
 396 710 l 1,17,-1
 418 710 l 1,18,-1
 418 207 l 2,19,20
 418 158 418 158 402.5 118.5 c 128,-1,21
 387 79 387 79 359 51.5 c 128,-1,22
 331 24 331 24 291 9.5 c 128,-1,23
 251 -5 251 -5 202 -5 c 0,0,1
EndSplineSet
EndChar

StartChar: K
Encoding: 75 75 46
Width: 621
GlyphClass: 1
Flags: W
LayerCount: 2
Fore
SplineSet
119 0 m 1,0,-1
 119 221 l 1,1,-1
 282 386 l 1,2,-1
 588 0 l 1,3,-1
 614 0 l 1,4,-1
 297 400 l 1,5,-1
 600 710 l 1,6,-1
 571 710 l 1,7,-1
 119 249 l 1,8,-1
 119 710 l 1,9,-1
 99 710 l 1,10,-1
 99 0 l 1,11,-1
 119 0 l 1,0,-1
EndSplineSet
EndChar

StartChar: L
Encoding: 76 76 47
Width: 579
GlyphClass: 1
Flags: W
LayerCount: 2
Fore
SplineSet
565 0 m 1,0,-1
 565 20 l 1,1,-1
 119 20 l 1,2,-1
 119 710 l 1,3,-1
 99 710 l 1,4,-1
 99 0 l 1,5,-1
 565 0 l 1,0,-1
EndSplineSet
EndChar

StartChar: M
Encoding: 77 77 48
Width: 884
GlyphClass: 1
Flags: W
LayerCount: 2
Fore
SplineSet
785 0 m 1,0,-1
 785 710 l 1,1,-1
 769 710 l 1,2,-1
 442 164 l 1,3,-1
 115 710 l 1,4,-1
 99 710 l 1,5,-1
 99 0 l 1,6,-1
 119 0 l 1,7,-1
 119 666 l 1,8,-1
 434 140 l 1,9,-1
 450 140 l 1,10,-1
 765 666 l 1,11,-1
 765 0 l 1,12,-1
 785 0 l 1,0,-1
EndSplineSet
EndChar

StartChar: N
Encoding: 78 78 49
Width: 776
GlyphClass: 1
Flags: W
LayerCount: 2
Fore
SplineSet
654 0 m 1,0,-1
 677 0 l 1,1,-1
 677 710 l 1,2,-1
 657 710 l 1,3,-1
 657 29 l 1,4,-1
 114 710 l 1,5,-1
 99 710 l 1,6,-1
 99 0 l 1,7,-1
 119 0 l 1,8,-1
 119 671 l 1,9,-1
 654 0 l 1,0,-1
EndSplineSet
EndChar

StartChar: O
Encoding: 79 79 50
Width: 757
GlyphClass: 1
Flags: W
LayerCount: 2
Fore
SplineSet
379 -5 m 0,0,1
 449 -5 449 -5 509 24.5 c 128,-1,2
 569 54 569 54 613.5 103.5 c 128,-1,3
 658 153 658 153 683.5 218 c 128,-1,4
 709 283 709 283 709 355 c 0,5,6
 709 421 709 421 685 485.5 c 128,-1,7
 661 550 661 550 617.5 601 c 128,-1,8
 574 652 574 652 513.5 683.5 c 128,-1,9
 453 715 453 715 379 715 c 0,10,11
 309 715 309 715 248.5 685.5 c 128,-1,12
 188 656 188 656 143.5 606 c 128,-1,13
 99 556 99 556 73.5 491 c 128,-1,14
 48 426 48 426 48 355 c 0,15,16
 48 287 48 287 72 222 c 128,-1,17
 96 157 96 157 140 107 c 128,-1,18
 184 57 184 57 245 26 c 128,-1,19
 306 -5 306 -5 379 -5 c 0,0,1
68 355 m 0,20,21
 68 418 68 418 90.5 479 c 128,-1,22
 113 540 113 540 154 588 c 128,-1,23
 195 636 195 636 252.5 665.5 c 128,-1,24
 310 695 310 695 379 695 c 0,25,26
 445 695 445 695 501.5 667 c 128,-1,27
 558 639 558 639 600 591.5 c 128,-1,28
 642 544 642 544 665.5 482.5 c 128,-1,29
 689 421 689 421 689 355 c 0,30,31
 689 292 689 292 666.5 231 c 128,-1,32
 644 170 644 170 603.5 122 c 128,-1,33
 563 74 563 74 505.5 44.5 c 128,-1,34
 448 15 448 15 379 15 c 0,35,36
 312 15 312 15 254.5 43 c 128,-1,37
 197 71 197 71 156 118.5 c 128,-1,38
 115 166 115 166 91.5 227.5 c 128,-1,39
 68 289 68 289 68 355 c 0,20,21
EndSplineSet
Substitution2: "Single Substitution lookup 45 subtable" ordmasculine
Substitution2: "'aalt' Access All Alternates lookup 0 subtable" ordmasculine
EndChar

StartChar: P
Encoding: 80 80 51
Width: 619
GlyphClass: 1
Flags: W
LayerCount: 2
Fore
SplineSet
119 0 m 1,0,-1
 119 279 l 1,1,-1
 395 279 l 2,2,3
 438 279 438 279 473.5 297 c 128,-1,4
 509 315 509 315 534.5 345 c 128,-1,5
 560 375 560 375 574 414 c 128,-1,6
 588 453 588 453 588 495 c 0,7,8
 588 535 588 535 573 573.5 c 128,-1,9
 558 612 558 612 531.5 642.5 c 128,-1,10
 505 673 505 673 468.5 691.5 c 128,-1,11
 432 710 432 710 388 710 c 2,12,-1
 99 710 l 1,13,-1
 99 0 l 1,14,-1
 119 0 l 1,0,-1
119 690 m 1,15,-1
 388 690 l 2,16,17
 426 690 426 690 458.5 673.5 c 128,-1,18
 491 657 491 657 515.5 630 c 128,-1,19
 540 603 540 603 554 568 c 128,-1,20
 568 533 568 533 568 495 c 0,21,22
 568 459 568 459 556 424 c 128,-1,23
 544 389 544 389 522 361 c 128,-1,24
 500 333 500 333 468 316 c 128,-1,25
 436 299 436 299 395 299 c 2,26,-1
 119 299 l 1,27,-1
 119 690 l 1,15,-1
EndSplineSet
EndChar

StartChar: Q
Encoding: 81 81 52
Width: 757
GlyphClass: 1
Flags: W
LayerCount: 2
Fore
SplineSet
379 -5 m 0,0,1
 449 -5 449 -5 509 24.5 c 128,-1,2
 569 54 569 54 613.5 103.5 c 128,-1,3
 658 153 658 153 683.5 218 c 128,-1,4
 709 283 709 283 709 355 c 0,5,6
 709 421 709 421 685 485.5 c 128,-1,7
 661 550 661 550 617.5 601 c 128,-1,8
 574 652 574 652 513.5 683.5 c 128,-1,9
 453 715 453 715 379 715 c 0,10,11
 309 715 309 715 248.5 685.5 c 128,-1,12
 188 656 188 656 143.5 606 c 128,-1,13
 99 556 99 556 73.5 491 c 128,-1,14
 48 426 48 426 48 355 c 0,15,16
 48 287 48 287 72 222 c 128,-1,17
 96 157 96 157 140 107 c 128,-1,18
 184 57 184 57 245 26 c 128,-1,19
 306 -5 306 -5 379 -5 c 0,0,1
379 15 m 0,20,21
 312 15 312 15 254.5 43 c 128,-1,22
 197 71 197 71 156 118.5 c 128,-1,23
 115 166 115 166 91.5 227.5 c 128,-1,24
 68 289 68 289 68 355 c 0,25,26
 68 418 68 418 90.5 479 c 128,-1,27
 113 540 113 540 154 588 c 128,-1,28
 195 636 195 636 252.5 665.5 c 128,-1,29
 310 695 310 695 379 695 c 0,30,31
 445 695 445 695 501.5 667 c 128,-1,32
 558 639 558 639 600 591.5 c 128,-1,33
 642 544 642 544 665.5 482.5 c 128,-1,34
 689 421 689 421 689 355 c 0,35,36
 689 292 689 292 666.5 231 c 128,-1,37
 644 170 644 170 603.5 122 c 128,-1,38
 563 74 563 74 505.5 44.5 c 128,-1,39
 448 15 448 15 379 15 c 0,20,21
697 -7 m 1,40,-1
 711 7 l 1,41,-1
 433 285 l 1,42,-1
 419 271 l 1,43,-1
 697 -7 l 1,40,-1
EndSplineSet
EndChar

StartChar: R
Encoding: 82 82 53
Width: 642
GlyphClass: 1
Flags: W
LayerCount: 2
Fore
SplineSet
119 0 m 1,0,-1
 119 279 l 1,1,-1
 383 279 l 1,2,-1
 563 0 l 1,3,-1
 587 0 l 1,4,-1
 407 279 l 1,5,6
 447 282 447 282 480.5 300.5 c 128,-1,7
 514 319 514 319 538 348.5 c 128,-1,8
 562 378 562 378 575 416 c 128,-1,9
 588 454 588 454 588 495 c 0,10,11
 588 535 588 535 573 573.5 c 128,-1,12
 558 612 558 612 531.5 642.5 c 128,-1,13
 505 673 505 673 468.5 691.5 c 128,-1,14
 432 710 432 710 388 710 c 2,15,-1
 99 710 l 1,16,-1
 99 0 l 1,17,-1
 119 0 l 1,0,-1
119 690 m 1,18,-1
 388 690 l 2,19,20
 426 690 426 690 458.5 673.5 c 128,-1,21
 491 657 491 657 515.5 630 c 128,-1,22
 540 603 540 603 554 568 c 128,-1,23
 568 533 568 533 568 495 c 0,24,25
 568 458 568 458 556 423 c 128,-1,26
 544 388 544 388 521.5 360.5 c 128,-1,27
 499 333 499 333 467 316 c 128,-1,28
 435 299 435 299 395 299 c 2,29,-1
 119 299 l 1,30,-1
 119 690 l 1,18,-1
EndSplineSet
EndChar

StartChar: S
Encoding: 83 83 54
Width: 602
GlyphClass: 1
Flags: W
LayerCount: 2
Fore
SplineSet
522 630 m 1,0,1
 501 653 501 653 478 669 c 128,-1,2
 455 685 455 685 429 695.5 c 128,-1,3
 403 706 403 706 374 710.5 c 128,-1,4
 345 715 345 715 311 715 c 0,5,6
 254 715 254 715 208.5 702.5 c 128,-1,7
 163 690 163 690 130.5 665.5 c 128,-1,8
 98 641 98 641 80.5 605.5 c 128,-1,9
 63 570 63 570 63 524 c 0,10,11
 63 480 63 480 79 451 c 128,-1,12
 95 422 95 422 126.5 402.5 c 128,-1,13
 158 383 158 383 203.5 370 c 128,-1,14
 249 357 249 357 308 346 c 0,15,16
 370 334 370 334 414.5 320 c 128,-1,17
 459 306 459 306 488 286 c 128,-1,18
 517 266 517 266 531 238.5 c 128,-1,19
 545 211 545 211 545 171 c 0,20,21
 545 91 545 91 483.5 51.5 c 128,-1,22
 422 12 422 12 316 12 c 0,23,24
 276 12 276 12 240 18 c 128,-1,25
 204 24 204 24 171.5 37 c 128,-1,26
 139 50 139 50 110 70 c 128,-1,27
 81 90 81 90 54 118 c 1,28,-1
 39 105 l 1,29,30
 68 77 68 77 98.5 56 c 128,-1,31
 129 35 129 35 163 21.5 c 128,-1,32
 197 8 197 8 234.5 1.5 c 128,-1,33
 272 -5 272 -5 315 -5 c 0,34,35
 373 -5 373 -5 419.5 7 c 128,-1,36
 466 19 466 19 498 41.5 c 128,-1,37
 530 64 530 64 547.5 97.5 c 128,-1,38
 565 131 565 131 565 174 c 0,39,40
 565 221 565 221 547 252 c 128,-1,41
 529 283 529 283 495.5 304 c 128,-1,42
 462 325 462 325 414 339 c 128,-1,43
 366 353 366 353 307 365 c 256,44,45
 248 377 248 377 205.5 389.5 c 128,-1,46
 163 402 163 402 136 419.5 c 128,-1,47
 109 437 109 437 96 462.5 c 128,-1,48
 83 488 83 488 83 526 c 0,49,50
 83 603 83 603 137.5 649.5 c 128,-1,51
 192 696 192 696 313 696 c 0,52,53
 345 696 345 696 371.5 692 c 128,-1,54
 398 688 398 688 421.5 679 c 128,-1,55
 445 670 445 670 466.5 654.5 c 128,-1,56
 488 639 488 639 509 616 c 1,57,-1
 522 630 l 1,0,1
EndSplineSet
EndChar

StartChar: T
Encoding: 84 84 55
Width: 600
GlyphClass: 1
Flags: W
LayerCount: 2
Fore
SplineSet
582 710 m 1,0,-1
 18 710 l 1,1,-1
 18 690 l 1,2,-1
 290 690 l 1,3,-1
 290 0 l 1,4,-1
 310 0 l 1,5,-1
 310 690 l 1,6,-1
 582 690 l 1,7,-1
 582 710 l 1,0,-1
EndSplineSet
EndChar

StartChar: U
Encoding: 85 85 56
Width: 756
GlyphClass: 1
Flags: W
LayerCount: 2
Fore
SplineSet
379 -5 m 0,0,1
 461 -5 461 -5 516.5 25 c 128,-1,2
 572 55 572 55 606 104.5 c 128,-1,3
 640 154 640 154 654.5 219.5 c 128,-1,4
 669 285 669 285 669 355 c 2,5,-1
 669 710 l 1,6,-1
 649 710 l 1,7,-1
 649 355 l 2,8,9
 649 293 649 293 637 232 c 128,-1,10
 625 171 625 171 594 123 c 128,-1,11
 563 75 563 75 510.5 45 c 128,-1,12
 458 15 458 15 378 15 c 0,13,14
 299 15 299 15 247 44 c 128,-1,15
 195 73 195 73 164 121 c 128,-1,16
 133 169 133 169 120.5 230 c 128,-1,17
 108 291 108 291 108 355 c 2,18,-1
 108 710 l 1,19,-1
 88 710 l 1,20,-1
 88 355 l 2,21,22
 88 288 88 288 102 223.5 c 128,-1,23
 116 159 116 159 149.5 108 c 128,-1,24
 183 57 183 57 239 26 c 128,-1,25
 295 -5 295 -5 379 -5 c 0,0,1
EndSplineSet
EndChar

StartChar: V
Encoding: 86 86 57
Width: 678
GlyphClass: 1
Flags: W
LayerCount: 2
Fore
SplineSet
19 710 m 1,0,-1
 328 0 l 1,1,-1
 350 0 l 1,2,-1
 659 710 l 1,3,-1
 637 710 l 1,4,-1
 339 25 l 1,5,-1
 40 710 l 1,6,-1
 19 710 l 1,0,-1
EndSplineSet
EndChar

StartChar: W
Encoding: 87 87 58
Width: 1027
GlyphClass: 1
Flags: W
LayerCount: 2
Fore
SplineSet
258 0 m 1,0,-1
 280 0 l 1,1,-1
 509 678 l 1,2,-1
 747 0 l 1,3,-1
 769 0 l 1,4,-1
 998 710 l 1,5,-1
 976 710 l 1,6,-1
 758 25 l 1,7,-1
 519 710 l 1,8,-1
 497 710 l 1,9,-1
 269 25 l 1,10,-1
 50 710 l 1,11,-1
 29 710 l 1,12,-1
 258 0 l 1,0,-1
EndSplineSet
Substitution2: "'ss09' Style Set 9 lookup 37 subtable" W.ss09
Substitution2: "'aalt' Access All Alternates lookup 0 subtable" W.ss09
EndChar

StartChar: X
Encoding: 88 88 59
Width: 621
GlyphClass: 1
Flags: W
LayerCount: 2
Fore
SplineSet
11 710 m 1,0,-1
 298 350 l 1,1,-1
 19 0 l 1,2,-1
 45 0 l 1,3,-1
 311 334 l 1,4,-1
 577 0 l 1,5,-1
 602 0 l 1,6,-1
 323 350 l 1,7,-1
 610 710 l 1,8,-1
 585 710 l 1,9,-1
 311 366 l 1,10,-1
 37 710 l 1,11,-1
 11 710 l 1,0,-1
EndSplineSet
EndChar

StartChar: Y
Encoding: 89 89 60
Width: 641
GlyphClass: 1
Flags: W
LayerCount: 2
Fore
SplineSet
23 710 m 1,0,-1
 310 277 l 1,1,-1
 310 0 l 1,2,-1
 330 0 l 1,3,-1
 330 275 l 1,4,-1
 618 710 l 1,5,-1
 595 710 l 1,6,-1
 320 298 l 1,7,-1
 46 710 l 1,8,-1
 23 710 l 1,0,-1
EndSplineSet
EndChar

StartChar: Z
Encoding: 90 90 61
Width: 624
GlyphClass: 1
Flags: W
LayerCount: 2
Fore
SplineSet
28 0 m 1,0,-1
 591 0 l 1,1,-1
 591 20 l 1,2,-1
 53 20 l 1,3,-1
 595 690 l 1,4,-1
 595 710 l 1,5,-1
 33 710 l 1,6,-1
 33 690 l 1,7,-1
 570 690 l 1,8,-1
 28 20 l 1,9,-1
 28 0 l 1,0,-1
EndSplineSet
EndChar

StartChar: bracketleft
Encoding: 91 91 62
Width: 228
GlyphClass: 1
Flags: W
LayerCount: 2
Fore
SplineSet
167 -40 m 1,0,-1
 167 -20 l 1,1,-1
 117 -20 l 1,2,-1
 117 720 l 1,3,-1
 167 720 l 1,4,-1
 167 740 l 1,5,-1
 97 740 l 1,6,-1
 97 -40 l 1,7,-1
 167 -40 l 1,0,-1
EndSplineSet
EndChar

StartChar: backslash
Encoding: 92 92 63
Width: 514
GlyphClass: 1
Flags: W
LayerCount: 2
Fore
SplineSet
27 710 m 1,0,-1
 463 0 l 1,1,-1
 488 0 l 1,2,-1
 53 710 l 1,3,-1
 27 710 l 1,0,-1
EndSplineSet
EndChar

StartChar: bracketright
Encoding: 93 93 64
Width: 228
GlyphClass: 1
Flags: W
LayerCount: 2
Fore
SplineSet
131 -40 m 1,0,-1
 131 740 l 1,1,-1
 61 740 l 1,2,-1
 61 720 l 1,3,-1
 111 720 l 1,4,-1
 111 -20 l 1,5,-1
 61 -20 l 1,6,-1
 61 -40 l 1,7,-1
 131 -40 l 1,0,-1
EndSplineSet
EndChar

StartChar: asciicircum
Encoding: 94 94 65
Width: 505
GlyphClass: 1
Flags: W
LayerCount: 2
Fore
SplineSet
67 303 m 1,0,-1
 253 681 l 1,1,-1
 436 303 l 1,2,-1
 459 303 l 1,3,-1
 262 710 l 1,4,-1
 244 710 l 1,5,-1
 46 303 l 1,6,-1
 67 303 l 1,0,-1
EndSplineSet
EndChar

StartChar: underscore
Encoding: 95 95 66
Width: 531
GlyphClass: 1
Flags: W
LayerCount: 2
Fore
SplineSet
462 -20 m 1,0,-1
 462 0 l 1,1,-1
 69 0 l 1,2,-1
 69 -20 l 1,3,-1
 462 -20 l 1,0,-1
EndSplineSet
EndChar

StartChar: a
Encoding: 97 97 68
Width: 526
GlyphClass: 1
Flags: W
LayerCount: 2
Fore
SplineSet
448 0 m 1,0,-1
 448 327 l 2,1,2
 448 369 448 369 436 405.5 c 128,-1,3
 424 442 424 442 400 469 c 128,-1,4
 376 496 376 496 340.5 511.5 c 128,-1,5
 305 527 305 527 258 527 c 0,6,7
 210 527 210 527 164.5 507 c 128,-1,8
 119 487 119 487 78 459 c 1,9,-1
 90 443 l 1,10,11
 134 474 134 474 177 490.5 c 128,-1,12
 220 507 220 507 258 507 c 0,13,14
 297 507 297 507 328 494 c 128,-1,15
 359 481 359 481 381.5 457 c 128,-1,16
 404 433 404 433 416 400 c 128,-1,17
 428 367 428 367 428 327 c 2,18,-1
 428 268 l 1,19,20
 408 276 408 276 363 286.5 c 128,-1,21
 318 297 318 297 254 297 c 0,22,23
 220 297 220 297 182.5 289.5 c 128,-1,24
 145 282 145 282 113.5 265 c 128,-1,25
 82 248 82 248 61 219.5 c 128,-1,26
 40 191 40 191 40 149 c 0,27,28
 40 116 40 116 53 87 c 128,-1,29
 66 58 66 58 88.5 36.5 c 128,-1,30
 111 15 111 15 142 2.5 c 128,-1,31
 173 -10 173 -10 208 -10 c 0,32,33
 269 -10 269 -10 328.5 13.5 c 128,-1,34
 388 37 388 37 428 88 c 1,35,-1
 428 0 l 1,36,-1
 448 0 l 1,0,-1
413 102 m 0,37,38
 398 78 398 78 374.5 60.5 c 128,-1,39
 351 43 351 43 323.5 32 c 128,-1,40
 296 21 296 21 266.5 15.5 c 128,-1,41
 237 10 237 10 208 10 c 256,42,43
 179 10 179 10 152.5 20 c 128,-1,44
 126 30 126 30 105.5 48 c 128,-1,45
 85 66 85 66 72.5 92 c 128,-1,46
 60 118 60 118 60 149 c 0,47,48
 60 185 60 185 78.5 209.5 c 128,-1,49
 97 234 97 234 125.5 249 c 128,-1,50
 154 264 154 264 188 270.5 c 128,-1,51
 222 277 222 277 254 277 c 0,52,53
 298 277 298 277 341.5 270 c 128,-1,54
 385 263 385 263 428 246 c 1,55,-1
 428 143 l 2,56,57
 428 134 428 134 424.5 123.5 c 128,-1,58
 421 113 421 113 413 102 c 0,37,38
EndSplineSet
Substitution2: "Single Substitution lookup 45 subtable" ordfeminine
Substitution2: "'ss02' Style Set 2 lookup 30 subtable" a.ss02
Substitution2: "'ss01' Style Set 1 lookup 29 subtable" a.ss01
Substitution2: "'salt' Stylistic Alternatives lookup 28 subtable" a.ss01
AlternateSubs2: "'aalt' Access All Alternates lookup 1 subtable" ordfeminine a.ss01 a.ss02
EndChar

StartChar: b
Encoding: 98 98 69
Width: 603
GlyphClass: 1
Flags: W
LayerCount: 2
Fore
SplineSet
307 -10 m 0,0,1
 360 -10 360 -10 405.5 12 c 128,-1,2
 451 34 451 34 485 71 c 128,-1,3
 519 108 519 108 538 156.5 c 128,-1,4
 557 205 557 205 557 258 c 0,5,6
 557 306 557 306 540.5 354 c 128,-1,7
 524 402 524 402 493.5 440.5 c 128,-1,8
 463 479 463 479 418 503 c 128,-1,9
 373 527 373 527 316 527 c 0,10,11
 247 527 247 527 195.5 491 c 128,-1,12
 144 455 144 455 104 398 c 1,13,-1
 104 730 l 1,14,-1
 84 730 l 1,15,-1
 84 0 l 1,16,-1
 104 0 l 1,17,-1
 104 108 l 1,18,19
 119 83 119 83 141.5 61.5 c 128,-1,20
 164 40 164 40 190.5 24 c 128,-1,21
 217 8 217 8 246.5 -1 c 128,-1,22
 276 -10 276 -10 307 -10 c 0,0,1
307 10 m 0,23,24
 277 10 277 10 242 22.5 c 128,-1,25
 207 35 207 35 177 56.5 c 128,-1,26
 147 78 147 78 126.5 106.5 c 128,-1,27
 106 135 106 135 104 167 c 2,28,-1
 104 356 l 1,29,30
 119 386 119 386 140 413 c 128,-1,31
 161 440 161 440 187.5 461 c 128,-1,32
 214 482 214 482 246.5 494.5 c 128,-1,33
 279 507 279 507 316 507 c 0,34,35
 365 507 365 507 405.5 486 c 128,-1,36
 446 465 446 465 475.5 430.5 c 128,-1,37
 505 396 505 396 521 351 c 128,-1,38
 537 306 537 306 537 258 c 0,39,40
 537 212 537 212 520 167.5 c 128,-1,41
 503 123 503 123 472.5 88 c 128,-1,42
 442 53 442 53 399.5 31.5 c 128,-1,43
 357 10 357 10 307 10 c 0,23,24
EndSplineSet
EndChar

StartChar: c
Encoding: 99 99 70
Width: 538
GlyphClass: 1
Flags: W
LayerCount: 2
Fore
SplineSet
297 -10 m 0,0,1
 331 -10 331 -10 363.5 -0.5 c 128,-1,2
 396 9 396 9 423 25.5 c 128,-1,3
 450 42 450 42 469.5 64.5 c 128,-1,4
 489 87 489 87 498 113 c 1,5,-1
 478 119 l 1,6,7
 472 98 472 98 454 78 c 128,-1,8
 436 58 436 58 410.5 43 c 128,-1,9
 385 28 385 28 354.5 19 c 128,-1,10
 324 10 324 10 294 10 c 0,11,12
 248 10 248 10 206.5 30 c 128,-1,13
 165 50 165 50 133.5 84.5 c 128,-1,14
 102 119 102 119 84 165 c 128,-1,15
 66 211 66 211 66 262 c 256,16,17
 66 313 66 313 83.5 358 c 128,-1,18
 101 403 101 403 132 436 c 128,-1,19
 163 469 163 469 204 488 c 128,-1,20
 245 507 245 507 293 507 c 0,21,22
 350 507 350 507 397.5 479.5 c 128,-1,23
 445 452 445 452 471 404 c 1,24,-1
 491 411 l 1,25,26
 465 466 465 466 413.5 496.5 c 128,-1,27
 362 527 362 527 296 527 c 0,28,29
 243 527 243 527 197.5 506.5 c 128,-1,30
 152 486 152 486 118 450.5 c 128,-1,31
 84 415 84 415 65 366.5 c 128,-1,32
 46 318 46 318 46 262 c 256,33,34
 46 206 46 206 66 156.5 c 128,-1,35
 86 107 86 107 120 70 c 128,-1,36
 154 33 154 33 200 11.5 c 128,-1,37
 246 -10 246 -10 297 -10 c 0,0,1
EndSplineSet
EndChar

StartChar: d
Encoding: 100 100 71
Width: 603
GlyphClass: 1
Flags: W
LayerCount: 2
Fore
SplineSet
519 0 m 1,0,-1
 519 730 l 1,1,-1
 499 730 l 1,2,-1
 499 398 l 1,3,4
 481 424 481 424 459 447.5 c 128,-1,5
 437 471 437 471 410.5 488.5 c 128,-1,6
 384 506 384 506 353.5 516.5 c 128,-1,7
 323 527 323 527 287 527 c 0,8,9
 235 527 235 527 191 505 c 128,-1,10
 147 483 147 483 114.5 446 c 128,-1,11
 82 409 82 409 64 360.5 c 128,-1,12
 46 312 46 312 46 258 c 0,13,14
 46 208 46 208 64.5 160 c 128,-1,15
 83 112 83 112 116.5 74 c 128,-1,16
 150 36 150 36 196 13 c 128,-1,17
 242 -10 242 -10 296 -10 c 0,18,19
 356 -10 356 -10 411 23 c 128,-1,20
 466 56 466 56 499 108 c 1,21,-1
 499 0 l 1,22,-1
 519 0 l 1,0,-1
499 169 m 2,23,24
 498 137 498 137 477.5 108 c 128,-1,25
 457 79 457 79 427 57.5 c 128,-1,26
 397 36 397 36 361.5 23 c 128,-1,27
 326 10 326 10 296 10 c 0,28,29
 248 10 248 10 206 30.5 c 128,-1,30
 164 51 164 51 133 85.5 c 128,-1,31
 102 120 102 120 84 164.5 c 128,-1,32
 66 209 66 209 66 258 c 0,33,34
 66 305 66 305 81.5 349.5 c 128,-1,35
 97 394 97 394 126 429 c 128,-1,36
 155 464 155 464 195.5 485.5 c 128,-1,37
 236 507 236 507 287 507 c 0,38,39
 319 507 319 507 352 495 c 128,-1,40
 385 483 385 483 414 462.5 c 128,-1,41
 443 442 443 442 466 414.5 c 128,-1,42
 489 387 489 387 499 356 c 1,43,-1
 499 169 l 2,23,24
EndSplineSet
Substitution2: "'ss03' Style Set 3 lookup 31 subtable" d.ss03
Substitution2: "'aalt' Access All Alternates lookup 0 subtable" d.ss03
EndChar

StartChar: e
Encoding: 101 101 72
Width: 576
GlyphClass: 1
Flags: W
LayerCount: 2
Fore
SplineSet
296 -10 m 0,0,1
 330 -10 330 -10 362.5 -0.5 c 128,-1,2
 395 9 395 9 422.5 25.5 c 128,-1,3
 450 42 450 42 471 64.5 c 128,-1,4
 492 87 492 87 502 114 c 1,5,-1
 483 119 l 1,6,7
 472 95 472 95 453 75 c 128,-1,8
 434 55 434 55 409 40.5 c 128,-1,9
 384 26 384 26 355.5 18 c 128,-1,10
 327 10 327 10 297 10 c 0,11,12
 252 10 252 10 211.5 28.5 c 128,-1,13
 171 47 171 47 140 79 c 128,-1,14
 109 111 109 111 89.5 154.5 c 128,-1,15
 70 198 70 198 66 248 c 1,16,-1
 541 248 l 1,17,18
 541 251 541 251 541 253.5 c 128,-1,19
 541 256 541 256 541 259 c 0,20,21
 541 315 541 315 521 364 c 128,-1,22
 501 413 501 413 467.5 449 c 128,-1,23
 434 485 434 485 388.5 506 c 128,-1,24
 343 527 343 527 291 527 c 0,25,26
 240 527 240 527 195.5 506.5 c 128,-1,27
 151 486 151 486 117.5 450 c 128,-1,28
 84 414 84 414 65 366 c 128,-1,29
 46 318 46 318 46 263 c 0,30,31
 46 207 46 207 66 157.5 c 128,-1,32
 86 108 86 108 120 70.5 c 128,-1,33
 154 33 154 33 199.5 11.5 c 128,-1,34
 245 -10 245 -10 296 -10 c 0,0,1
66 268 m 1,35,36
 69 319 69 319 87 363 c 128,-1,37
 105 407 105 407 135.5 439 c 128,-1,38
 166 471 166 471 206 489 c 128,-1,39
 246 507 246 507 292 507 c 256,40,41
 338 507 338 507 378 489 c 128,-1,42
 418 471 418 471 448.5 439.5 c 128,-1,43
 479 408 479 408 498 364 c 128,-1,44
 517 320 517 320 520 268 c 1,45,-1
 66 268 l 1,35,36
EndSplineSet
EndChar

StartChar: f
Encoding: 102 102 73
Width: 299
GlyphClass: 1
Flags: W
LayerCount: 2
Fore
SplineSet
123 0 m 1,0,-1
 123 499 l 1,1,-1
 278 499 l 1,2,-1
 278 519 l 1,3,-1
 123 519 l 1,4,-1
 123 540 l 2,5,6
 123 628 123 628 153.5 674.5 c 128,-1,7
 184 721 184 721 241 721 c 0,8,9
 264 721 264 721 285.5 713.5 c 128,-1,10
 307 706 307 706 319 694 c 1,11,-1
 335 706 l 1,12,13
 321 721 321 721 295 730.5 c 128,-1,14
 269 740 269 740 240 740 c 0,15,16
 208 740 208 740 182.5 726.5 c 128,-1,17
 157 713 157 713 139.5 687.5 c 128,-1,18
 122 662 122 662 112.5 624.5 c 128,-1,19
 103 587 103 587 103 540 c 2,20,-1
 103 519 l 1,21,-1
 28 519 l 1,22,-1
 28 499 l 1,23,-1
 103 499 l 1,24,-1
 103 0 l 1,25,-1
 123 0 l 1,0,-1
EndSplineSet
EndChar

StartChar: g
Encoding: 103 103 74
Width: 603
GlyphClass: 1
Flags: W
LayerCount: 2
Fore
SplineSet
296 -10 m 0,0,1
 356 -10 356 -10 411 23 c 128,-1,2
 466 56 466 56 499 108 c 1,3,-1
 499 -22 l 2,4,5
 499 -67 499 -67 482.5 -100.5 c 128,-1,6
 466 -134 466 -134 437.5 -157 c 128,-1,7
 409 -180 409 -180 371 -191.5 c 128,-1,8
 333 -203 333 -203 290 -203 c 0,9,10
 227 -203 227 -203 171.5 -177.5 c 128,-1,11
 116 -152 116 -152 84 -93 c 1,12,-1
 65 -99 l 1,13,14
 94 -155 94 -155 146 -189 c 128,-1,15
 198 -223 198 -223 290 -223 c 0,16,17
 334 -223 334 -223 375.5 -211 c 128,-1,18
 417 -199 417 -199 449 -174 c 128,-1,19
 481 -149 481 -149 500 -111 c 128,-1,20
 519 -73 519 -73 519 -22 c 2,21,-1
 519 519 l 1,22,-1
 499 519 l 1,23,-1
 499 398 l 1,24,25
 480 425 480 425 458 448.5 c 128,-1,26
 436 472 436 472 409.5 489.5 c 128,-1,27
 383 507 383 507 352.5 517 c 128,-1,28
 322 527 322 527 287 527 c 0,29,30
 234 527 234 527 189.5 504.5 c 128,-1,31
 145 482 145 482 113 444.5 c 128,-1,32
 81 407 81 407 63.5 358.5 c 128,-1,33
 46 310 46 310 46 258 c 0,34,35
 46 208 46 208 64.5 160 c 128,-1,36
 83 112 83 112 116.5 74 c 128,-1,37
 150 36 150 36 196 13 c 128,-1,38
 242 -10 242 -10 296 -10 c 0,0,1
296 10 m 0,39,40
 248 10 248 10 206 30.5 c 128,-1,41
 164 51 164 51 133 85.5 c 128,-1,42
 102 120 102 120 84 164.5 c 128,-1,43
 66 209 66 209 66 258 c 0,44,45
 66 302 66 302 81 346.5 c 128,-1,46
 96 391 96 391 124 426.5 c 128,-1,47
 152 462 152 462 193.5 484.5 c 128,-1,48
 235 507 235 507 287 507 c 0,49,50
 320 507 320 507 353 495.5 c 128,-1,51
 386 484 386 484 414 464 c 128,-1,52
 442 444 442 444 464.5 416.5 c 128,-1,53
 487 389 487 389 499 356 c 1,54,-1
 499 169 l 2,55,56
 497 141 497 141 478.5 113 c 128,-1,57
 460 85 460 85 432 62 c 128,-1,58
 404 39 404 39 368.5 24.5 c 128,-1,59
 333 10 333 10 296 10 c 0,39,40
EndSplineSet
EndChar

StartChar: h
Encoding: 104 104 75
Width: 565
GlyphClass: 1
Flags: W
LayerCount: 2
Fore
SplineSet
487 289 m 2,0,1
 487 348 487 348 476.5 392.5 c 128,-1,2
 466 437 466 437 445 467 c 128,-1,3
 424 497 424 497 393.5 512 c 128,-1,4
 363 527 363 527 322 527 c 0,5,6
 255 527 255 527 195.5 488.5 c 128,-1,7
 136 450 136 450 104 385 c 1,8,-1
 104 730 l 1,9,-1
 84 730 l 1,10,-1
 84 0 l 1,11,-1
 104 0 l 1,12,-1
 104 328 l 1,13,14
 114 366 114 366 136 398.5 c 128,-1,15
 158 431 158 431 187.5 455 c 128,-1,16
 217 479 217 479 252 493 c 128,-1,17
 287 507 287 507 323 507 c 0,18,19
 395 507 395 507 431 452.5 c 128,-1,20
 467 398 467 398 467 289 c 2,21,-1
 467 0 l 1,22,-1
 487 0 l 1,23,-1
 487 289 l 2,0,1
EndSplineSet
EndChar

StartChar: k
Encoding: 107 107 78
Width: 508
GlyphClass: 1
Flags: W
LayerCount: 2
Fore
SplineSet
490 0 m 1,0,-1
 260 311 l 1,1,-1
 485 517 l 1,2,-1
 458 517 l 1,3,-1
 104 196 l 1,4,-1
 104 730 l 1,5,-1
 84 730 l 1,6,-1
 84 0 l 1,7,-1
 104 0 l 1,8,-1
 104 169 l 1,9,-1
 245 297 l 1,10,-1
 466 0 l 1,11,-1
 490 0 l 1,0,-1
EndSplineSet
EndChar

StartChar: l
Encoding: 108 108 79
Width: 238
GlyphClass: 1
Flags: W
LayerCount: 2
Fore
SplineSet
90 77 m 2,0,1
 90 40 90 40 112 17.5 c 128,-1,2
 134 -5 134 -5 169 -5 c 0,3,4
 183 -5 183 -5 203.5 -1.5 c 128,-1,5
 224 2 224 2 238 7 c 1,6,-1
 231 23 l 1,7,8
 218 19 218 19 202.5 16.5 c 128,-1,9
 187 14 187 14 176 14 c 0,10,11
 161 14 161 14 149 18.5 c 128,-1,12
 137 23 137 23 128 31 c 128,-1,13
 119 39 119 39 114.5 50.5 c 128,-1,14
 110 62 110 62 110 77 c 2,15,-1
 110 730 l 1,16,-1
 90 730 l 1,17,-1
 90 77 l 2,0,1
EndSplineSet
Substitution2: "'ss05' Style Set 5 lookup 33 subtable" l.ss05
Substitution2: "'aalt' Access All Alternates lookup 0 subtable" l.ss05
EndChar

StartChar: m
Encoding: 109 109 80
Width: 908
GlyphClass: 1
Flags: W
LayerCount: 2
Fore
SplineSet
830 289 m 2,0,1
 830 349 830 349 820.5 394 c 128,-1,2
 811 439 811 439 791 468.5 c 128,-1,3
 771 498 771 498 741.5 512.5 c 128,-1,4
 712 527 712 527 671 527 c 0,5,6
 605 527 605 527 553.5 489.5 c 128,-1,7
 502 452 502 452 463 376 c 1,8,9
 456 445 456 445 413 486 c 128,-1,10
 370 527 370 527 305 527 c 0,11,12
 243 527 243 527 190.5 490 c 128,-1,13
 138 453 138 453 104 385 c 1,14,-1
 104 519 l 1,15,-1
 84 519 l 1,16,-1
 84 0 l 1,17,-1
 104 0 l 1,18,-1
 104 328 l 1,19,20
 115 368 115 368 135 401 c 128,-1,21
 155 434 155 434 181.5 457.5 c 128,-1,22
 208 481 208 481 240.5 494 c 128,-1,23
 273 507 273 507 309 507 c 0,24,25
 381 507 381 507 414 454.5 c 128,-1,26
 447 402 447 402 447 289 c 2,27,-1
 447 0 l 1,28,-1
 467 0 l 1,29,-1
 467 327 l 1,30,31
 478 366 478 366 497 399 c 128,-1,32
 516 432 516 432 542.5 456 c 128,-1,33
 569 480 569 480 601.5 493.5 c 128,-1,34
 634 507 634 507 671 507 c 0,35,36
 743 507 743 507 776.5 454 c 128,-1,37
 810 401 810 401 810 289 c 2,38,-1
 810 0 l 1,39,-1
 830 0 l 1,40,-1
 830 289 l 2,0,1
EndSplineSet
EndChar

StartChar: n
Encoding: 110 110 81
Width: 565
GlyphClass: 1
Flags: W
LayerCount: 2
Fore
SplineSet
487 289 m 2,0,1
 487 350 487 350 478 395 c 128,-1,2
 469 440 469 440 450 469 c 128,-1,3
 431 498 431 498 402 512.5 c 128,-1,4
 373 527 373 527 333 527 c 0,5,6
 298 527 298 527 264 516.5 c 128,-1,7
 230 506 230 506 200 487.5 c 128,-1,8
 170 469 170 469 145 443 c 128,-1,9
 120 417 120 417 104 385 c 1,10,-1
 104 519 l 1,11,-1
 84 519 l 1,12,-1
 84 0 l 1,13,-1
 104 0 l 1,14,-1
 104 328 l 1,15,16
 115 366 115 366 138 399 c 128,-1,17
 161 432 161 432 192 456 c 128,-1,18
 223 480 223 480 260 493.5 c 128,-1,19
 297 507 297 507 334 507 c 0,20,21
 404 507 404 507 435.5 455 c 128,-1,22
 467 403 467 403 467 289 c 2,23,-1
 467 0 l 1,24,-1
 487 0 l 1,25,-1
 487 289 l 2,0,1
EndSplineSet
EndChar

StartChar: o
Encoding: 111 111 82
Width: 586
GlyphClass: 1
Flags: W
LayerCount: 2
Fore
SplineSet
293 -10 m 256,0,1
 344 -10 344 -10 389 11.5 c 128,-1,2
 434 33 434 33 467.5 69.5 c 128,-1,3
 501 106 501 106 520.5 155 c 128,-1,4
 540 204 540 204 540 258 c 0,5,6
 540 313 540 313 520.5 362 c 128,-1,7
 501 411 501 411 467 447.5 c 128,-1,8
 433 484 433 484 388 505.5 c 128,-1,9
 343 527 343 527 293 527 c 256,10,11
 243 527 243 527 198 505.5 c 128,-1,12
 153 484 153 484 119.5 447.5 c 128,-1,13
 86 411 86 411 66 362 c 128,-1,14
 46 313 46 313 46 258 c 0,15,16
 46 204 46 204 65.5 155 c 128,-1,17
 85 106 85 106 118.5 69.5 c 128,-1,18
 152 33 152 33 197 11.5 c 128,-1,19
 242 -10 242 -10 293 -10 c 256,0,1
66 256 m 0,20,21
 66 307 66 307 84 352.5 c 128,-1,22
 102 398 102 398 133 432.5 c 128,-1,23
 164 467 164 467 205.5 487 c 128,-1,24
 247 507 247 507 293 507 c 256,25,26
 339 507 339 507 380.5 487 c 128,-1,27
 422 467 422 467 453 433 c 128,-1,28
 484 399 484 399 502 354 c 128,-1,29
 520 309 520 309 520 259 c 0,30,31
 520 208 520 208 502 163 c 128,-1,32
 484 118 484 118 452.5 84 c 128,-1,33
 421 50 421 50 380 30 c 128,-1,34
 339 10 339 10 292 10 c 0,35,36
 246 10 246 10 204.5 29.5 c 128,-1,37
 163 49 163 49 132.5 82.5 c 128,-1,38
 102 116 102 116 84 161 c 128,-1,39
 66 206 66 206 66 256 c 0,20,21
EndSplineSet
Substitution2: "Single Substitution lookup 45 subtable" ordmasculine
Substitution2: "'aalt' Access All Alternates lookup 0 subtable" ordmasculine
EndChar

StartChar: p
Encoding: 112 112 83
Width: 603
GlyphClass: 1
Flags: W
LayerCount: 2
Fore
SplineSet
316 -10 m 0,0,1
 370 -10 370 -10 414.5 12 c 128,-1,2
 459 34 459 34 490.5 71 c 128,-1,3
 522 108 522 108 539.5 156.5 c 128,-1,4
 557 205 557 205 557 258 c 0,5,6
 557 308 557 308 538.5 356 c 128,-1,7
 520 404 520 404 487 442 c 128,-1,8
 454 480 454 480 408 503.5 c 128,-1,9
 362 527 362 527 307 527 c 0,10,11
 247 527 247 527 192 494 c 128,-1,12
 137 461 137 461 104 409 c 1,13,-1
 104 519 l 1,14,-1
 84 519 l 1,15,-1
 84 -213 l 1,16,-1
 104 -213 l 1,17,-1
 104 119 l 1,18,19
 121 93 121 93 143 69.5 c 128,-1,20
 165 46 165 46 192 28.5 c 128,-1,21
 219 11 219 11 250.5 0.5 c 128,-1,22
 282 -10 282 -10 316 -10 c 0,0,1
316 10 m 0,23,24
 282 10 282 10 249.5 22 c 128,-1,25
 217 34 217 34 189.5 54 c 128,-1,26
 162 74 162 74 140 102 c 128,-1,27
 118 130 118 130 104 161 c 1,28,-1
 104 348 l 2,29,30
 106 379 106 379 126.5 408 c 128,-1,31
 147 437 147 437 177 459 c 128,-1,32
 207 481 207 481 242 494 c 128,-1,33
 277 507 277 507 307 507 c 0,34,35
 355 507 355 507 397 486.5 c 128,-1,36
 439 466 439 466 470 431.5 c 128,-1,37
 501 397 501 397 519 352 c 128,-1,38
 537 307 537 307 537 258 c 0,39,40
 537 212 537 212 521.5 167.5 c 128,-1,41
 506 123 506 123 477 88 c 128,-1,42
 448 53 448 53 407.5 31.5 c 128,-1,43
 367 10 367 10 316 10 c 0,23,24
EndSplineSet
EndChar

StartChar: q
Encoding: 113 113 84
Width: 603
GlyphClass: 1
Flags: W
LayerCount: 2
Fore
SplineSet
287 -10 m 0,0,1
 348 -10 348 -10 401.5 23 c 128,-1,2
 455 56 455 56 499 119 c 1,3,-1
 499 -213 l 1,4,-1
 519 -213 l 1,5,-1
 519 519 l 1,6,-1
 499 519 l 1,7,-1
 499 409 l 1,8,9
 484 434 484 434 461.5 455.5 c 128,-1,10
 439 477 439 477 412.5 493 c 128,-1,11
 386 509 386 509 356.5 518 c 128,-1,12
 327 527 327 527 296 527 c 0,13,14
 244 527 244 527 198.5 505 c 128,-1,15
 153 483 153 483 119 445.5 c 128,-1,16
 85 408 85 408 65.5 359.5 c 128,-1,17
 46 311 46 311 46 258 c 0,18,19
 46 207 46 207 63 159 c 128,-1,20
 80 111 80 111 111.5 73.5 c 128,-1,21
 143 36 143 36 187.5 13 c 128,-1,22
 232 -10 232 -10 287 -10 c 0,0,1
287 10 m 0,23,24
 239 10 239 10 198.5 30.5 c 128,-1,25
 158 51 158 51 128.5 85 c 128,-1,26
 99 119 99 119 82.5 164 c 128,-1,27
 66 209 66 209 66 258 c 0,28,29
 66 304 66 304 83 348.5 c 128,-1,30
 100 393 100 393 130.5 428.5 c 128,-1,31
 161 464 161 464 203 485.5 c 128,-1,32
 245 507 245 507 296 507 c 0,33,34
 329 507 329 507 363.5 494 c 128,-1,35
 398 481 398 481 427 459 c 128,-1,36
 456 437 456 437 476 408 c 128,-1,37
 496 379 496 379 499 348 c 2,38,-1
 499 161 l 1,39,40
 484 131 484 131 463 104 c 128,-1,41
 442 77 442 77 415 56 c 128,-1,42
 388 35 388 35 356 22.5 c 128,-1,43
 324 10 324 10 287 10 c 0,23,24
EndSplineSet
Substitution2: "'ss06' Style Set 6 lookup 34 subtable" q.ss06
Substitution2: "'aalt' Access All Alternates lookup 0 subtable" q.ss06
EndChar

StartChar: r
Encoding: 114 114 85
Width: 323
GlyphClass: 1
Flags: W
LayerCount: 2
Fore
SplineSet
306 519 m 1,0,1
 300 519 300 519 291.5 518.5 c 128,-1,2
 283 518 283 518 273 517 c 0,3,4
 222 511 222 511 176.5 475.5 c 128,-1,5
 131 440 131 440 104 385 c 1,6,-1
 104 519 l 1,7,-1
 84 519 l 1,8,-1
 84 0 l 1,9,-1
 104 0 l 1,10,-1
 104 328 l 1,11,12
 125 406 125 406 178.5 451 c 128,-1,13
 232 496 232 496 306 499 c 1,14,-1
 306 519 l 1,0,1
EndSplineSet
EndChar

StartChar: s
Encoding: 115 115 86
Width: 471
GlyphClass: 1
Flags: W
LayerCount: 2
Fore
SplineSet
235 -10 m 0,0,1
 279 -10 279 -10 314.5 0.5 c 128,-1,2
 350 11 350 11 375 30.5 c 128,-1,3
 400 50 400 50 414 77.5 c 128,-1,4
 428 105 428 105 428 139 c 256,5,6
 428 173 428 173 414 194.5 c 128,-1,7
 400 216 400 216 374.5 231 c 128,-1,8
 349 246 349 246 312 256 c 128,-1,9
 275 266 275 266 228 277 c 0,10,11
 192 286 192 286 165.5 294 c 128,-1,12
 139 302 139 302 121.5 313 c 128,-1,13
 104 324 104 324 96 340.5 c 128,-1,14
 88 357 88 357 88 383 c 0,15,16
 88 416 88 416 101 439.5 c 128,-1,17
 114 463 114 463 135.5 478 c 128,-1,18
 157 493 157 493 186 500 c 128,-1,19
 215 507 215 507 247 507 c 0,20,21
 297 507 297 507 340 491 c 128,-1,22
 383 475 383 475 402 444 c 1,23,-1
 420 452 l 1,24,25
 403 484 403 484 358.5 505.5 c 128,-1,26
 314 527 314 527 251 527 c 0,27,28
 214 527 214 527 181 518.5 c 128,-1,29
 148 510 148 510 123 492 c 128,-1,30
 98 474 98 474 83 446.5 c 128,-1,31
 68 419 68 419 68 380 c 0,32,33
 68 349 68 349 78 329.5 c 128,-1,34
 88 310 88 310 108 297 c 128,-1,35
 128 284 128 284 157.5 275.5 c 128,-1,36
 187 267 187 267 227 257 c 0,37,38
 271 247 271 247 304.5 237.5 c 128,-1,39
 338 228 338 228 361 214.5 c 128,-1,40
 384 201 384 201 396 182.5 c 128,-1,41
 408 164 408 164 408 136 c 0,42,43
 408 76 408 76 360 43 c 128,-1,44
 312 10 312 10 235 10 c 0,45,46
 179 10 179 10 135.5 29 c 128,-1,47
 92 48 92 48 52 87 c 1,48,-1
 37 74 l 1,49,50
 76 31 76 31 125.5 10.5 c 128,-1,51
 175 -10 175 -10 235 -10 c 0,0,1
EndSplineSet
EndChar

StartChar: t
Encoding: 116 116 87
Width: 295
GlyphClass: 1
Flags: W
LayerCount: 2
Fore
SplineSet
275 40 m 1,0,1
 274 39 274 39 267.5 35 c 128,-1,2
 261 31 261 31 249.5 26.5 c 128,-1,3
 238 22 238 22 223 18.5 c 128,-1,4
 208 15 208 15 191 15 c 0,5,6
 165 15 165 15 144 30.5 c 128,-1,7
 123 46 123 46 121 75 c 2,8,-1
 121 499 l 1,9,-1
 246 499 l 1,10,-1
 246 519 l 1,11,-1
 121 519 l 1,12,-1
 121 700 l 1,13,-1
 101 700 l 1,14,-1
 101 519 l 1,15,-1
 26 519 l 1,16,-1
 26 499 l 1,17,-1
 101 499 l 1,18,-1
 101 75 l 2,19,20
 101 57 101 57 108.5 42.5 c 128,-1,21
 116 28 116 28 128 17.5 c 128,-1,22
 140 7 140 7 156.5 1 c 128,-1,23
 173 -5 173 -5 191 -5 c 0,24,25
 212 -5 212 -5 229 -0.5 c 128,-1,26
 246 4 246 4 258.5 9 c 128,-1,27
 271 14 271 14 278.5 19 c 128,-1,28
 286 24 286 24 286 24 c 1,29,-1
 275 40 l 1,0,1
EndSplineSet
Substitution2: "'ss07' Style Set 7 lookup 35 subtable" t.ss07
Substitution2: "'aalt' Access All Alternates lookup 0 subtable" t.ss07
EndChar

StartChar: u
Encoding: 117 117 88
Width: 575
GlyphClass: 1
Flags: W
LayerCount: 2
Fore
SplineSet
491 0 m 1,0,-1
 491 519 l 1,1,-1
 471 519 l 1,2,-1
 471 189 l 1,3,4
 461 155 461 155 440 122.5 c 128,-1,5
 419 90 419 90 389.5 65 c 128,-1,6
 360 40 360 40 324 25 c 128,-1,7
 288 10 288 10 248 10 c 0,8,9
 202 10 202 10 172.5 27.5 c 128,-1,10
 143 45 143 45 126.5 75 c 128,-1,11
 110 105 110 105 104 144.5 c 128,-1,12
 98 184 98 184 98 228 c 2,13,-1
 98 519 l 1,14,-1
 78 519 l 1,15,-1
 78 228 l 2,16,17
 78 185 78 185 84 142.5 c 128,-1,18
 90 100 90 100 108.5 66 c 128,-1,19
 127 32 127 32 160.5 11 c 128,-1,20
 194 -10 194 -10 248 -10 c 0,21,22
 282 -10 282 -10 315 0.5 c 128,-1,23
 348 11 348 11 377.5 29.5 c 128,-1,24
 407 48 407 48 431 74.5 c 128,-1,25
 455 101 455 101 471 132 c 1,26,-1
 471 0 l 1,27,-1
 491 0 l 1,0,-1
EndSplineSet
Substitution2: "'ss08' Style Set 8 lookup 36 subtable" u.ss08
Substitution2: "'aalt' Access All Alternates lookup 0 subtable" u.ss08
EndChar

StartChar: v
Encoding: 118 118 89
Width: 520
GlyphClass: 1
Flags: W
LayerCount: 2
Fore
SplineSet
269 0 m 1,0,-1
 495 519 l 1,1,-1
 473 519 l 1,2,-1
 260 29 l 1,3,-1
 47 519 l 1,4,-1
 25 519 l 1,5,-1
 251 0 l 1,6,-1
 269 0 l 1,0,-1
EndSplineSet
EndChar

StartChar: w
Encoding: 119 119 90
Width: 798
GlyphClass: 1
Flags: W
LayerCount: 2
Fore
SplineSet
30 519 m 1,0,-1
 216 0 l 1,1,-1
 234 0 l 1,2,-1
 399 493 l 1,3,-1
 564 0 l 1,4,-1
 582 0 l 1,5,-1
 768 519 l 1,6,-1
 746 519 l 1,7,-1
 573 30 l 1,8,-1
 410 519 l 1,9,-1
 388 519 l 1,10,-1
 225 30 l 1,11,-1
 52 519 l 1,12,-1
 30 519 l 1,0,-1
EndSplineSet
Substitution2: "'ss09' Style Set 9 lookup 37 subtable" w.ss09
Substitution2: "'aalt' Access All Alternates lookup 0 subtable" w.ss09
EndChar

StartChar: x
Encoding: 120 120 91
Width: 482
GlyphClass: 1
Flags: W
LayerCount: 2
Fore
SplineSet
20 519 m 1,0,-1
 228 258 l 1,1,-1
 22 0 l 1,2,-1
 48 0 l 1,3,-1
 233 232 l 1,4,-1
 241 244 l 1,5,-1
 249 232 l 1,6,-1
 434 0 l 1,7,-1
 460 0 l 1,8,-1
 254 258 l 1,9,-1
 462 519 l 1,10,-1
 436 519 l 1,11,-1
 249 285 l 1,12,-1
 241 273 l 1,13,-1
 233 285 l 1,14,-1
 46 519 l 1,15,-1
 20 519 l 1,0,-1
EndSplineSet
EndChar

StartChar: y
Encoding: 121 121 92
Width: 535
GlyphClass: 1
Flags: W
LayerCount: 2
Fore
SplineSet
488 519 m 1,0,-1
 271 25 l 1,1,-1
 42 519 l 1,2,-1
 20 519 l 1,3,-1
 261 0 l 1,4,-1
 173 -213 l 1,5,-1
 191 -213 l 1,6,-1
 510 519 l 1,7,-1
 488 519 l 1,0,-1
EndSplineSet
Substitution2: "'ss10' Style Set 10 lookup 38 subtable" y.ss10
Substitution2: "'aalt' Access All Alternates lookup 0 subtable" y.ss10
EndChar

StartChar: z
Encoding: 122 122 93
Width: 488
GlyphClass: 1
Flags: W
LayerCount: 2
Fore
SplineSet
33 0 m 1,0,-1
 450 0 l 1,1,-1
 450 20 l 1,2,-1
 59 20 l 1,3,-1
 454 499 l 1,4,-1
 454 519 l 1,5,-1
 38 519 l 1,6,-1
 38 499 l 1,7,-1
 429 499 l 1,8,-1
 33 20 l 1,9,-1
 33 0 l 1,0,-1
EndSplineSet
EndChar

StartChar: braceleft
Encoding: 123 123 94
Width: 229
GlyphClass: 1
Flags: W
LayerCount: 2
Fore
SplineSet
173 720 m 1,0,-1
 173 740 l 1,1,-1
 121 740 l 2,2,3
 117 740 117 740 107.5 735 c 128,-1,4
 98 730 98 730 98 710 c 2,5,-1
 98 416 l 2,6,7
 98 413 98 413 97.5 405.5 c 128,-1,8
 97 398 97 398 94 390.5 c 128,-1,9
 91 383 91 383 85 377 c 128,-1,10
 79 371 79 371 68 371 c 1,11,-1
 68 351 l 1,12,13
 86 349 86 349 92 334 c 128,-1,14
 98 319 98 319 98 304 c 2,15,-1
 98 -1 l 2,16,17
 98 -18 98 -18 105.5 -24.5 c 128,-1,18
 113 -31 113 -31 121 -31 c 2,19,-1
 173 -31 l 1,20,-1
 173 -11 l 1,21,-1
 118 -11 l 1,22,-1
 118 304 l 2,23,24
 118 309 118 309 115.5 327.5 c 128,-1,25
 113 346 113 346 97 360 c 1,26,27
 113 374 113 374 115.5 392.5 c 128,-1,28
 118 411 118 411 118 416 c 2,29,-1
 118 720 l 1,30,-1
 173 720 l 1,0,-1
EndSplineSet
EndChar

StartChar: bar
Encoding: 124 124 95
Width: 210
GlyphClass: 1
Flags: W
LayerCount: 2
Fore
SplineSet
115 -130 m 1,0,-1
 115 775 l 1,1,-1
 95 775 l 1,2,-1
 95 -130 l 1,3,-1
 115 -130 l 1,0,-1
EndSplineSet
EndChar

StartChar: braceright
Encoding: 125 125 96
Width: 229
GlyphClass: 1
Flags: W
LayerCount: 2
Fore
SplineSet
111 720 m 1,0,-1
 111 416 l 2,1,2
 111 411 111 411 113.5 392.5 c 128,-1,3
 116 374 116 374 132 360 c 1,4,5
 116 346 116 346 113.5 327.5 c 128,-1,6
 111 309 111 309 111 304 c 2,7,-1
 111 -11 l 1,8,-1
 56 -11 l 1,9,-1
 56 -31 l 1,10,-1
 108 -31 l 2,11,12
 116 -31 116 -31 123.5 -24.5 c 128,-1,13
 131 -18 131 -18 131 -1 c 2,14,-1
 131 304 l 2,15,16
 131 319 131 319 137 334 c 128,-1,17
 143 349 143 349 161 351 c 1,18,-1
 161 371 l 1,19,20
 151 371 151 371 145 377 c 128,-1,21
 139 383 139 383 136 390.5 c 128,-1,22
 133 398 133 398 132 405.5 c 128,-1,23
 131 413 131 413 131 416 c 2,24,-1
 131 710 l 2,25,26
 131 730 131 730 121.5 735 c 128,-1,27
 112 740 112 740 108 740 c 2,28,-1
 56 740 l 1,29,-1
 56 720 l 1,30,-1
 111 720 l 1,0,-1
EndSplineSet
EndChar

StartChar: asciitilde
Encoding: 126 126 97
Width: 462
GlyphClass: 1
Flags: W
LayerCount: 2
Fore
SplineSet
70 251 m 1,0,-1
 90 251 l 1,1,2
 90 252 90 252 94 261.5 c 128,-1,3
 98 271 98 271 106.5 282.5 c 128,-1,4
 115 294 115 294 127 303 c 128,-1,5
 139 312 139 312 154 312 c 0,6,7
 170 312 170 312 186.5 302.5 c 128,-1,8
 203 293 203 293 221 281.5 c 128,-1,9
 239 270 239 270 259 260.5 c 128,-1,10
 279 251 279 251 303 251 c 0,11,12
 329 251 329 251 346 262.5 c 128,-1,13
 363 274 363 274 373.5 287.5 c 128,-1,14
 384 301 384 301 388.5 312.5 c 128,-1,15
 393 324 393 324 393 324 c 1,16,-1
 373 325 l 1,17,18
 373 323 373 323 369 314.5 c 128,-1,19
 365 306 365 306 356 296 c 128,-1,20
 347 286 347 286 334 278.5 c 128,-1,21
 321 271 321 271 303 271 c 0,22,23
 283 271 283 271 265 280.5 c 128,-1,24
 247 290 247 290 229 301.5 c 128,-1,25
 211 313 211 313 192.5 322.5 c 128,-1,26
 174 332 174 332 154 332 c 0,27,28
 132 332 132 332 116 320 c 128,-1,29
 100 308 100 308 89.5 293 c 128,-1,30
 79 278 79 278 74.5 265.5 c 128,-1,31
 70 253 70 253 70 251 c 1,0,-1
EndSplineSet
EndChar

StartChar: exclamdown
Encoding: 161 161 99
Width: 228
GlyphClass: 1
Flags: W
LayerCount: 2
Fore
SplineSet
148 490 m 256,0,1
 148 497 148 497 145.5 503.5 c 128,-1,2
 143 510 143 510 138.5 514.5 c 128,-1,3
 134 519 134 519 127.5 521.5 c 128,-1,4
 121 524 121 524 114 524 c 256,5,6
 107 524 107 524 100.5 521.5 c 128,-1,7
 94 519 94 519 89.5 514.5 c 128,-1,8
 85 510 85 510 82.5 503.5 c 128,-1,9
 80 497 80 497 80 490 c 256,10,11
 80 483 80 483 82.5 477 c 128,-1,12
 85 471 85 471 89.5 466.5 c 128,-1,13
 94 462 94 462 100.5 459.5 c 128,-1,14
 107 457 107 457 114 457 c 256,15,16
 121 457 121 457 127.5 459.5 c 128,-1,17
 134 462 134 462 138.5 466.5 c 128,-1,18
 143 471 143 471 145.5 477 c 128,-1,19
 148 483 148 483 148 490 c 256,0,1
104 319 m 1,20,-1
 104 119 l 1,21,-1
 104 -198 l 1,22,-1
 124 -198 l 1,23,-1
 124 119 l 1,24,-1
 124 319 l 1,25,-1
 104 319 l 1,20,-1
EndSplineSet
EndChar

StartChar: cent
Encoding: 162 162 100
Width: 541
GlyphClass: 1
Flags: W
LayerCount: 2
Fore
SplineSet
296 -120 m 1,0,-1
 296 -10 l 1,1,2
 325 -10 325 -10 356 -2 c 128,-1,3
 387 6 387 6 415.5 21.5 c 128,-1,4
 444 37 444 37 466 60 c 128,-1,5
 488 83 488 83 498 113 c 1,6,-1
 478 119 l 1,7,8
 472 94 472 94 451.5 74 c 128,-1,9
 431 54 431 54 405 40 c 128,-1,10
 379 26 379 26 349.5 18 c 128,-1,11
 320 10 320 10 296 10 c 1,12,-1
 296 507 l 1,13,14
 352 505 352 505 397 480.5 c 128,-1,15
 442 456 442 456 471 404 c 1,16,-1
 490 411 l 1,17,18
 465 461 465 461 419.5 493 c 128,-1,19
 374 525 374 525 296 527 c 1,20,-1
 296 645 l 1,21,-1
 276 645 l 1,22,-1
 276 527 l 1,23,24
 225 524 225 524 182.5 501 c 128,-1,25
 140 478 140 478 110 440.5 c 128,-1,26
 80 403 80 403 63 356 c 128,-1,27
 46 309 46 309 46 258 c 0,28,29
 46 210 46 210 63 164 c 128,-1,30
 80 118 80 118 110.5 81 c 128,-1,31
 141 44 141 44 183 19.5 c 128,-1,32
 225 -5 225 -5 276 -9 c 1,33,-1
 276 -120 l 1,34,-1
 296 -120 l 1,0,-1
66 258 m 0,35,36
 66 301 66 301 80 344.5 c 128,-1,37
 94 388 94 388 121 423 c 128,-1,38
 148 458 148 458 187 481 c 128,-1,39
 226 504 226 504 276 507 c 1,40,-1
 276 11 l 1,41,42
 231 15 231 15 193 37 c 128,-1,43
 155 59 155 59 126.5 92.5 c 128,-1,44
 98 126 98 126 82 169 c 128,-1,45
 66 212 66 212 66 258 c 0,35,36
EndSplineSet
EndChar

StartChar: sterling
Encoding: 163 163 101
Width: 467
GlyphClass: 1
Flags: W
LayerCount: 2
Fore
SplineSet
48 346 m 1,0,-1
 354 346 l 1,1,-1
 354 366 l 1,2,-1
 48 366 l 1,3,-1
 48 346 l 1,0,-1
66 -7 m 1,4,5
 87 -2 87 -2 112.5 1.5 c 128,-1,6
 138 5 138 5 160 5 c 0,7,8
 183 5 183 5 201.5 2 c 128,-1,9
 220 -1 220 -1 237.5 -5 c 128,-1,10
 255 -9 255 -9 273 -12 c 128,-1,11
 291 -15 291 -15 313 -15 c 0,12,13
 339 -15 339 -15 365 -9.5 c 128,-1,14
 391 -4 391 -4 419 7 c 1,15,-1
 413 26 l 1,16,17
 382 15 382 15 358.5 10 c 128,-1,18
 335 5 335 5 314 5 c 0,19,20
 295 5 295 5 278 8 c 128,-1,21
 261 11 261 11 244 15 c 128,-1,22
 227 19 227 19 208 22 c 128,-1,23
 189 25 189 25 166 25 c 0,24,25
 148 25 148 25 130 23 c 128,-1,26
 112 21 112 21 95 18 c 1,27,28
 128 54 128 54 150.5 83.5 c 128,-1,29
 173 113 173 113 187 139 c 128,-1,30
 201 165 201 165 207 190 c 128,-1,31
 213 215 213 215 213 242 c 0,32,33
 213 294 213 294 195.5 334 c 128,-1,34
 178 374 178 374 157 409.5 c 128,-1,35
 136 445 136 445 118.5 479 c 128,-1,36
 101 513 101 513 101 552 c 0,37,38
 101 582 101 582 112 608 c 128,-1,39
 123 634 123 634 142 653.5 c 128,-1,40
 161 673 161 673 186.5 684 c 128,-1,41
 212 695 212 695 240 695 c 0,42,43
 285 695 285 695 324 669 c 128,-1,44
 363 643 363 643 387 598 c 1,45,-1
 404 610 l 1,46,47
 378 658 378 658 335 686.5 c 128,-1,48
 292 715 292 715 242 715 c 0,49,50
 209 715 209 715 179 702 c 128,-1,51
 149 689 149 689 127 666.5 c 128,-1,52
 105 644 105 644 92 614 c 128,-1,53
 79 584 79 584 79 550 c 0,54,55
 79 508 79 508 96.5 473.5 c 128,-1,56
 114 439 114 439 135.5 404.5 c 128,-1,57
 157 370 157 370 174.5 331 c 128,-1,58
 192 292 192 292 192 241 c 0,59,60
 192 216 192 216 186 192.5 c 128,-1,61
 180 169 180 169 164.5 143 c 128,-1,62
 149 117 149 117 123 85 c 128,-1,63
 97 53 97 53 56 10 c 1,64,-1
 66 -7 l 1,4,5
EndSplineSet
EndChar

StartChar: currency
Encoding: 164 164 102
Width: 533
GlyphClass: 1
Flags: W
LayerCount: 2
Fore
SplineSet
79 534 m 1,0,-1
 64 520 l 1,1,-1
 132 452 l 1,2,3
 112 428 112 428 101 398 c 128,-1,4
 90 368 90 368 90 335 c 0,5,6
 90 301 90 301 101.5 271 c 128,-1,7
 113 241 113 241 134 217 c 1,8,-1
 64 148 l 1,9,-1
 79 134 l 1,10,-1
 148 202 l 1,11,12
 171 181 171 181 200.5 169 c 128,-1,13
 230 157 230 157 265 157 c 256,14,15
 300 157 300 157 330.5 169.5 c 128,-1,16
 361 182 361 182 385 205 c 1,17,-1
 457 134 l 1,18,-1
 472 148 l 1,19,-1
 399 219 l 1,20,21
 419 243 419 243 430.5 273 c 128,-1,22
 442 303 442 303 442 335 c 256,23,24
 442 367 442 367 431 396.5 c 128,-1,25
 420 426 420 426 401 450 c 1,26,-1
 472 520 l 1,27,-1
 457 534 l 1,28,-1
 387 465 l 1,29,30
 364 488 364 488 332.5 501.5 c 128,-1,31
 301 515 301 515 265 515 c 0,32,33
 230 515 230 515 199.5 502.5 c 128,-1,34
 169 490 169 490 146 467 c 1,35,-1
 79 534 l 1,0,-1
111 334 m 0,36,37
 111 368 111 368 123.5 397.5 c 128,-1,38
 136 427 136 427 157 449 c 128,-1,39
 178 471 178 471 206 483.5 c 128,-1,40
 234 496 234 496 265 496 c 0,41,42
 297 496 297 496 325.5 483.5 c 128,-1,43
 354 471 354 471 375 449.5 c 128,-1,44
 396 428 396 428 408.5 398.5 c 128,-1,45
 421 369 421 369 421 336 c 256,46,47
 421 303 421 303 408.5 274 c 128,-1,48
 396 245 396 245 375 223 c 128,-1,49
 354 201 354 201 325.5 188 c 128,-1,50
 297 175 297 175 265 175 c 0,51,52
 234 175 234 175 206 187.5 c 128,-1,53
 178 200 178 200 157 221.5 c 128,-1,54
 136 243 136 243 123.5 272 c 128,-1,55
 111 301 111 301 111 334 c 0,36,37
EndSplineSet
EndChar

StartChar: yen
Encoding: 165 165 103
Width: 651
GlyphClass: 1
Flags: W
LayerCount: 2
Fore
SplineSet
623 710 m 1,0,-1
 600 710 l 1,1,-1
 325 298 l 1,2,-1
 51 710 l 1,3,-1
 28 710 l 1,4,-1
 273 341 l 1,5,-1
 179 341 l 1,6,-1
 179 321 l 1,7,-1
 286 321 l 1,8,-1
 315 277 l 1,9,-1
 315 251 l 1,10,-1
 179 251 l 1,11,-1
 179 231 l 1,12,-1
 315 231 l 1,13,-1
 315 0 l 1,14,-1
 335 0 l 1,15,-1
 335 231 l 1,16,-1
 472 231 l 1,17,-1
 472 251 l 1,18,-1
 335 251 l 1,19,-1
 335 275 l 1,20,-1
 366 321 l 1,21,-1
 472 321 l 1,22,-1
 472 341 l 1,23,-1
 379 341 l 1,24,-1
 623 710 l 1,0,-1
EndSplineSet
EndChar

StartChar: brokenbar
Encoding: 166 166 104
Width: 214
GlyphClass: 1
Flags: W
LayerCount: 2
Fore
SplineSet
97 285 m 1,0,-1
 97 -130 l 1,1,-1
 117 -130 l 1,2,-1
 117 285 l 1,3,-1
 97 285 l 1,0,-1
97 775 m 1,4,-1
 97 360 l 1,5,-1
 117 360 l 1,6,-1
 117 775 l 1,7,-1
 97 775 l 1,4,-1
EndSplineSet
EndChar

StartChar: section
Encoding: 167 167 105
Width: 481
GlyphClass: 1
Flags: W
LayerCount: 2
Fore
SplineSet
385 181 m 1,0,1
 402 198 402 198 412 224.5 c 128,-1,2
 422 251 422 251 422 280 c 0,3,4
 422 319 422 319 405.5 347 c 128,-1,5
 389 375 389 375 362 392.5 c 128,-1,6
 335 410 335 410 301 418 c 128,-1,7
 267 426 267 426 232 426 c 0,8,9
 196 426 196 426 165.5 433 c 128,-1,10
 135 440 135 440 113 455.5 c 128,-1,11
 91 471 91 471 78.5 496 c 128,-1,12
 66 521 66 521 66 557 c 0,13,14
 66 589 66 589 80.5 614.5 c 128,-1,15
 95 640 95 640 118.5 658 c 128,-1,16
 142 676 142 676 171.5 685.5 c 128,-1,17
 201 695 201 695 230 695 c 0,18,19
 249 695 249 695 271 692.5 c 128,-1,20
 293 690 293 690 313 683 c 128,-1,21
 333 676 333 676 350 664 c 128,-1,22
 367 652 367 652 377 632 c 1,23,-1
 395 640 l 1,24,25
 383 658 383 658 368 672 c 128,-1,26
 353 686 353 686 333.5 695.5 c 128,-1,27
 314 705 314 705 288.5 710 c 128,-1,28
 263 715 263 715 230 715 c 0,29,30
 199 715 199 715 166 704.5 c 128,-1,31
 133 694 133 694 106.5 674 c 128,-1,32
 80 654 80 654 63 624.5 c 128,-1,33
 46 595 46 595 46 557 c 0,34,35
 46 516 46 516 62 484 c 128,-1,36
 78 452 78 452 105 435 c 1,37,38
 91 419 91 419 82 393 c 128,-1,39
 73 367 73 367 73 341 c 0,40,41
 73 302 73 302 88 273.5 c 128,-1,42
 103 245 103 245 128.5 227 c 128,-1,43
 154 209 154 209 188 200 c 128,-1,44
 222 191 222 191 259 190 c 0,45,46
 288 189 288 189 316.5 184.5 c 128,-1,47
 345 180 345 180 367.5 167.5 c 128,-1,48
 390 155 390 155 404.5 132.5 c 128,-1,49
 419 110 419 110 419 74 c 0,50,51
 419 41 419 41 404 14.5 c 128,-1,52
 389 -12 389 -12 365.5 -30.5 c 128,-1,53
 342 -49 342 -49 312.5 -58.5 c 128,-1,54
 283 -68 283 -68 253 -68 c 0,55,56
 203 -68 203 -68 162.5 -49.5 c 128,-1,57
 122 -31 122 -31 81 7 c 1,58,-1
 66 -6 l 1,59,60
 83 -23 83 -23 102 -38 c 128,-1,61
 121 -53 121 -53 144 -64 c 128,-1,62
 167 -75 167 -75 194 -81.5 c 128,-1,63
 221 -88 221 -88 253 -88 c 256,64,65
 285 -88 285 -88 318 -77.5 c 128,-1,66
 351 -67 351 -67 378 -46.5 c 128,-1,67
 405 -26 405 -26 422 4.5 c 128,-1,68
 439 35 439 35 439 74 c 0,69,70
 439 112 439 112 426.5 138.5 c 128,-1,71
 414 165 414 165 385 181 c 1,0,1
93 341 m 0,72,73
 93 365 93 365 101.5 388 c 128,-1,74
 110 411 110 411 124 425 c 1,75,76
 147 415 147 415 175 410.5 c 128,-1,77
 203 406 203 406 232 406 c 0,78,79
 260 406 260 406 290 400 c 128,-1,80
 320 394 320 394 345 379.5 c 128,-1,81
 370 365 370 365 386 340.5 c 128,-1,82
 402 316 402 316 402 280 c 0,83,84
 402 254 402 254 392 229 c 128,-1,85
 382 204 382 204 365 190 c 1,86,87
 344 199 344 199 315.5 202 c 128,-1,88
 287 205 287 205 256.5 208.5 c 128,-1,89
 226 212 226 212 197 218 c 128,-1,90
 168 224 168 224 144.5 238 c 128,-1,91
 121 252 121 252 107 276.5 c 128,-1,92
 93 301 93 301 93 341 c 0,72,73
EndSplineSet
EndChar

StartChar: copyright
Encoding: 169 169 107
Width: 824
GlyphClass: 1
Flags: W
LayerCount: 2
Fore
SplineSet
412 -7 m 256,0,1
 490 -7 490 -7 556 20.5 c 128,-1,2
 622 48 622 48 670 96.5 c 128,-1,3
 718 145 718 145 745.5 211 c 128,-1,4
 773 277 773 277 773 355 c 0,5,6
 773 432 773 432 745.5 498 c 128,-1,7
 718 564 718 564 670 612 c 128,-1,8
 622 660 622 660 556 687.5 c 128,-1,9
 490 715 490 715 412 715 c 256,10,11
 334 715 334 715 268 687.5 c 128,-1,12
 202 660 202 660 154 612 c 128,-1,13
 106 564 106 564 78.5 498 c 128,-1,14
 51 432 51 432 51 355 c 0,15,16
 51 277 51 277 78.5 211 c 128,-1,17
 106 145 106 145 154 96.5 c 128,-1,18
 202 48 202 48 268 20.5 c 128,-1,19
 334 -7 334 -7 412 -7 c 256,0,1
413 13 m 0,20,21
 339 13 339 13 276.5 39 c 128,-1,22
 214 65 214 65 168.5 110.5 c 128,-1,23
 123 156 123 156 97.5 218.5 c 128,-1,24
 72 281 72 281 72 354 c 0,25,26
 72 428 72 428 97.5 490 c 128,-1,27
 123 552 123 552 169 598 c 128,-1,28
 215 644 215 644 277.5 669.5 c 128,-1,29
 340 695 340 695 413 695 c 256,30,31
 486 695 486 695 548 669.5 c 128,-1,32
 610 644 610 644 655.5 598 c 128,-1,33
 701 552 701 552 726.5 489 c 128,-1,34
 752 426 752 426 752 352 c 0,35,36
 752 277 752 277 726 214.5 c 128,-1,37
 700 152 700 152 654 107 c 128,-1,38
 608 62 608 62 546.5 37.5 c 128,-1,39
 485 13 485 13 413 13 c 0,20,21
419 127 m 0,40,41
 454 127 454 127 484 138.5 c 128,-1,42
 514 150 514 150 536.5 166.5 c 128,-1,43
 559 183 559 183 573 201.5 c 128,-1,44
 587 220 587 220 591 233 c 1,45,-1
 572 238 l 1,46,47
 563 217 563 217 545.5 200 c 128,-1,48
 528 183 528 183 506.5 171.5 c 128,-1,49
 485 160 485 160 461 153.5 c 128,-1,50
 437 147 437 147 415 147 c 0,51,52
 383 147 383 147 348.5 161 c 128,-1,53
 314 175 314 175 285.5 201.5 c 128,-1,54
 257 228 257 228 238.5 266.5 c 128,-1,55
 220 305 220 305 220 355 c 0,56,57
 220 391 220 391 231.5 428.5 c 128,-1,58
 243 466 243 466 266 496.5 c 128,-1,59
 289 527 289 527 325.5 546.5 c 128,-1,60
 362 566 362 566 411 566 c 0,61,62
 428 566 428 566 449 563 c 128,-1,63
 470 560 470 560 491.5 550.5 c 128,-1,64
 513 541 513 541 531.5 524 c 128,-1,65
 550 507 550 507 562 480 c 1,66,-1
 581 487 l 1,67,68
 561 538 561 538 514 562 c 128,-1,69
 467 586 467 586 411 586 c 0,70,71
 356 586 356 586 316 565 c 128,-1,72
 276 544 276 544 250.5 510.5 c 128,-1,73
 225 477 225 477 212.5 436 c 128,-1,74
 200 395 200 395 200 355 c 0,75,76
 200 301 200 301 220 258.5 c 128,-1,77
 240 216 240 216 271.5 186.5 c 128,-1,78
 303 157 303 157 342 142 c 128,-1,79
 381 127 381 127 419 127 c 0,40,41
EndSplineSet
EndChar

StartChar: ordfeminine
Encoding: 170 170 108
Width: 425
GlyphClass: 1
Flags: W
LayerCount: 2
Fore
SplineSet
170 351 m 0,0,1
 215 351 215 351 254.5 368 c 128,-1,2
 294 385 294 385 319 416 c 1,3,-1
 319 356 l 1,4,-1
 347 356 l 1,5,-1
 347 573 l 2,6,7
 347 637 347 637 309.5 673 c 128,-1,8
 272 709 272 709 207 709 c 0,9,10
 176 709 176 709 143.5 697.5 c 128,-1,11
 111 686 111 686 76 663 c 1,12,-1
 89 643 l 1,13,14
 120 663 120 663 149.5 673.5 c 128,-1,15
 179 684 179 684 205 684 c 0,16,17
 256 684 256 684 286 654.5 c 128,-1,18
 316 625 316 625 316 576 c 2,19,-1
 316 541 l 1,20,21
 292 550 292 550 261.5 555 c 128,-1,22
 231 560 231 560 201 560 c 0,23,24
 135 560 135 560 93.5 531.5 c 128,-1,25
 52 503 52 503 52 458 c 0,26,27
 52 436 52 436 61 416 c 128,-1,28
 70 396 70 396 86 382 c 128,-1,29
 102 368 102 368 123.5 359.5 c 128,-1,30
 145 351 145 351 170 351 c 0,0,1
176 377 m 0,31,32
 136 377 136 377 109 400.5 c 128,-1,33
 82 424 82 424 82 459 c 0,34,35
 82 495 82 495 116 516 c 128,-1,36
 150 537 150 537 205 537 c 0,37,38
 234 537 234 537 262 533 c 128,-1,39
 290 529 290 529 316 518 c 1,40,-1
 316 457 l 2,41,42
 316 451 316 451 313 444 c 128,-1,43
 310 437 310 437 305 430 c 0,44,45
 287 406 287 406 252.5 391.5 c 128,-1,46
 218 377 218 377 176 377 c 0,31,32
EndSplineSet
EndChar

StartChar: guillemotleft
Encoding: 171 171 109
Width: 518
GlyphClass: 1
Flags: W
LayerCount: 2
Fore
SplineSet
42 250 m 1,0,-1
 279 80 l 1,1,-1
 279 102 l 1,2,-1
 61 259 l 1,3,-1
 279 415 l 1,4,-1
 279 437 l 1,5,-1
 42 268 l 1,6,-1
 42 250 l 1,0,-1
212 250 m 1,7,-1
 449 80 l 1,8,-1
 449 102 l 1,9,-1
 231 259 l 1,10,-1
 449 415 l 1,11,-1
 449 437 l 1,12,-1
 212 268 l 1,13,-1
 212 250 l 1,7,-1
EndSplineSet
EndChar

StartChar: logicalnot
Encoding: 172 172 110
Width: 561
GlyphClass: 1
Flags: W
LayerCount: 2
Fore
SplineSet
87 338 m 1,0,-1
 87 318 l 1,1,-1
 470 318 l 1,2,-1
 470 140 l 1,3,-1
 490 140 l 1,4,-1
 490 338 l 1,5,-1
 87 338 l 1,0,-1
EndSplineSet
EndChar

StartChar: uni00AD
Encoding: 173 173 111
Width: 541
GlyphClass: 1
Flags: W
LayerCount: 2
Fore
SplineSet
472 261 m 1,0,-1
 472 281 l 1,1,-1
 69 281 l 1,2,-1
 69 261 l 1,3,-1
 472 261 l 1,0,-1
EndSplineSet
EndChar

StartChar: registered
Encoding: 174 174 112
Width: 824
GlyphClass: 1
Flags: W
LayerCount: 2
Fore
SplineSet
412 -7 m 256,0,1
 490 -7 490 -7 556 20.5 c 128,-1,2
 622 48 622 48 670 96.5 c 128,-1,3
 718 145 718 145 745.5 211 c 128,-1,4
 773 277 773 277 773 355 c 0,5,6
 773 432 773 432 745.5 498 c 128,-1,7
 718 564 718 564 670 612 c 128,-1,8
 622 660 622 660 556 687.5 c 128,-1,9
 490 715 490 715 412 715 c 256,10,11
 334 715 334 715 268 687.5 c 128,-1,12
 202 660 202 660 154 612 c 128,-1,13
 106 564 106 564 78.5 498 c 128,-1,14
 51 432 51 432 51 355 c 0,15,16
 51 277 51 277 78.5 211 c 128,-1,17
 106 145 106 145 154 96.5 c 128,-1,18
 202 48 202 48 268 20.5 c 128,-1,19
 334 -7 334 -7 412 -7 c 256,0,1
412 13 m 0,20,21
 339 13 339 13 276.5 39 c 128,-1,22
 214 65 214 65 168.5 110.5 c 128,-1,23
 123 156 123 156 97.5 219 c 128,-1,24
 72 282 72 282 72 355 c 256,25,26
 72 428 72 428 97.5 490 c 128,-1,27
 123 552 123 552 168.5 597.5 c 128,-1,28
 214 643 214 643 276.5 669 c 128,-1,29
 339 695 339 695 412 695 c 0,30,31
 486 695 486 695 548 669 c 128,-1,32
 610 643 610 643 655.5 597.5 c 128,-1,33
 701 552 701 552 726.5 490 c 128,-1,34
 752 428 752 428 752 355 c 0,35,36
 752 278 752 278 726 215 c 128,-1,37
 700 152 700 152 654 107 c 128,-1,38
 608 62 608 62 546 37.5 c 128,-1,39
 484 13 484 13 412 13 c 0,20,21
267 121 m 1,40,-1
 288 121 l 1,41,-1
 288 303 l 1,42,-1
 444 303 l 1,43,-1
 560 121 l 1,44,-1
 584 121 l 1,45,-1
 467 303 l 1,46,47
 493 305 493 305 515 317 c 128,-1,48
 537 329 537 329 552.5 348 c 128,-1,49
 568 367 568 367 576.5 391.5 c 128,-1,50
 585 416 585 416 585 443 c 0,51,52
 585 469 585 469 575.5 494 c 128,-1,53
 566 519 566 519 548.5 539 c 128,-1,54
 531 559 531 559 507.5 571 c 128,-1,55
 484 583 484 583 455 583 c 2,56,-1
 267 583 l 1,57,-1
 267 121 l 1,40,-1
288 323 m 1,58,-1
 288 562 l 1,59,-1
 455 562 l 2,60,61
 479 562 479 562 499.5 552.5 c 128,-1,62
 520 543 520 543 534.5 527 c 128,-1,63
 549 511 549 511 557 489 c 128,-1,64
 565 467 565 467 565 443 c 256,65,66
 565 419 565 419 558.5 397.5 c 128,-1,67
 552 376 552 376 538.5 359.5 c 128,-1,68
 525 343 525 343 505.5 333 c 128,-1,69
 486 323 486 323 460 323 c 2,70,-1
 288 323 l 1,58,-1
EndSplineSet
EndChar

StartChar: degree
Encoding: 176 176 114
Width: 252
GlyphClass: 1
Flags: W
LayerCount: 2
Fore
SplineSet
57 655 m 256,0,1
 57 626 57 626 77 606 c 128,-1,2
 97 586 97 586 126 586 c 256,3,4
 155 586 155 586 175 606 c 128,-1,5
 195 626 195 626 195 655 c 256,6,7
 195 684 195 684 175 704 c 128,-1,8
 155 724 155 724 126 724 c 256,9,10
 97 724 97 724 77 704 c 128,-1,11
 57 684 57 684 57 655 c 256,0,1
91 690 m 256,12,13
 98 697 98 697 107 700.5 c 128,-1,14
 116 704 116 704 126 704 c 256,15,16
 136 704 136 704 145 700.5 c 128,-1,17
 154 697 154 697 161 690 c 0,18,19
 167 683 167 683 171 674.5 c 128,-1,20
 175 666 175 666 175 655 c 0,21,22
 175 645 175 645 171 636 c 128,-1,23
 167 627 167 627 161 621 c 0,24,25
 154 614 154 614 145 610 c 128,-1,26
 136 606 136 606 126 606 c 0,27,28
 115 606 115 606 106.5 610 c 128,-1,29
 98 614 98 614 91 621 c 0,30,31
 84 627 84 627 80.5 636 c 128,-1,32
 77 645 77 645 77 655 c 0,33,34
 77 666 77 666 80.5 674.5 c 128,-1,35
 84 683 84 683 91 690 c 256,12,13
EndSplineSet
EndChar

StartChar: plusminus
Encoding: 177 177 115
Width: 470
GlyphClass: 1
Flags: W
LayerCount: 2
Fore
SplineSet
385 85 m 1,0,-1
 385 105 l 1,1,-1
 85 105 l 1,2,-1
 85 85 l 1,3,-1
 385 85 l 1,0,-1
245 365 m 1,4,-1
 245 515 l 1,5,-1
 225 515 l 1,6,-1
 225 365 l 1,7,-1
 85 365 l 1,8,-1
 85 345 l 1,9,-1
 225 345 l 1,10,-1
 225 195 l 1,11,-1
 245 195 l 1,12,-1
 245 345 l 1,13,-1
 385 345 l 1,14,-1
 385 365 l 1,15,-1
 245 365 l 1,4,-1
EndSplineSet
EndChar

StartChar: twosuperior
Encoding: 178 178 116
Width: 369
GlyphClass: 1
Flags: W
LayerCount: 2
Fore
SplineSet
325 423 m 1,0,-1
 325 442 l 1,1,-1
 65 442 l 1,2,3
 65 457 65 457 68 476 c 128,-1,4
 71 495 71 495 82 514 c 128,-1,5
 93 533 93 533 116 551.5 c 128,-1,6
 139 570 139 570 178 583 c 0,7,8
 199 590 199 590 224.5 598.5 c 128,-1,9
 250 607 250 607 272 620 c 128,-1,10
 294 633 294 633 309 652.5 c 128,-1,11
 324 672 324 672 324 702 c 0,12,13
 324 723 324 723 316 743 c 128,-1,14
 308 763 308 763 291.5 778 c 128,-1,15
 275 793 275 793 250.5 802 c 128,-1,16
 226 811 226 811 192 811 c 0,17,18
 156 811 156 811 128.5 801 c 128,-1,19
 101 791 101 791 83 779 c 128,-1,20
 65 767 65 767 55.5 756.5 c 128,-1,21
 46 746 46 746 45 744 c 2,22,-1
 60 732 l 1,23,24
 66 740 66 740 77 750.5 c 128,-1,25
 88 761 88 761 104 770 c 128,-1,26
 120 779 120 779 141.5 785.5 c 128,-1,27
 163 792 163 792 190 792 c 0,28,29
 248 792 248 792 275.5 765 c 128,-1,30
 303 738 303 738 303 703 c 0,31,32
 303 677 303 677 289.5 660 c 128,-1,33
 276 643 276 643 255.5 631.5 c 128,-1,34
 235 620 235 620 210.5 612 c 128,-1,35
 186 604 186 604 163 596 c 0,36,37
 135 586 135 586 112 571.5 c 128,-1,38
 89 557 89 557 73 536.5 c 128,-1,39
 57 516 57 516 48.5 488 c 128,-1,40
 40 460 40 460 40 423 c 1,41,-1
 325 423 l 1,0,-1
EndSplineSet
EndChar

StartChar: threesuperior
Encoding: 179 179 117
Width: 380
GlyphClass: 1
Flags: W
LayerCount: 2
Fore
SplineSet
190 418 m 0,0,1
 221 418 221 418 247.5 425.5 c 128,-1,2
 274 433 274 433 294 446.5 c 128,-1,3
 314 460 314 460 325.5 479 c 128,-1,4
 337 498 337 498 337 520 c 0,5,6
 337 557 337 557 309.5 583.5 c 128,-1,7
 282 610 282 610 236 618 c 1,8,9
 281 628 281 628 303 649.5 c 128,-1,10
 325 671 325 671 325 705 c 0,11,12
 325 728 325 728 314 747 c 128,-1,13
 303 766 303 766 284 780.5 c 128,-1,14
 265 795 265 795 239 803 c 128,-1,15
 213 811 213 811 182 811 c 0,16,17
 159 811 159 811 138 806.5 c 128,-1,18
 117 802 117 802 99.5 793 c 128,-1,19
 82 784 82 784 69 772 c 128,-1,20
 56 760 56 760 48 745 c 1,21,-1
 63 733 l 1,22,23
 76 759 76 759 108 776 c 128,-1,24
 140 793 140 793 182 793 c 0,25,26
 208 793 208 793 230.5 786.5 c 128,-1,27
 253 780 253 780 269.5 768 c 128,-1,28
 286 756 286 756 295 740 c 128,-1,29
 304 724 304 724 304 704 c 0,30,31
 304 666 304 666 269 646.5 c 128,-1,32
 234 627 234 627 168 627 c 2,33,-1
 146 627 l 1,34,-1
 146 609 l 1,35,-1
 168 609 l 2,36,37
 235 609 235 609 276 585.5 c 128,-1,38
 317 562 317 562 317 522 c 0,39,40
 317 485 317 485 280.5 461 c 128,-1,41
 244 437 244 437 190 437 c 0,42,43
 163 437 163 437 139 444 c 128,-1,44
 115 451 115 451 97 462.5 c 128,-1,45
 79 474 79 474 68.5 489 c 128,-1,46
 58 504 58 504 57 521 c 1,47,-1
 41 514 l 1,48,49
 44 472 44 472 85.5 445 c 128,-1,50
 127 418 127 418 190 418 c 0,0,1
EndSplineSet
EndChar

StartChar: uni00B5
Encoding: 181 181 119
Width: 602
GlyphClass: 1
Flags: W
LayerCount: 2
Fore
SplineSet
91 -212 m 1,0,-1
 111 -212 l 1,1,-1
 111 94 l 1,2,3
 120 68 120 68 134 48.5 c 128,-1,4
 148 29 148 29 166.5 16 c 128,-1,5
 185 3 185 3 208 -3.5 c 128,-1,6
 231 -10 231 -10 258 -10 c 0,7,8
 293 -10 293 -10 326.5 0 c 128,-1,9
 360 10 360 10 389 28.5 c 128,-1,10
 418 47 418 47 442.5 73 c 128,-1,11
 467 99 467 99 484 132 c 1,12,-1
 488 0 l 1,13,-1
 504 0 l 1,14,-1
 504 519 l 1,15,-1
 484 519 l 1,16,-1
 484 189 l 1,17,18
 472 150 472 150 449.5 117 c 128,-1,19
 427 84 427 84 397 60.5 c 128,-1,20
 367 37 367 37 331.5 23.5 c 128,-1,21
 296 10 296 10 258 10 c 0,22,23
 183 10 183 10 147 63.5 c 128,-1,24
 111 117 111 117 111 228 c 2,25,-1
 111 519 l 1,26,-1
 91 519 l 1,27,-1
 91 -212 l 1,0,-1
EndSplineSet
EndChar

StartChar: paragraph
Encoding: 182 182 120
Width: 565
GlyphClass: 1
Flags: W
LayerCount: 2
Fore
SplineSet
32 479 m 0,0,1
 32 425 32 425 51.5 382.5 c 128,-1,2
 71 340 71 340 107.5 310.5 c 128,-1,3
 144 281 144 281 196 265 c 128,-1,4
 248 249 248 249 314 248 c 1,5,-1
 314 -80 l 1,6,-1
 334 -80 l 1,7,-1
 334 248 l 1,8,-1
 425 248 l 1,9,-1
 425 -80 l 1,10,-1
 445 -80 l 1,11,-1
 445 690 l 1,12,-1
 515 690 l 1,13,-1
 515 710 l 1,14,-1
 314 710 l 2,15,16
 180 710 180 710 106 648.5 c 128,-1,17
 32 587 32 587 32 479 c 0,0,1
52 479 m 0,18,19
 52 579 52 579 119 634.5 c 128,-1,20
 186 690 186 690 314 690 c 1,21,-1
 314 268 l 1,22,23
 261 270 261 270 213.5 282.5 c 128,-1,24
 166 295 166 295 130 320.5 c 128,-1,25
 94 346 94 346 73 385 c 128,-1,26
 52 424 52 424 52 479 c 0,18,19
425 268 m 1,27,-1
 334 268 l 1,28,-1
 334 690 l 1,29,-1
 425 690 l 1,30,-1
 425 268 l 1,27,-1
EndSplineSet
EndChar

StartChar: onesuperior
Encoding: 185 185 123
Width: 252
GlyphClass: 1
Flags: W
LayerCount: 2
Fore
SplineSet
152 441 m 1,0,-1
 152 811 l 1,1,-1
 132 811 l 2,2,3
 131 810 131 810 122 801.5 c 128,-1,4
 113 793 113 793 99 783 c 128,-1,5
 85 773 85 773 68 765 c 128,-1,6
 51 757 51 757 35 757 c 1,7,-1
 35 738 l 1,8,9
 47 738 47 738 62 743 c 128,-1,10
 77 748 77 748 90.5 755 c 128,-1,11
 104 762 104 762 115.5 770.5 c 128,-1,12
 127 779 127 779 132 785 c 1,13,-1
 132 441 l 1,14,-1
 49 441 l 1,15,-1
 49 422 l 1,16,-1
 230 422 l 1,17,-1
 230 441 l 1,18,-1
 152 441 l 1,0,-1
EndSplineSet
EndChar

StartChar: ordmasculine
Encoding: 186 186 124
Width: 450
GlyphClass: 1
Flags: W
LayerCount: 2
Fore
SplineSet
224 351 m 0,0,1
 262 351 262 351 294 365.5 c 128,-1,2
 326 380 326 380 350 404.5 c 128,-1,3
 374 429 374 429 387.5 461 c 128,-1,4
 401 493 401 493 401 529 c 0,5,6
 401 566 401 566 387.5 598.5 c 128,-1,7
 374 631 374 631 350 655.5 c 128,-1,8
 326 680 326 680 293.5 694.5 c 128,-1,9
 261 709 261 709 224 709 c 256,10,11
 187 709 187 709 155 694.5 c 128,-1,12
 123 680 123 680 99.5 655.5 c 128,-1,13
 76 631 76 631 62.5 598.5 c 128,-1,14
 49 566 49 566 49 529 c 0,15,16
 49 493 49 493 62.5 461 c 128,-1,17
 76 429 76 429 99.5 404.5 c 128,-1,18
 123 380 123 380 155 365.5 c 128,-1,19
 187 351 187 351 224 351 c 0,0,1
71 528 m 256,20,21
 71 561 71 561 83 590.5 c 128,-1,22
 95 620 95 620 116 642 c 128,-1,23
 137 664 137 664 165 676.5 c 128,-1,24
 193 689 193 689 224 689 c 0,25,26
 256 689 256 689 284 676.5 c 128,-1,27
 312 664 312 664 333 642.5 c 128,-1,28
 354 621 354 621 366.5 592 c 128,-1,29
 379 563 379 563 379 530 c 256,30,31
 379 497 379 497 366.5 468 c 128,-1,32
 354 439 354 439 333 417.5 c 128,-1,33
 312 396 312 396 284 383 c 128,-1,34
 256 370 256 370 224 370 c 0,35,36
 193 370 193 370 165 382.5 c 128,-1,37
 137 395 137 395 116 416.5 c 128,-1,38
 95 438 95 438 83 466.5 c 128,-1,39
 71 495 71 495 71 528 c 256,20,21
EndSplineSet
EndChar

StartChar: guillemotright
Encoding: 187 187 125
Width: 518
GlyphClass: 1
Flags: W
LayerCount: 2
Fore
SplineSet
476 268 m 1,0,-1
 239 437 l 1,1,-1
 239 415 l 1,2,-1
 457 259 l 1,3,-1
 239 102 l 1,4,-1
 239 80 l 1,5,-1
 476 250 l 1,6,-1
 476 268 l 1,0,-1
306 268 m 1,7,-1
 69 437 l 1,8,-1
 69 415 l 1,9,-1
 287 259 l 1,10,-1
 69 102 l 1,11,-1
 69 80 l 1,12,-1
 306 250 l 1,13,-1
 306 268 l 1,7,-1
EndSplineSet
EndChar

StartChar: onehalf
Encoding: 189 189 127
Width: 741
GlyphClass: 1
Flags: W
LayerCount: 2
Fore
SplineSet
152 361 m 1,0,-1
 152 731 l 1,1,-1
 132 731 l 2,2,3
 131 730 131 730 122 721.5 c 128,-1,4
 113 713 113 713 99 703 c 128,-1,5
 85 693 85 693 68 685 c 128,-1,6
 51 677 51 677 35 677 c 1,7,-1
 35 658 l 1,8,9
 47 658 47 658 62 663 c 128,-1,10
 77 668 77 668 90.5 675 c 128,-1,11
 104 682 104 682 115.5 690.5 c 128,-1,12
 127 699 127 699 132 705 c 1,13,-1
 132 361 l 1,14,-1
 49 361 l 1,15,-1
 49 342 l 1,16,-1
 230 342 l 1,17,-1
 230 361 l 1,18,-1
 152 361 l 1,0,-1
41 -1 m 1,19,-1
 318 347 l 1,20,-1
 599 699 l 1,21,-1
 583 711 l 1,22,-1
 304 361 l 1,23,-1
 25 11 l 1,24,-1
 41 -1 l 1,19,-1
697 0 m 1,25,-1
 697 19 l 1,26,-1
 437 19 l 1,27,28
 437 34 437 34 440 53 c 128,-1,29
 443 72 443 72 454 91 c 128,-1,30
 465 110 465 110 488 128.5 c 128,-1,31
 511 147 511 147 550 160 c 0,32,33
 571 167 571 167 596.5 175.5 c 128,-1,34
 622 184 622 184 644 197 c 128,-1,35
 666 210 666 210 681 229.5 c 128,-1,36
 696 249 696 249 696 279 c 0,37,38
 696 300 696 300 688 320 c 128,-1,39
 680 340 680 340 663.5 355 c 128,-1,40
 647 370 647 370 622.5 379 c 128,-1,41
 598 388 598 388 564 388 c 0,42,43
 528 388 528 388 500.5 378 c 128,-1,44
 473 368 473 368 455 356 c 128,-1,45
 437 344 437 344 427.5 333.5 c 128,-1,46
 418 323 418 323 417 321 c 2,47,-1
 432 309 l 1,48,49
 438 317 438 317 449 327.5 c 128,-1,50
 460 338 460 338 476 347 c 128,-1,51
 492 356 492 356 513.5 362.5 c 128,-1,52
 535 369 535 369 562 369 c 0,53,54
 620 369 620 369 647.5 342 c 128,-1,55
 675 315 675 315 675 280 c 0,56,57
 675 254 675 254 661.5 237 c 128,-1,58
 648 220 648 220 627.5 208.5 c 128,-1,59
 607 197 607 197 582.5 189 c 128,-1,60
 558 181 558 181 535 173 c 0,61,62
 507 163 507 163 484 148.5 c 128,-1,63
 461 134 461 134 445 113.5 c 128,-1,64
 429 93 429 93 420.5 65 c 128,-1,65
 412 37 412 37 412 0 c 1,66,-1
 697 0 l 1,25,-1
EndSplineSet
EndChar

StartChar: questiondown
Encoding: 191 191 129
Width: 461
GlyphClass: 1
Flags: W
LayerCount: 2
Fore
SplineSet
266 327 m 1,0,1
 266 283 266 283 260.5 254.5 c 128,-1,2
 255 226 255 226 245 207.5 c 128,-1,3
 235 189 235 189 221.5 178.5 c 128,-1,4
 208 168 208 168 192 159 c 0,5,6
 165 144 165 144 137 130.5 c 128,-1,7
 109 117 109 117 86 97.5 c 128,-1,8
 63 78 63 78 48.5 48.5 c 128,-1,9
 34 19 34 19 34 -26 c 0,10,11
 34 -72 34 -72 49.5 -107 c 128,-1,12
 65 -142 65 -142 91 -165.5 c 128,-1,13
 117 -189 117 -189 151 -201 c 128,-1,14
 185 -213 185 -213 221 -213 c 0,15,16
 252 -213 252 -213 283.5 -204.5 c 128,-1,17
 315 -196 315 -196 342.5 -179.5 c 128,-1,18
 370 -163 370 -163 392.5 -139 c 128,-1,19
 415 -115 415 -115 429 -84 c 1,20,-1
 411 -76 l 1,21,22
 398 -103 398 -103 378 -124.5 c 128,-1,23
 358 -146 358 -146 333 -161.5 c 128,-1,24
 308 -177 308 -177 279 -185 c 128,-1,25
 250 -193 250 -193 220 -193 c 0,26,27
 189 -193 189 -193 159 -183.5 c 128,-1,28
 129 -174 129 -174 105.5 -154 c 128,-1,29
 82 -134 82 -134 68 -103 c 128,-1,30
 54 -72 54 -72 54 -29 c 256,31,32
 54 14 54 14 68 41 c 128,-1,33
 82 68 82 68 103.5 86 c 128,-1,34
 125 104 125 104 150.5 116 c 128,-1,35
 176 128 176 128 200 140 c 0,36,37
 218 149 218 149 234 161.5 c 128,-1,38
 250 174 250 174 261.5 195 c 128,-1,39
 273 216 273 216 279.5 247.5 c 128,-1,40
 286 279 286 279 286 327 c 1,41,-1
 266 327 l 1,0,1
310 477 m 256,42,43
 310 491 310 491 300 501 c 128,-1,44
 290 511 290 511 276 511 c 256,45,46
 262 511 262 511 252 501 c 128,-1,47
 242 491 242 491 242 477 c 256,48,49
 242 463 242 463 252 453.5 c 128,-1,50
 262 444 262 444 276 444 c 256,51,52
 290 444 290 444 300 453.5 c 128,-1,53
 310 463 310 463 310 477 c 256,42,43
EndSplineSet
EndChar

StartChar: AE
Encoding: 198 198 136
Width: 962
GlyphClass: 1
Flags: W
LayerCount: 2
Fore
SplineSet
-29 0 m 1,0,-1
 -4 0 l 1,1,-1
 163 254 l 1,2,-1
 444 254 l 1,3,-1
 444 0 l 1,4,-1
 910 0 l 1,5,-1
 910 20 l 1,6,-1
 464 20 l 1,7,-1
 464 353 l 1,8,-1
 847 353 l 1,9,-1
 847 373 l 1,10,-1
 464 373 l 1,11,-1
 464 690 l 1,12,-1
 901 690 l 1,13,-1
 901 710 l 1,14,-1
 439 710 l 1,15,-1
 -29 0 l 1,0,-1
175 274 m 1,16,-1
 444 678 l 1,17,-1
 444 274 l 1,18,-1
 175 274 l 1,16,-1
EndSplineSet
EndChar

StartChar: Idieresis
Encoding: 207 207 145
Width: 218
GlyphClass: 1
Flags: W
LayerCount: 2
Fore
SplineSet
119 0 m 1,0,-1
 119 710 l 1,1,-1
 99 710 l 1,2,-1
 99 0 l 1,3,-1
 119 0 l 1,0,-1
18 880 m 256,4,5
 18 866 18 866 28 856 c 128,-1,6
 38 846 38 846 52 846 c 256,7,8
 66 846 66 846 76 856 c 128,-1,9
 86 866 86 866 86 880 c 256,10,11
 86 894 86 894 76 903.5 c 128,-1,12
 66 913 66 913 52 913 c 256,13,14
 38 913 38 913 28 903.5 c 128,-1,15
 18 894 18 894 18 880 c 256,4,5
132 880 m 256,16,17
 132 866 132 866 142 856 c 128,-1,18
 152 846 152 846 166 846 c 256,19,20
 180 846 180 846 190 856 c 128,-1,21
 200 866 200 866 200 880 c 256,22,23
 200 894 200 894 190 903.5 c 128,-1,24
 180 913 180 913 166 913 c 256,25,26
 152 913 152 913 142 903.5 c 128,-1,27
 132 894 132 894 132 880 c 256,16,17
EndSplineSet
EndChar

StartChar: Eth
Encoding: 208 208 146
Width: 718
GlyphClass: 1
Flags: W
LayerCount: 2
Fore
SplineSet
318 347 m 1,0,-1
 318 367 l 1,1,-1
 35 367 l 1,2,-1
 35 347 l 1,3,-1
 318 347 l 1,0,-1
334 0 m 2,4,5
 411 0 411 0 472.5 25.5 c 128,-1,6
 534 51 534 51 577 97.5 c 128,-1,7
 620 144 620 144 643.5 209.5 c 128,-1,8
 667 275 667 275 667 356 c 0,9,10
 667 430 667 430 646.5 494.5 c 128,-1,11
 626 559 626 559 584.5 607 c 128,-1,12
 543 655 543 655 480.5 682.5 c 128,-1,13
 418 710 418 710 334 710 c 2,14,-1
 106 710 l 1,15,-1
 106 0 l 1,16,-1
 334 0 l 2,4,5
647 356 m 0,17,18
 647 284 647 284 627 222.5 c 128,-1,19
 607 161 607 161 567.5 116 c 128,-1,20
 528 71 528 71 469.5 45.5 c 128,-1,21
 411 20 411 20 334 20 c 2,22,-1
 126 20 l 1,23,-1
 126 690 l 1,24,-1
 334 690 l 2,25,26
 409 690 409 690 467.5 665 c 128,-1,27
 526 640 526 640 566 595.5 c 128,-1,28
 606 551 606 551 626.5 490 c 128,-1,29
 647 429 647 429 647 356 c 0,17,18
EndSplineSet
EndChar

StartChar: multiply
Encoding: 215 215 153
Width: 440
GlyphClass: 1
Flags: W
LayerCount: 2
Fore
SplineSet
234 270 m 1,0,-1
 370 406 l 1,1,-1
 356 421 l 1,2,-1
 220 285 l 1,3,-1
 85 420 l 1,4,-1
 70 406 l 1,5,-1
 205 270 l 1,6,-1
 71 136 l 1,7,-1
 85 121 l 1,8,-1
 220 256 l 1,9,-1
 355 121 l 1,10,-1
 370 135 l 1,11,-1
 234 270 l 1,0,-1
EndSplineSet
EndChar

StartChar: Thorn
Encoding: 222 222 160
Width: 599
GlyphClass: 1
Flags: W
LayerCount: 2
Fore
SplineSet
368 560 m 2,0,-1
 119 560 l 1,1,-1
 119 710 l 1,2,-1
 99 710 l 1,3,-1
 99 0 l 1,4,-1
 119 0 l 1,5,-1
 119 129 l 1,6,-1
 375 129 l 2,7,8
 418 129 418 129 453.5 147 c 128,-1,9
 489 165 489 165 514.5 195 c 128,-1,10
 540 225 540 225 554 264 c 128,-1,11
 568 303 568 303 568 345 c 0,12,13
 568 385 568 385 553 423.5 c 128,-1,14
 538 462 538 462 511.5 492.5 c 128,-1,15
 485 523 485 523 448.5 541.5 c 128,-1,16
 412 560 412 560 368 560 c 2,0,-1
375 149 m 2,17,-1
 119 149 l 1,18,-1
 119 540 l 1,19,-1
 368 540 l 2,20,21
 406 540 406 540 438.5 523.5 c 128,-1,22
 471 507 471 507 495.5 480 c 128,-1,23
 520 453 520 453 534 418 c 128,-1,24
 548 383 548 383 548 345 c 0,25,26
 548 309 548 309 536 274 c 128,-1,27
 524 239 524 239 502 211 c 128,-1,28
 480 183 480 183 448 166 c 128,-1,29
 416 149 416 149 375 149 c 2,17,-1
EndSplineSet
EndChar

StartChar: germandbls
Encoding: 223 223 161
Width: 546
GlyphClass: 1
Flags: W
LayerCount: 2
Fore
SplineSet
230 -6 m 1,0,1
 296 -4 296 -4 346 11 c 128,-1,2
 396 26 396 26 430.5 52.5 c 128,-1,3
 465 79 465 79 482.5 117 c 128,-1,4
 500 155 500 155 500 203 c 0,5,6
 500 282 500 282 455.5 334.5 c 128,-1,7
 411 387 411 387 328 404 c 1,8,9
 353 409 353 409 375 423 c 128,-1,10
 397 437 397 437 413 458 c 128,-1,11
 429 479 429 479 438.5 504.5 c 128,-1,12
 448 530 448 530 448 557 c 0,13,14
 448 590 448 590 434 619 c 128,-1,15
 420 648 420 648 396 669 c 128,-1,16
 372 690 372 690 339 702 c 128,-1,17
 306 714 306 714 268 714 c 0,18,19
 227 714 227 714 193 699.5 c 128,-1,20
 159 685 159 685 135 658 c 128,-1,21
 111 631 111 631 97.5 593 c 128,-1,22
 84 555 84 555 84 509 c 2,23,-1
 84 0 l 1,24,-1
 104 0 l 1,25,-1
 104 509 l 2,26,27
 104 551 104 551 115.5 585 c 128,-1,28
 127 619 127 619 148.5 643.5 c 128,-1,29
 170 668 170 668 200 681 c 128,-1,30
 230 694 230 694 267 694 c 0,31,32
 301 694 301 694 330.5 683 c 128,-1,33
 360 672 360 672 381.5 653 c 128,-1,34
 403 634 403 634 415.5 608 c 128,-1,35
 428 582 428 582 428 552 c 256,36,37
 428 522 428 522 416.5 497 c 128,-1,38
 405 472 405 472 384 453 c 128,-1,39
 363 434 363 434 335 423.5 c 128,-1,40
 307 413 307 413 274 413 c 2,41,-1
 258 413 l 1,42,-1
 258 393 l 1,43,-1
 275 393 l 2,44,45
 321 393 321 393 358.5 379 c 128,-1,46
 396 365 396 365 423 340 c 128,-1,47
 450 315 450 315 465 280 c 128,-1,48
 480 245 480 245 480 202 c 0,49,50
 480 158 480 158 463.5 123 c 128,-1,51
 447 88 447 88 415 64 c 128,-1,52
 383 40 383 40 336.5 27 c 128,-1,53
 290 14 290 14 230 13 c 1,54,-1
 230 -6 l 1,0,1
EndSplineSet
EndChar

StartChar: ae
Encoding: 230 230 168
Width: 928
GlyphClass: 1
Flags: W
LayerCount: 2
Fore
SplineSet
207 -10 m 0,0,1
 239 -10 239 -10 273.5 -3 c 128,-1,2
 308 4 308 4 340 18.5 c 128,-1,3
 372 33 372 33 398.5 56 c 128,-1,4
 425 79 425 79 441 111 c 1,5,6
 475 56 475 56 529 23 c 128,-1,7
 583 -10 583 -10 648 -10 c 0,8,9
 682 -10 682 -10 714.5 -0.5 c 128,-1,10
 747 9 747 9 774.5 25.5 c 128,-1,11
 802 42 802 42 823 64.5 c 128,-1,12
 844 87 844 87 854 114 c 1,13,-1
 835 119 l 1,14,15
 824 95 824 95 805 75 c 128,-1,16
 786 55 786 55 761 40.5 c 128,-1,17
 736 26 736 26 707.5 18 c 128,-1,18
 679 10 679 10 649 10 c 0,19,20
 604 10 604 10 563.5 28.5 c 128,-1,21
 523 47 523 47 492 79 c 128,-1,22
 461 111 461 111 441.5 154.5 c 128,-1,23
 422 198 422 198 418 248 c 1,24,-1
 893 248 l 1,25,26
 893 251 893 251 893 253.5 c 128,-1,27
 893 256 893 256 893 259 c 0,28,29
 893 315 893 315 873 364 c 128,-1,30
 853 413 853 413 819.5 449 c 128,-1,31
 786 485 786 485 740.5 506 c 128,-1,32
 695 527 695 527 643 527 c 0,33,34
 577 527 577 527 522 493 c 128,-1,35
 467 459 467 459 435 403 c 1,36,37
 416 462 416 462 370 494.5 c 128,-1,38
 324 527 324 527 257 527 c 0,39,40
 216 527 216 527 171.5 510 c 128,-1,41
 127 493 127 493 77 459 c 1,42,-1
 89 443 l 1,43,44
 133 474 133 474 176 490.5 c 128,-1,45
 219 507 219 507 257 507 c 0,46,47
 321 507 321 507 364.5 471.5 c 128,-1,48
 408 436 408 436 421 376 c 1,49,50
 411 353 411 353 405.5 328 c 128,-1,51
 400 303 400 303 398 277 c 1,52,53
 365 286 365 286 327 291.5 c 128,-1,54
 289 297 289 297 253 297 c 0,55,56
 206 297 206 297 166.5 286 c 128,-1,57
 127 275 127 275 98.5 255.5 c 128,-1,58
 70 236 70 236 54.5 209 c 128,-1,59
 39 182 39 182 39 149 c 256,60,61
 39 116 39 116 52 87 c 128,-1,62
 65 58 65 58 87.5 36.5 c 128,-1,63
 110 15 110 15 141 2.5 c 128,-1,64
 172 -10 172 -10 207 -10 c 0,0,1
207 10 m 0,65,66
 176 10 176 10 149 21 c 128,-1,67
 122 32 122 32 102 50.5 c 128,-1,68
 82 69 82 69 70.5 94.5 c 128,-1,69
 59 120 59 120 59 149 c 256,70,71
 59 178 59 178 73 201.5 c 128,-1,72
 87 225 87 225 112.5 242 c 128,-1,73
 138 259 138 259 174 268 c 128,-1,74
 210 277 210 277 253 277 c 0,75,76
 291 277 291 277 327 272 c 128,-1,77
 363 267 363 267 398 256 c 1,78,79
 399 224 399 224 406 194 c 128,-1,80
 413 164 413 164 427 137 c 1,81,82
 425 129 425 129 421.5 120 c 128,-1,83
 418 111 418 111 412 102 c 0,84,85
 385 60 385 60 329.5 35 c 128,-1,86
 274 10 274 10 207 10 c 0,65,66
418 268 m 1,87,88
 421 319 421 319 439 363 c 128,-1,89
 457 407 457 407 487.5 439 c 128,-1,90
 518 471 518 471 558 489 c 128,-1,91
 598 507 598 507 644 507 c 256,92,93
 690 507 690 507 730 489 c 128,-1,94
 770 471 770 471 800.5 439.5 c 128,-1,95
 831 408 831 408 850 364 c 128,-1,96
 869 320 869 320 872 268 c 1,97,-1
 418 268 l 1,87,88
EndSplineSet
EndChar

StartChar: idieresis
Encoding: 239 239 177
Width: 188
GlyphClass: 1
Flags: W
LayerCount: 2
Fore
SplineSet
104 0 m 1,0,-1
 104 519 l 1,1,-1
 84 519 l 1,2,-1
 84 0 l 1,3,-1
 104 0 l 1,0,-1
3 689 m 256,4,5
 3 675 3 675 13 665 c 128,-1,6
 23 655 23 655 37 655 c 256,7,8
 51 655 51 655 61 665 c 128,-1,9
 71 675 71 675 71 689 c 256,10,11
 71 703 71 703 61.5 712.5 c 128,-1,12
 52 722 52 722 37 722 c 0,13,14
 23 722 23 722 13 712.5 c 128,-1,15
 3 703 3 703 3 689 c 256,4,5
117 689 m 256,16,17
 117 675 117 675 127 665 c 128,-1,18
 137 655 137 655 151 655 c 256,19,20
 165 655 165 655 175 665 c 128,-1,21
 185 675 185 675 185 689 c 256,22,23
 185 703 185 703 175.5 712.5 c 128,-1,24
 166 722 166 722 151 722 c 0,25,26
 137 722 137 722 127 712.5 c 128,-1,27
 117 703 117 703 117 689 c 256,16,17
EndSplineSet
EndChar

StartChar: eth
Encoding: 240 240 178
Width: 593
GlyphClass: 1
Flags: W
LayerCount: 2
Fore
SplineSet
542 246 m 0,0,1
 542 311 542 311 533 373 c 128,-1,2
 524 435 524 435 493 495 c 128,-1,3
 462 555 462 555 404.5 613.5 c 128,-1,4
 347 672 347 672 249 730 c 1,5,-1
 220 730 l 1,6,7
 309 679 309 679 365.5 628 c 128,-1,8
 422 577 422 577 455 526.5 c 128,-1,9
 488 476 488 476 502.5 427 c 128,-1,10
 517 378 517 378 522 330 c 1,11,12
 509 362 509 362 486.5 388.5 c 128,-1,13
 464 415 464 415 434.5 434.5 c 128,-1,14
 405 454 405 454 369.5 464.5 c 128,-1,15
 334 475 334 475 295 475 c 0,16,17
 245 475 245 475 200 455.5 c 128,-1,18
 155 436 155 436 121.5 403 c 128,-1,19
 88 370 88 370 68 326 c 128,-1,20
 48 282 48 282 48 232 c 0,21,22
 48 183 48 183 67.5 139 c 128,-1,23
 87 95 87 95 120.5 62 c 128,-1,24
 154 29 154 29 199 9.5 c 128,-1,25
 244 -10 244 -10 295 -10 c 256,26,27
 346 -10 346 -10 391 10.5 c 128,-1,28
 436 31 436 31 469.5 66 c 128,-1,29
 503 101 503 101 522.5 147.5 c 128,-1,30
 542 194 542 194 542 246 c 0,0,1
68 230 m 0,31,32
 68 276 68 276 86 317 c 128,-1,33
 104 358 104 358 135 388.5 c 128,-1,34
 166 419 166 419 207.5 437 c 128,-1,35
 249 455 249 455 295 455 c 256,36,37
 341 455 341 455 382.5 438.5 c 128,-1,38
 424 422 424 422 455 393.5 c 128,-1,39
 486 365 486 365 504 327 c 128,-1,40
 522 289 522 289 522 247 c 0,41,42
 522 199 522 199 504 156 c 128,-1,43
 486 113 486 113 454.5 80.5 c 128,-1,44
 423 48 423 48 382 29 c 128,-1,45
 341 10 341 10 294 10 c 0,46,47
 248 10 248 10 206.5 27.5 c 128,-1,48
 165 45 165 45 134.5 75 c 128,-1,49
 104 105 104 105 86 145 c 128,-1,50
 68 185 68 185 68 230 c 0,31,32
461 713 m 1,51,-1
 361 647 l 1,52,-1
 355 643 l 1,53,-1
 230 561 l 1,54,-1
 240 547 l 1,55,-1
 368 631 l 1,56,-1
 375 636 l 1,57,-1
 471 699 l 1,58,-1
 461 713 l 1,51,-1
EndSplineSet
EndChar

StartChar: divide
Encoding: 247 247 185
Width: 546
GlyphClass: 1
Flags: W
LayerCount: 2
Fore
SplineSet
475 261 m 1,0,-1
 475 281 l 1,1,-1
 72 281 l 1,2,-1
 72 261 l 1,3,-1
 475 261 l 1,0,-1
237 123 m 256,4,5
 237 109 237 109 247 99 c 128,-1,6
 257 89 257 89 271 89 c 256,7,8
 285 89 285 89 295 99 c 128,-1,9
 305 109 305 109 305 123 c 256,10,11
 305 137 305 137 295 146.5 c 128,-1,12
 285 156 285 156 271 156 c 256,13,14
 257 156 257 156 247 146.5 c 128,-1,15
 237 137 237 137 237 123 c 256,4,5
237 420 m 256,16,17
 237 406 237 406 247 396 c 128,-1,18
 257 386 257 386 271 386 c 256,19,20
 285 386 285 386 295 396 c 128,-1,21
 305 406 305 406 305 420 c 256,22,23
 305 434 305 434 295 443.5 c 128,-1,24
 285 453 285 453 271 453 c 256,25,26
 257 453 257 453 247 443.5 c 128,-1,27
 237 434 237 434 237 420 c 256,16,17
EndSplineSet
EndChar

StartChar: oslash
Encoding: 248 248 186
Width: 586
GlyphClass: 1
Flags: W
LayerCount: 2
Fore
SplineSet
293 -10 m 256,0,1
 344 -10 344 -10 389 11.5 c 128,-1,2
 434 33 434 33 467.5 69.5 c 128,-1,3
 501 106 501 106 520.5 155 c 128,-1,4
 540 204 540 204 540 258 c 0,5,6
 540 313 540 313 520.5 362 c 128,-1,7
 501 411 501 411 467 447.5 c 128,-1,8
 433 484 433 484 388 505.5 c 128,-1,9
 343 527 343 527 293 527 c 256,10,11
 243 527 243 527 198 505.5 c 128,-1,12
 153 484 153 484 119.5 447.5 c 128,-1,13
 86 411 86 411 66 362 c 128,-1,14
 46 313 46 313 46 258 c 0,15,16
 46 204 46 204 65.5 155 c 128,-1,17
 85 106 85 106 118.5 69.5 c 128,-1,18
 152 33 152 33 197 11.5 c 128,-1,19
 242 -10 242 -10 293 -10 c 256,0,1
292 10 m 0,20,21
 246 10 246 10 204.5 29.5 c 128,-1,22
 163 49 163 49 132.5 82.5 c 128,-1,23
 102 116 102 116 84 161 c 128,-1,24
 66 206 66 206 66 256 c 0,25,26
 66 307 66 307 84 352.5 c 128,-1,27
 102 398 102 398 133 432.5 c 128,-1,28
 164 467 164 467 205.5 487 c 128,-1,29
 247 507 247 507 293 507 c 256,30,31
 339 507 339 507 380.5 487 c 128,-1,32
 422 467 422 467 453 433 c 128,-1,33
 484 399 484 399 502 354 c 128,-1,34
 520 309 520 309 520 259 c 0,35,36
 520 208 520 208 502 163 c 128,-1,37
 484 118 484 118 452.5 84 c 128,-1,38
 421 50 421 50 380 30 c 128,-1,39
 339 10 339 10 292 10 c 0,20,21
148 0 m 1,40,-1
 171 38 l 1,41,-1
 154 51 l 1,42,-1
 123 0 l 1,43,-1
 148 0 l 1,40,-1
434 466 m 1,44,-1
 416 479 l 1,45,-1
 154 51 l 1,46,-1
 171 38 l 1,47,-1
 434 466 l 1,44,-1
466 519 m 1,48,-1
 440 519 l 1,49,-1
 416 479 l 1,50,-1
 434 466 l 1,51,-1
 466 519 l 1,48,-1
EndSplineSet
EndChar

StartChar: thorn
Encoding: 254 254 192
Width: 603
GlyphClass: 1
Flags: W
LayerCount: 2
Fore
SplineSet
557 258 m 0,0,1
 557 306 557 306 540.5 354 c 128,-1,2
 524 402 524 402 493.5 440.5 c 128,-1,3
 463 479 463 479 418 503 c 128,-1,4
 373 527 373 527 316 527 c 0,5,6
 248 527 248 527 196 490.5 c 128,-1,7
 144 454 144 454 104 398 c 1,8,-1
 104 710 l 1,9,-1
 84 710 l 1,10,-1
 84 -213 l 1,11,-1
 104 -213 l 1,12,-1
 104 108 l 1,13,14
 119 83 119 83 141.5 61.5 c 128,-1,15
 164 40 164 40 190.5 24 c 128,-1,16
 217 8 217 8 246.5 -1 c 128,-1,17
 276 -10 276 -10 307 -10 c 0,18,19
 360 -10 360 -10 405 12 c 128,-1,20
 450 34 450 34 483.5 71 c 128,-1,21
 517 108 517 108 536.5 156.5 c 128,-1,22
 556 205 556 205 557 258 c 0,0,1
537 258 m 0,23,24
 537 212 537 212 520 167.5 c 128,-1,25
 503 123 503 123 472.5 88 c 128,-1,26
 442 53 442 53 399.5 31.5 c 128,-1,27
 357 10 357 10 307 10 c 0,28,29
 277 10 277 10 241.5 23 c 128,-1,30
 206 36 206 36 175.5 57.5 c 128,-1,31
 145 79 145 79 124.5 108 c 128,-1,32
 104 137 104 137 104 169 c 2,33,-1
 104 356 l 1,34,35
 119 386 119 386 140 413 c 128,-1,36
 161 440 161 440 187.5 461 c 128,-1,37
 214 482 214 482 246.5 494.5 c 128,-1,38
 279 507 279 507 316 507 c 0,39,40
 365 507 365 507 405.5 486 c 128,-1,41
 446 465 446 465 475.5 430.5 c 128,-1,42
 505 396 505 396 521 351 c 128,-1,43
 537 306 537 306 537 258 c 0,23,24
EndSplineSet
EndChar

StartChar: Dcroat
Encoding: 272 272 210
Width: 718
GlyphClass: 1
Flags: W
LayerCount: 2
Fore
SplineSet
318 347 m 1,0,-1
 318 367 l 1,1,-1
 35 367 l 1,2,-1
 35 347 l 1,3,-1
 318 347 l 1,0,-1
334 0 m 2,4,5
 411 0 411 0 472.5 25.5 c 128,-1,6
 534 51 534 51 577 97.5 c 128,-1,7
 620 144 620 144 643.5 209.5 c 128,-1,8
 667 275 667 275 667 356 c 0,9,10
 667 430 667 430 646.5 494.5 c 128,-1,11
 626 559 626 559 584.5 607 c 128,-1,12
 543 655 543 655 480.5 682.5 c 128,-1,13
 418 710 418 710 334 710 c 2,14,-1
 106 710 l 1,15,-1
 106 0 l 1,16,-1
 334 0 l 2,4,5
647 356 m 0,17,18
 647 284 647 284 627 222.5 c 128,-1,19
 607 161 607 161 567.5 116 c 128,-1,20
 528 71 528 71 469.5 45.5 c 128,-1,21
 411 20 411 20 334 20 c 2,22,-1
 126 20 l 1,23,-1
 126 690 l 1,24,-1
 334 690 l 2,25,26
 409 690 409 690 467.5 665 c 128,-1,27
 526 640 526 640 566 595.5 c 128,-1,28
 606 551 606 551 626.5 490 c 128,-1,29
 647 429 647 429 647 356 c 0,17,18
EndSplineSet
EndChar

StartChar: dcroat
Encoding: 273 273 211
Width: 604
GlyphClass: 1
Flags: W
LayerCount: 2
Fore
SplineSet
595 633 m 1,0,-1
 595 653 l 1,1,-1
 375 653 l 1,2,-1
 375 633 l 1,3,-1
 595 633 l 1,0,-1
519 0 m 1,4,-1
 519 730 l 1,5,-1
 499 730 l 1,6,-1
 499 398 l 1,7,8
 481 424 481 424 459 447.5 c 128,-1,9
 437 471 437 471 410.5 488.5 c 128,-1,10
 384 506 384 506 353.5 516.5 c 128,-1,11
 323 527 323 527 287 527 c 0,12,13
 235 527 235 527 191 505 c 128,-1,14
 147 483 147 483 114.5 446 c 128,-1,15
 82 409 82 409 64 360.5 c 128,-1,16
 46 312 46 312 46 258 c 0,17,18
 46 208 46 208 64.5 160 c 128,-1,19
 83 112 83 112 116.5 74 c 128,-1,20
 150 36 150 36 196 13 c 128,-1,21
 242 -10 242 -10 296 -10 c 0,22,23
 356 -10 356 -10 411 23 c 128,-1,24
 466 56 466 56 499 108 c 1,25,-1
 499 0 l 1,26,-1
 519 0 l 1,4,-1
499 169 m 2,27,28
 498 137 498 137 477.5 108 c 128,-1,29
 457 79 457 79 427 57.5 c 128,-1,30
 397 36 397 36 361.5 23 c 128,-1,31
 326 10 326 10 296 10 c 0,32,33
 248 10 248 10 206 30.5 c 128,-1,34
 164 51 164 51 133 85.5 c 128,-1,35
 102 120 102 120 84 164.5 c 128,-1,36
 66 209 66 209 66 258 c 0,37,38
 66 305 66 305 81.5 349.5 c 128,-1,39
 97 394 97 394 126 429 c 128,-1,40
 155 464 155 464 195.5 485.5 c 128,-1,41
 236 507 236 507 287 507 c 0,42,43
 319 507 319 507 352 495 c 128,-1,44
 385 483 385 483 414 462.5 c 128,-1,45
 443 442 443 442 466 414.5 c 128,-1,46
 489 387 489 387 499 356 c 1,47,-1
 499 169 l 2,27,28
EndSplineSet
EndChar

StartChar: Hbar
Encoding: 294 294 232
Width: 741
GlyphClass: 1
Flags: W
LayerCount: 2
Fore
SplineSet
687 554 m 1,0,-1
 687 574 l 1,1,-1
 54 574 l 1,2,-1
 54 554 l 1,3,-1
 687 554 l 1,0,-1
617 710 m 1,4,-1
 617 373 l 1,5,-1
 124 373 l 1,6,-1
 124 710 l 1,7,-1
 104 710 l 1,8,-1
 104 0 l 1,9,-1
 124 0 l 1,10,-1
 124 353 l 1,11,-1
 617 353 l 1,12,-1
 617 0 l 1,13,-1
 637 0 l 1,14,-1
 637 710 l 1,15,-1
 617 710 l 1,4,-1
EndSplineSet
EndChar

StartChar: hbar
Encoding: 295 295 233
Width: 565
GlyphClass: 1
Flags: W
LayerCount: 2
Fore
SplineSet
230 633 m 1,0,-1
 230 653 l 1,1,-1
 10 653 l 1,2,-1
 10 633 l 1,3,-1
 230 633 l 1,0,-1
487 289 m 2,4,5
 487 348 487 348 476.5 392.5 c 128,-1,6
 466 437 466 437 445 467 c 128,-1,7
 424 497 424 497 393.5 512 c 128,-1,8
 363 527 363 527 322 527 c 0,9,10
 255 527 255 527 195.5 488.5 c 128,-1,11
 136 450 136 450 104 385 c 1,12,-1
 104 730 l 1,13,-1
 84 730 l 1,14,-1
 84 0 l 1,15,-1
 104 0 l 1,16,-1
 104 328 l 1,17,18
 114 366 114 366 136 398.5 c 128,-1,19
 158 431 158 431 187.5 455 c 128,-1,20
 217 479 217 479 252 493 c 128,-1,21
 287 507 287 507 323 507 c 0,22,23
 395 507 395 507 431 452.5 c 128,-1,24
 467 398 467 398 467 289 c 2,25,-1
 467 0 l 1,26,-1
 487 0 l 1,27,-1
 487 289 l 2,4,5
EndSplineSet
EndChar

StartChar: dotlessi
Encoding: 305 305 243
Width: 188
GlyphClass: 1
Flags: W
LayerCount: 2
Fore
SplineSet
104 0 m 1,0,-1
 104 519 l 1,1,-1
 84 519 l 1,2,-1
 84 0 l 1,3,-1
 104 0 l 1,0,-1
EndSplineSet
EndChar

StartChar: kgreenlandic
Encoding: 312 312 248
Width: 508
GlyphClass: 1
Flags: W
LayerCount: 2
Fore
SplineSet
490 0 m 1,0,-1
 260 311 l 1,1,-1
 485 517 l 1,2,-1
 458 517 l 1,3,-1
 104 196 l 1,4,-1
 104 519 l 1,5,-1
 84 519 l 1,6,-1
 84 0 l 1,7,-1
 104 0 l 1,8,-1
 104 169 l 1,9,-1
 245 297 l 1,10,-1
 466 0 l 1,11,-1
 490 0 l 1,0,-1
EndSplineSet
EndChar

StartChar: Lslash
Encoding: 321 321 257
Width: 586
GlyphClass: 1
Flags: W
LayerCount: 2
Fore
SplineSet
328 506 m 1,0,-1
 314 521 l 1,1,-1
 29 236 l 1,2,-1
 43 221 l 1,3,-1
 328 506 l 1,0,-1
572 0 m 1,4,-1
 572 20 l 1,5,-1
 126 20 l 1,6,-1
 126 710 l 1,7,-1
 106 710 l 1,8,-1
 106 0 l 1,9,-1
 572 0 l 1,4,-1
EndSplineSet
EndChar

StartChar: lslash
Encoding: 322 322 258
Width: 253
GlyphClass: 1
Flags: W
LayerCount: 2
Fore
SplineSet
231 504 m 1,0,-1
 216 518 l 1,1,-1
 16 318 l 1,2,-1
 31 304 l 1,3,-1
 231 504 l 1,0,-1
104 77 m 2,4,5
 104 40 104 40 126 17.5 c 128,-1,6
 148 -5 148 -5 183 -5 c 0,7,8
 197 -5 197 -5 217.5 -1.5 c 128,-1,9
 238 2 238 2 252 7 c 1,10,-1
 245 23 l 1,11,12
 232 19 232 19 216.5 16.5 c 128,-1,13
 201 14 201 14 190 14 c 0,14,15
 175 14 175 14 163 18.5 c 128,-1,16
 151 23 151 23 142 31 c 128,-1,17
 133 39 133 39 128.5 50.5 c 128,-1,18
 124 62 124 62 124 77 c 2,19,-1
 124 730 l 1,20,-1
 104 730 l 1,21,-1
 104 77 l 2,4,5
EndSplineSet
EndChar

StartChar: Eng
Encoding: 330 330 265
Width: 776
GlyphClass: 1
Flags: W
LayerCount: 2
Fore
SplineSet
657 -4 m 1,0,-1
 657 -36 l 2,1,2
 657 -60 657 -60 647 -81 c 128,-1,3
 637 -102 637 -102 620.5 -117 c 128,-1,4
 604 -132 604 -132 584 -141 c 128,-1,5
 564 -150 564 -150 543 -150 c 256,6,7
 522 -150 522 -150 500 -145 c 128,-1,8
 478 -140 478 -140 460 -124 c 1,9,-1
 444 -136 l 1,10,11
 464 -156 464 -156 489.5 -163 c 128,-1,12
 515 -170 515 -170 544 -170 c 0,13,14
 567 -170 567 -170 591 -160 c 128,-1,15
 615 -150 615 -150 634 -132 c 128,-1,16
 653 -114 653 -114 665 -89.5 c 128,-1,17
 677 -65 677 -65 677 -36 c 2,18,-1
 677 709 l 1,19,-1
 657 709 l 1,20,-1
 657 29 l 1,21,-1
 114 710 l 1,22,-1
 99 710 l 1,23,-1
 99 0 l 1,24,-1
 119 0 l 1,25,-1
 119 671 l 1,26,-1
 657 -4 l 1,0,-1
EndSplineSet
EndChar

StartChar: eng
Encoding: 331 331 266
Width: 565
GlyphClass: 1
Flags: W
LayerCount: 2
Fore
SplineSet
354 -170 m 0,0,1
 377 -170 377 -170 401 -160 c 128,-1,2
 425 -150 425 -150 444 -132 c 128,-1,3
 463 -114 463 -114 475 -89.5 c 128,-1,4
 487 -65 487 -65 487 -36 c 2,5,-1
 487 289 l 2,6,7
 487 350 487 350 478 395 c 128,-1,8
 469 440 469 440 450 469 c 128,-1,9
 431 498 431 498 402 512.5 c 128,-1,10
 373 527 373 527 333 527 c 0,11,12
 298 527 298 527 264 516.5 c 128,-1,13
 230 506 230 506 200 487.5 c 128,-1,14
 170 469 170 469 145 443 c 128,-1,15
 120 417 120 417 104 385 c 1,16,-1
 104 519 l 1,17,-1
 84 519 l 1,18,-1
 84 0 l 1,19,-1
 104 0 l 1,20,-1
 104 328 l 1,21,22
 115 366 115 366 138 399 c 128,-1,23
 161 432 161 432 192 456 c 128,-1,24
 223 480 223 480 260 493.5 c 128,-1,25
 297 507 297 507 334 507 c 0,26,27
 404 507 404 507 435.5 455 c 128,-1,28
 467 403 467 403 467 289 c 2,29,-1
 467 -36 l 2,30,31
 467 -60 467 -60 457 -81 c 128,-1,32
 447 -102 447 -102 430.5 -117 c 128,-1,33
 414 -132 414 -132 394 -141 c 128,-1,34
 374 -150 374 -150 353 -150 c 256,35,36
 332 -150 332 -150 310 -145 c 128,-1,37
 288 -140 288 -140 270 -124 c 1,38,-1
 254 -136 l 1,39,40
 274 -156 274 -156 299.5 -163 c 128,-1,41
 325 -170 325 -170 354 -170 c 0,0,1
EndSplineSet
EndChar

StartChar: OE
Encoding: 338 338 273
Width: 1207
GlyphClass: 1
Flags: W
LayerCount: 2
Fore
SplineSet
709 20 m 1,0,-1
 709 353 l 1,1,-1
 1092 353 l 1,2,-1
 1092 373 l 1,3,-1
 709 373 l 1,4,-1
 709 690 l 1,5,-1
 1146 690 l 1,6,-1
 1146 710 l 1,7,-1
 689 710 l 1,8,-1
 689 475 l 1,9,10
 673 524 673 524 643.5 567.5 c 128,-1,11
 614 611 614 611 574 644 c 128,-1,12
 534 677 534 677 485 696 c 128,-1,13
 436 715 436 715 379 715 c 0,14,15
 309 715 309 715 248.5 685.5 c 128,-1,16
 188 656 188 656 143.5 606 c 128,-1,17
 99 556 99 556 73.5 491 c 128,-1,18
 48 426 48 426 48 355 c 0,19,20
 48 287 48 287 72.5 222 c 128,-1,21
 97 157 97 157 141 106.5 c 128,-1,22
 185 56 185 56 246 25.5 c 128,-1,23
 307 -5 307 -5 381 -5 c 0,24,25
 435 -5 435 -5 483.5 13.5 c 128,-1,26
 532 32 532 32 572 64.5 c 128,-1,27
 612 97 612 97 642 140.5 c 128,-1,28
 672 184 672 184 689 234 c 1,29,-1
 689 0 l 1,30,-1
 1155 0 l 1,31,-1
 1155 20 l 1,32,-1
 709 20 l 1,0,-1
379 15 m 0,33,34
 312 15 312 15 254.5 43 c 128,-1,35
 197 71 197 71 156 118.5 c 128,-1,36
 115 166 115 166 91.5 227.5 c 128,-1,37
 68 289 68 289 68 355 c 0,38,39
 68 418 68 418 90.5 479 c 128,-1,40
 113 540 113 540 154 588 c 128,-1,41
 195 636 195 636 252.5 665.5 c 128,-1,42
 310 695 310 695 379 695 c 0,43,44
 445 695 445 695 501.5 667 c 128,-1,45
 558 639 558 639 600 591.5 c 128,-1,46
 642 544 642 544 665.5 483 c 128,-1,47
 689 422 689 422 689 356 c 0,48,49
 689 293 689 293 666.5 231.5 c 128,-1,50
 644 170 644 170 603.5 122 c 128,-1,51
 563 74 563 74 505.5 44.5 c 128,-1,52
 448 15 448 15 379 15 c 0,33,34
EndSplineSet
EndChar

StartChar: oe
Encoding: 339 339 274
Width: 1050
GlyphClass: 1
Flags: W
LayerCount: 2
Fore
SplineSet
291 -10 m 0,0,1
 333 -10 333 -10 371 4 c 128,-1,2
 409 18 409 18 440.5 43.5 c 128,-1,3
 472 69 472 69 495 105 c 128,-1,4
 518 141 518 141 530 185 c 1,5,6
 542 143 542 143 566.5 107 c 128,-1,7
 591 71 591 71 624.5 45 c 128,-1,8
 658 19 658 19 697.5 4.5 c 128,-1,9
 737 -10 737 -10 779 -10 c 0,10,11
 812 -10 812 -10 844.5 -0.5 c 128,-1,12
 877 9 877 9 904.5 25.5 c 128,-1,13
 932 42 932 42 953.5 64.5 c 128,-1,14
 975 87 975 87 986 114 c 1,15,-1
 967 119 l 1,16,17
 957 95 957 95 938.5 75 c 128,-1,18
 920 55 920 55 895.5 40.5 c 128,-1,19
 871 26 871 26 841.5 18 c 128,-1,20
 812 10 812 10 781 10 c 0,21,22
 734 10 734 10 691.5 28.5 c 128,-1,23
 649 47 649 47 617 79 c 128,-1,24
 585 111 585 111 564.5 154.5 c 128,-1,25
 544 198 544 198 540 248 c 1,26,-1
 1015 248 l 1,27,28
 1015 251 1015 251 1014.5 253.5 c 128,-1,29
 1014 256 1014 256 1014 259 c 0,30,31
 1008 321 1008 321 988 370.5 c 128,-1,32
 968 420 968 420 936 455 c 128,-1,33
 904 490 904 490 861 508.5 c 128,-1,34
 818 527 818 527 766 527 c 0,35,36
 677 527 677 527 613 475 c 128,-1,37
 549 423 549 423 528 332 c 1,38,39
 517 376 517 376 495 412 c 128,-1,40
 473 448 473 448 442 473.5 c 128,-1,41
 411 499 411 499 373.5 513 c 128,-1,42
 336 527 336 527 295 527 c 0,43,44
 243 527 243 527 198 506 c 128,-1,45
 153 485 153 485 119 448 c 128,-1,46
 85 411 85 411 65.5 362 c 128,-1,47
 46 313 46 313 46 257 c 0,48,49
 46 202 46 202 65 153 c 128,-1,50
 84 104 84 104 117.5 68 c 128,-1,51
 151 32 151 32 195.5 11 c 128,-1,52
 240 -10 240 -10 291 -10 c 0,0,1
292 10 m 256,53,54
 245 10 245 10 204 29 c 128,-1,55
 163 48 163 48 132 81.5 c 128,-1,56
 101 115 101 115 83.5 159.5 c 128,-1,57
 66 204 66 204 66 255 c 0,58,59
 66 307 66 307 84 352.5 c 128,-1,60
 102 398 102 398 133 432.5 c 128,-1,61
 164 467 164 467 205.5 487 c 128,-1,62
 247 507 247 507 294 507 c 256,63,64
 341 507 341 507 382 487.5 c 128,-1,65
 423 468 423 468 453.5 434 c 128,-1,66
 484 400 484 400 502 354.5 c 128,-1,67
 520 309 520 309 520 258 c 256,68,69
 520 207 520 207 502 161.5 c 128,-1,70
 484 116 484 116 453 82.5 c 128,-1,71
 422 49 422 49 380.5 29.5 c 128,-1,72
 339 10 339 10 292 10 c 256,53,54
540 268 m 1,73,74
 543 319 543 319 561 363 c 128,-1,75
 579 407 579 407 609.5 439 c 128,-1,76
 640 471 640 471 680 489 c 128,-1,77
 720 507 720 507 766 507 c 256,78,79
 812 507 812 507 852 489 c 128,-1,80
 892 471 892 471 922.5 439.5 c 128,-1,81
 953 408 953 408 972 364 c 128,-1,82
 991 320 991 320 994 268 c 1,83,-1
 540 268 l 1,73,74
EndSplineSet
EndChar

StartChar: Tbar
Encoding: 358 358 293
Width: 640
GlyphClass: 1
Flags: W
LayerCount: 2
Fore
SplineSet
562 307 m 1,0,-1
 562 327 l 1,1,-1
 78 327 l 1,2,-1
 78 307 l 1,3,-1
 562 307 l 1,0,-1
602 710 m 1,4,-1
 38 710 l 1,5,-1
 38 690 l 1,6,-1
 310 690 l 1,7,-1
 310 0 l 1,8,-1
 330 0 l 1,9,-1
 330 690 l 1,10,-1
 602 690 l 1,11,-1
 602 710 l 1,4,-1
EndSplineSet
EndChar

StartChar: tbar
Encoding: 359 359 294
Width: 297
GlyphClass: 1
Flags: W
LayerCount: 2
Fore
SplineSet
237 299 m 1,0,-1
 237 319 l 1,1,-1
 27 319 l 1,2,-1
 27 299 l 1,3,-1
 237 299 l 1,0,-1
276 40 m 1,4,5
 275 39 275 39 268.5 35 c 128,-1,6
 262 31 262 31 250.5 26.5 c 128,-1,7
 239 22 239 22 224 18.5 c 128,-1,8
 209 15 209 15 192 15 c 0,9,10
 166 15 166 15 145 30.5 c 128,-1,11
 124 46 124 46 122 75 c 2,12,-1
 122 499 l 1,13,-1
 247 499 l 1,14,-1
 247 519 l 1,15,-1
 122 519 l 1,16,-1
 122 700 l 1,17,-1
 102 700 l 1,18,-1
 102 519 l 1,19,-1
 27 519 l 1,20,-1
 27 499 l 1,21,-1
 102 499 l 1,22,-1
 102 75 l 2,23,24
 102 57 102 57 109.5 42.5 c 128,-1,25
 117 28 117 28 129 17.5 c 128,-1,26
 141 7 141 7 157.5 1 c 128,-1,27
 174 -5 174 -5 192 -5 c 0,28,29
 213 -5 213 -5 230 -0.5 c 128,-1,30
 247 4 247 4 259.5 9 c 128,-1,31
 272 14 272 14 279.5 19 c 128,-1,32
 287 24 287 24 287 24 c 1,33,-1
 276 40 l 1,4,5
EndSplineSet
EndChar

StartChar: uni018F
Encoding: 399 399 318
Width: 739
GlyphClass: 1
Flags: W
LayerCount: 2
Fore
SplineSet
366 -10 m 0,0,1
 434 -10 434 -10 493 18 c 128,-1,2
 552 46 552 46 596 94 c 128,-1,3
 640 142 640 142 665.5 207 c 128,-1,4
 691 272 691 272 691 346 c 0,5,6
 691 422 691 422 664.5 489 c 128,-1,7
 638 556 638 556 593 606.5 c 128,-1,8
 548 657 548 657 487.5 686 c 128,-1,9
 427 715 427 715 359 715 c 0,10,11
 314 715 314 715 271 702.5 c 128,-1,12
 228 690 228 690 191.5 667.5 c 128,-1,13
 155 645 155 645 127.5 614.5 c 128,-1,14
 100 584 100 584 86 548 c 1,15,-1
 106 539 l 1,16,17
 120 574 120 574 146 603 c 128,-1,18
 172 632 172 632 206 652 c 128,-1,19
 240 672 240 672 278.5 683 c 128,-1,20
 317 694 317 694 357 694 c 0,21,22
 419 694 419 694 473.5 669 c 128,-1,23
 528 644 528 644 570 599.5 c 128,-1,24
 612 555 612 555 638 494 c 128,-1,25
 664 433 664 433 669 362 c 1,26,-1
 33 362 l 1,27,28
 33 360 33 360 33 357.5 c 128,-1,29
 33 355 33 355 33 352 c 0,30,31
 33 277 33 277 58.5 211 c 128,-1,32
 84 145 84 145 128.5 96 c 128,-1,33
 173 47 173 47 234 18.5 c 128,-1,34
 295 -10 295 -10 366 -10 c 0,0,1
364 12 m 0,35,36
 301 12 301 12 247 36.5 c 128,-1,37
 193 61 193 61 152 104.5 c 128,-1,38
 111 148 111 148 86 208 c 128,-1,39
 61 268 61 268 56 340 c 1,40,-1
 669 340 l 1,41,42
 666 270 666 270 641 209.5 c 128,-1,43
 616 149 616 149 575.5 105.5 c 128,-1,44
 535 62 535 62 480.5 37 c 128,-1,45
 426 12 426 12 364 12 c 0,35,36
EndSplineSet
EndChar

StartChar: florin
Encoding: 402 402 319
Width: 508
GlyphClass: 1
Flags: W
LayerCount: 2
Fore
SplineSet
130 -170 m 0,0,1
 153 -170 153 -170 177 -160 c 128,-1,2
 201 -150 201 -150 220 -132 c 128,-1,3
 239 -114 239 -114 251 -89.5 c 128,-1,4
 263 -65 263 -65 263 -36 c 2,5,-1
 263 438 l 1,6,-1
 418 438 l 1,7,-1
 418 458 l 1,8,-1
 263 458 l 1,9,-1
 263 540 l 2,10,11
 263 628 263 628 293.5 674.5 c 128,-1,12
 324 721 324 721 381 721 c 0,13,14
 404 721 404 721 425.5 713.5 c 128,-1,15
 447 706 447 706 459 694 c 1,16,-1
 475 706 l 1,17,18
 461 721 461 721 435 730.5 c 128,-1,19
 409 740 409 740 380 740 c 0,20,21
 348 740 348 740 322.5 726.5 c 128,-1,22
 297 713 297 713 279.5 687.5 c 128,-1,23
 262 662 262 662 252.5 624.5 c 128,-1,24
 243 587 243 587 243 540 c 2,25,-1
 243 458 l 1,26,-1
 168 458 l 1,27,-1
 168 438 l 1,28,-1
 243 438 l 1,29,-1
 243 -36 l 2,30,31
 243 -60 243 -60 233 -81 c 128,-1,32
 223 -102 223 -102 206.5 -117 c 128,-1,33
 190 -132 190 -132 170 -141 c 128,-1,34
 150 -150 150 -150 129 -150 c 256,35,36
 108 -150 108 -150 86 -145 c 128,-1,37
 64 -140 64 -140 46 -124 c 1,38,-1
 30 -136 l 1,39,40
 50 -156 50 -156 75.5 -163 c 128,-1,41
 101 -170 101 -170 130 -170 c 0,0,1
EndSplineSet
EndChar

StartChar: Aringacute
Encoding: 506 506 328
Width: 674
GlyphClass: 1
Flags: W
LayerCount: 2
Fore
SplineSet
18 0 m 1,0,-1
 40 0 l 1,1,-1
 151 254 l 1,2,-1
 522 254 l 1,3,-1
 633 0 l 1,4,-1
 655 0 l 1,5,-1
 346 710 l 1,6,-1
 328 710 l 1,7,-1
 18 0 l 1,0,-1
159 274 m 1,8,-1
 337 681 l 1,9,-1
 513 274 l 1,10,-1
 159 274 l 1,8,-1
262 784 m 256,11,12
 262 752 262 752 283.5 730.5 c 128,-1,13
 305 709 305 709 337 709 c 256,14,15
 369 709 369 709 390.5 730.5 c 128,-1,16
 412 752 412 752 412 784 c 256,17,18
 412 816 412 816 390.5 837.5 c 128,-1,19
 369 859 369 859 337 859 c 256,20,21
 305 859 305 859 283.5 837.5 c 128,-1,22
 262 816 262 816 262 784 c 256,11,12
337 838 m 256,23,24
 359 838 359 838 375 823.5 c 128,-1,25
 391 809 391 809 391 784 c 0,26,27
 391 760 391 760 374 745 c 128,-1,28
 357 730 357 730 337 730 c 0,29,30
 314 730 314 730 298.5 745.5 c 128,-1,31
 283 761 283 761 283 784 c 0,32,33
 283 809 283 809 299 823.5 c 128,-1,34
 315 838 315 838 337 838 c 256,23,24
469 1000 m 1,35,-1
 435 1000 l 1,36,-1
 325 840 l 1,37,-1
 344 840 l 1,38,-1
 469 1000 l 1,35,-1
EndSplineSet
EndChar

StartChar: uni0237
Encoding: 567 567 370
Width: 188
GlyphClass: 1
Flags: W
LayerCount: 2
Fore
SplineSet
-29 -170 m 0,0,1
 -6 -170 -6 -170 18 -160 c 128,-1,2
 42 -150 42 -150 61 -132 c 128,-1,3
 80 -114 80 -114 92 -89.5 c 128,-1,4
 104 -65 104 -65 104 -36 c 2,5,-1
 104 519 l 1,6,-1
 84 519 l 1,7,-1
 84 -36 l 2,8,9
 84 -60 84 -60 74 -81 c 128,-1,10
 64 -102 64 -102 47.5 -117 c 128,-1,11
 31 -132 31 -132 11 -141 c 128,-1,12
 -9 -150 -9 -150 -30 -150 c 256,13,14
 -51 -150 -51 -150 -73 -145 c 128,-1,15
 -95 -140 -95 -140 -113 -124 c 1,16,-1
 -129 -136 l 1,17,18
 -109 -156 -109 -156 -83.5 -163 c 128,-1,19
 -58 -170 -58 -170 -29 -170 c 0,0,1
EndSplineSet
EndChar

StartChar: uni0259
Encoding: 601 601 371
Width: 576
GlyphClass: 1
Flags: W
LayerCount: 2
Fore
SplineSet
285 -10 m 0,0,1
 336 -10 336 -10 380.5 10.5 c 128,-1,2
 425 31 425 31 458.5 67 c 128,-1,3
 492 103 492 103 511 151 c 128,-1,4
 530 199 530 199 530 254 c 0,5,6
 530 310 530 310 510 359.5 c 128,-1,7
 490 409 490 409 456 446.5 c 128,-1,8
 422 484 422 484 376.5 505.5 c 128,-1,9
 331 527 331 527 280 527 c 0,10,11
 246 527 246 527 213.5 517.5 c 128,-1,12
 181 508 181 508 153.5 491.5 c 128,-1,13
 126 475 126 475 105.5 452.5 c 128,-1,14
 85 430 85 430 74 403 c 1,15,-1
 93 398 l 1,16,17
 104 422 104 422 123 442 c 128,-1,18
 142 462 142 462 167 476.5 c 128,-1,19
 192 491 192 491 220.5 499 c 128,-1,20
 249 507 249 507 279 507 c 0,21,22
 324 507 324 507 364.5 488.5 c 128,-1,23
 405 470 405 470 436 438 c 128,-1,24
 467 406 467 406 486.5 362.5 c 128,-1,25
 506 319 506 319 510 269 c 1,26,-1
 35 269 l 1,27,28
 35 266 35 266 35 263.5 c 128,-1,29
 35 261 35 261 35 258 c 0,30,31
 35 202 35 202 55 153 c 128,-1,32
 75 104 75 104 108.5 68 c 128,-1,33
 142 32 142 32 187.5 11 c 128,-1,34
 233 -10 233 -10 285 -10 c 0,0,1
284 10 m 256,35,36
 238 10 238 10 198 28 c 128,-1,37
 158 46 158 46 127.5 77.5 c 128,-1,38
 97 109 97 109 78 153 c 128,-1,39
 59 197 59 197 56 249 c 1,40,-1
 510 249 l 1,41,42
 507 198 507 198 489 154 c 128,-1,43
 471 110 471 110 440.5 78 c 128,-1,44
 410 46 410 46 370 28 c 128,-1,45
 330 10 330 10 284 10 c 256,35,36
EndSplineSet
EndChar

StartChar: uni02BE
Encoding: 702 702 376
Width: 163
GlyphClass: 1
Flags: W
LayerCount: 2
Fore
SplineSet
44 606 m 1,0,1
 76 606 76 606 97.5 627.5 c 128,-1,2
 119 649 119 649 119 681 c 256,3,4
 119 713 119 713 97.5 734.5 c 128,-1,5
 76 756 76 756 44 756 c 1,6,-1
 44 735 l 1,7,8
 67 735 67 735 82.5 720.5 c 128,-1,9
 98 706 98 706 98 681 c 0,10,11
 98 657 98 657 81 642 c 128,-1,12
 64 627 64 627 44 627 c 1,13,-1
 44 606 l 1,0,1
EndSplineSet
EndChar

StartChar: uni02BF
Encoding: 703 703 377
Width: 163
GlyphClass: 1
Flags: W
LayerCount: 2
Fore
SplineSet
119 627 m 1,0,1
 96 627 96 627 80.5 642.5 c 128,-1,2
 65 658 65 658 65 681 c 0,3,4
 65 706 65 706 81 720.5 c 128,-1,5
 97 735 97 735 119 735 c 1,6,-1
 119 756 l 1,7,8
 87 756 87 756 65.5 734.5 c 128,-1,9
 44 713 44 713 44 681 c 256,10,11
 44 649 44 649 65.5 627.5 c 128,-1,12
 87 606 87 606 119 606 c 1,13,-1
 119 627 l 1,0,1
EndSplineSet
EndChar

StartChar: uni02C8
Encoding: 712 712 380
Width: 214
GlyphClass: 1
Flags: W
LayerCount: 2
Fore
SplineSet
97 775 m 1,0,-1
 97 360 l 1,1,-1
 117 360 l 1,2,-1
 117 775 l 1,3,-1
 97 775 l 1,0,-1
EndSplineSet
EndChar

StartChar: uni02C9
Encoding: 713 713 381
Width: 380
GlyphClass: 1
Flags: W
LayerCount: 2
Fore
SplineSet
330 686 m 1,0,-1
 330 706 l 1,1,-1
 50 706 l 1,2,-1
 50 686 l 1,3,-1
 330 686 l 1,0,-1
EndSplineSet
EndChar

StartChar: uni02CA
Encoding: 714 714 382
Width: 166
GlyphClass: 1
Flags: W
LayerCount: 2
Fore
SplineSet
84 569 m 1,0,-1
 93 710 l 1,1,-1
 73 710 l 1,2,-1
 73 569 l 1,3,-1
 84 569 l 1,0,-1
EndSplineSet
EndChar

StartChar: uni02CB
Encoding: 715 715 383
Width: 166
GlyphClass: 1
Flags: W
LayerCount: 2
Fore
SplineSet
93 569 m 1,0,-1
 93 710 l 1,1,-1
 73 710 l 1,2,-1
 82 569 l 1,3,-1
 93 569 l 1,0,-1
EndSplineSet
EndChar

StartChar: uni02CC
Encoding: 716 716 384
Width: 214
GlyphClass: 1
Flags: W
LayerCount: 2
Fore
SplineSet
97 285 m 1,0,-1
 97 -130 l 1,1,-1
 117 -130 l 1,2,-1
 117 285 l 1,3,-1
 97 285 l 1,0,-1
EndSplineSet
EndChar

StartChar: tilde
Encoding: 732 732 389
Width: 383
GlyphClass: 1
Flags: W
LayerCount: 2
Fore
SplineSet
249 663 m 0,0,1
 276 663 276 663 292.5 672 c 128,-1,2
 309 681 309 681 317 693 c 128,-1,3
 325 705 325 705 327.5 716 c 128,-1,4
 330 727 330 727 330 730 c 1,5,-1
 310 730 l 1,6,7
 310 729 310 729 308.5 721 c 128,-1,8
 307 713 307 713 301 704.5 c 128,-1,9
 295 696 295 696 283.5 689 c 128,-1,10
 272 682 272 682 251 682 c 0,11,12
 232 682 232 682 217.5 688 c 128,-1,13
 203 694 203 694 189 701 c 128,-1,14
 175 708 175 708 160.5 714 c 128,-1,15
 146 720 146 720 126 720 c 0,16,17
 101 720 101 720 86.5 710.5 c 128,-1,18
 72 701 72 701 64.5 689 c 128,-1,19
 57 677 57 677 55 666 c 128,-1,20
 53 655 53 655 53 653 c 1,21,-1
 73 653 l 1,22,23
 73 655 73 655 75 663 c 128,-1,24
 77 671 77 671 82.5 679.5 c 128,-1,25
 88 688 88 688 98 694.5 c 128,-1,26
 108 701 108 701 124 701 c 0,27,28
 139 701 139 701 152.5 695 c 128,-1,29
 166 689 166 689 180 682 c 128,-1,30
 194 675 194 675 210.5 669 c 128,-1,31
 227 663 227 663 249 663 c 0,0,1
EndSplineSet
EndChar

StartChar: gravecomb
Encoding: 768 768 391
Width: 198
GlyphClass: 1
Flags: W
LayerCount: 2
Fore
SplineSet
35 760 m 1,0,-1
 160 600 l 1,1,-1
 179 600 l 1,2,-1
 69 760 l 1,3,-1
 35 760 l 1,0,-1
EndSplineSet
EndChar

StartChar: acutecomb
Encoding: 769 769 392
Width: 198
GlyphClass: 1
Flags: W
LayerCount: 2
Fore
SplineSet
179 760 m 1,0,-1
 145 760 l 1,1,-1
 35 600 l 1,2,-1
 54 600 l 1,3,-1
 179 760 l 1,0,-1
EndSplineSet
EndChar

StartChar: uni0302
Encoding: 770 770 393
Width: 302
GlyphClass: 1
Flags: W
LayerCount: 2
Fore
SplineSet
15 600 m 1,0,-1
 34 600 l 1,1,-1
 148 700 l 1,2,-1
 262 600 l 1,3,-1
 281 600 l 1,4,-1
 166 720 l 1,5,-1
 130 720 l 1,6,-1
 15 600 l 1,0,-1
EndSplineSet
EndChar

StartChar: tildecomb
Encoding: 771 771 394
Width: 477
GlyphClass: 1
Flags: W
LayerCount: 2
Fore
SplineSet
296 663 m 0,0,1
 323 663 323 663 339.5 672 c 128,-1,2
 356 681 356 681 364 693 c 128,-1,3
 372 705 372 705 374.5 716 c 128,-1,4
 377 727 377 727 377 730 c 1,5,-1
 357 730 l 1,6,7
 357 729 357 729 355.5 721 c 128,-1,8
 354 713 354 713 348 704.5 c 128,-1,9
 342 696 342 696 330.5 689 c 128,-1,10
 319 682 319 682 298 682 c 0,11,12
 279 682 279 682 264.5 688 c 128,-1,13
 250 694 250 694 236 701 c 128,-1,14
 222 708 222 708 207.5 714 c 128,-1,15
 193 720 193 720 173 720 c 0,16,17
 148 720 148 720 133.5 710.5 c 128,-1,18
 119 701 119 701 111.5 689 c 128,-1,19
 104 677 104 677 102 666 c 128,-1,20
 100 655 100 655 100 653 c 1,21,-1
 120 653 l 1,22,23
 120 655 120 655 122 663 c 128,-1,24
 124 671 124 671 129.5 679.5 c 128,-1,25
 135 688 135 688 145 694.5 c 128,-1,26
 155 701 155 701 171 701 c 0,27,28
 186 701 186 701 199.5 695 c 128,-1,29
 213 689 213 689 227 682 c 128,-1,30
 241 675 241 675 257.5 669 c 128,-1,31
 274 663 274 663 296 663 c 0,0,1
EndSplineSet
EndChar

StartChar: uni0304
Encoding: 772 772 395
Width: 380
GlyphClass: 1
Flags: W
LayerCount: 2
Fore
SplineSet
330 686 m 1,0,-1
 330 706 l 1,1,-1
 50 706 l 1,2,-1
 50 686 l 1,3,-1
 330 686 l 1,0,-1
EndSplineSet
EndChar

StartChar: uni0306
Encoding: 774 774 396
Width: 248
GlyphClass: 1
Flags: W
LayerCount: 2
Fore
SplineSet
124 670 m 0,0,1
 103 670 103 670 86 688.5 c 128,-1,2
 69 707 69 707 69 730 c 1,3,-1
 50 730 l 1,4,5
 50 715 50 715 56 701 c 128,-1,6
 62 687 62 687 72.5 676.5 c 128,-1,7
 83 666 83 666 96 659.5 c 128,-1,8
 109 653 109 653 124 653 c 256,9,10
 139 653 139 653 152 659.5 c 128,-1,11
 165 666 165 666 175.5 676.5 c 128,-1,12
 186 687 186 687 192 701 c 128,-1,13
 198 715 198 715 198 730 c 1,14,-1
 180 730 l 1,15,16
 177 705 177 705 160.5 687.5 c 128,-1,17
 144 670 144 670 124 670 c 0,0,1
EndSplineSet
EndChar

StartChar: uni0307
Encoding: 775 775 397
Width: 120
GlyphClass: 1
Flags: W
LayerCount: 2
Fore
SplineSet
26 689 m 256,0,1
 26 675 26 675 36 665 c 128,-1,2
 46 655 46 655 60 655 c 256,3,4
 74 655 74 655 84 665 c 128,-1,5
 94 675 94 675 94 689 c 256,6,7
 94 703 94 703 84 712.5 c 128,-1,8
 74 722 74 722 60 722 c 256,9,10
 46 722 46 722 36 712.5 c 128,-1,11
 26 703 26 703 26 689 c 256,0,1
EndSplineSet
EndChar

StartChar: uni0308
Encoding: 776 776 398
Width: 236
GlyphClass: 1
Flags: W
LayerCount: 2
Fore
SplineSet
6 689 m 256,0,1
 6 675 6 675 16 665 c 128,-1,2
 26 655 26 655 40 655 c 256,3,4
 54 655 54 655 64 665 c 128,-1,5
 74 675 74 675 74 689 c 256,6,7
 74 703 74 703 64 712.5 c 128,-1,8
 54 722 54 722 40 722 c 256,9,10
 26 722 26 722 16 712.5 c 128,-1,11
 6 703 6 703 6 689 c 256,0,1
160 689 m 256,12,13
 160 675 160 675 170 665 c 128,-1,14
 180 655 180 655 194 655 c 256,15,16
 208 655 208 655 218 665 c 128,-1,17
 228 675 228 675 228 689 c 256,18,19
 228 703 228 703 218 712.5 c 128,-1,20
 208 722 208 722 194 722 c 256,21,22
 180 722 180 722 170 712.5 c 128,-1,23
 160 703 160 703 160 689 c 256,12,13
EndSplineSet
EndChar

StartChar: hookabovecomb
Encoding: 777 777 399
Width: 600
GlyphClass: 1
Flags: W
LayerCount: 2
Fore
SplineSet
250 682 m 1,0,1
 265 695 265 695 274.5 701 c 128,-1,2
 284 707 284 707 298 707 c 0,3,4
 320 707 320 707 329.5 695.5 c 128,-1,5
 339 684 339 684 339 668 c 0,6,7
 339 656 339 656 330 643 c 128,-1,8
 321 630 321 630 305 612 c 1,9,-1
 317 601 l 1,10,11
 334 621 334 621 345.5 634.5 c 128,-1,12
 357 648 357 648 357 668 c 0,13,14
 357 695 357 695 340.5 710 c 128,-1,15
 324 725 324 725 300 725 c 0,16,17
 280 725 280 725 267 717 c 128,-1,18
 254 709 254 709 238 695 c 1,19,-1
 250 682 l 1,0,1
EndSplineSet
EndChar

StartChar: uni030A
Encoding: 778 778 400
Width: 238
GlyphClass: 1
Flags: W
LayerCount: 2
Fore
SplineSet
44 681 m 256,0,1
 44 649 44 649 65.5 627.5 c 128,-1,2
 87 606 87 606 119 606 c 256,3,4
 151 606 151 606 172.5 627.5 c 128,-1,5
 194 649 194 649 194 681 c 256,6,7
 194 713 194 713 172.5 734.5 c 128,-1,8
 151 756 151 756 119 756 c 256,9,10
 87 756 87 756 65.5 734.5 c 128,-1,11
 44 713 44 713 44 681 c 256,0,1
119 735 m 256,12,13
 141 735 141 735 157 720.5 c 128,-1,14
 173 706 173 706 173 681 c 0,15,16
 173 657 173 657 156 642 c 128,-1,17
 139 627 139 627 119 627 c 0,18,19
 96 627 96 627 80.5 642.5 c 128,-1,20
 65 658 65 658 65 681 c 0,21,22
 65 706 65 706 81 720.5 c 128,-1,23
 97 735 97 735 119 735 c 256,12,13
EndSplineSet
EndChar

StartChar: uni030C
Encoding: 780 780 402
Width: 302
GlyphClass: 1
Flags: W
LayerCount: 2
Fore
SplineSet
15 720 m 1,0,-1
 130 600 l 1,1,-1
 166 600 l 1,2,-1
 281 720 l 1,3,-1
 262 720 l 1,4,-1
 148 620 l 1,5,-1
 34 720 l 1,6,-1
 15 720 l 1,0,-1
EndSplineSet
EndChar

StartChar: uni0311
Encoding: 785 785 404
Width: 248
GlyphClass: 1
Flags: W
LayerCount: 2
Fore
SplineSet
124 713 m 0,0,1
 144 713 144 713 160.5 695.5 c 128,-1,2
 177 678 177 678 180 653 c 1,3,-1
 198 653 l 1,4,5
 198 668 198 668 192 682 c 128,-1,6
 186 696 186 696 175.5 706.5 c 128,-1,7
 165 717 165 717 152 723.5 c 128,-1,8
 139 730 139 730 124 730 c 256,9,10
 109 730 109 730 96 723.5 c 128,-1,11
 83 717 83 717 72.5 706.5 c 128,-1,12
 62 696 62 696 56 682 c 128,-1,13
 50 668 50 668 50 653 c 1,14,-1
 69 653 l 1,15,16
 69 676 69 676 86 694.5 c 128,-1,17
 103 713 103 713 124 713 c 0,0,1
EndSplineSet
EndChar

StartChar: uni0312
Encoding: 786 786 405
Width: 120
GlyphClass: 1
Flags: W
LayerCount: 2
Fore
SplineSet
33 613 m 1,0,-1
 67 613 l 1,1,-1
 146 728 l 1,2,-1
 127 728 l 1,3,-1
 33 613 l 1,0,-1
EndSplineSet
EndChar

StartChar: uni031B
Encoding: 795 795 406
Width: 219
GlyphClass: 1
Flags: W
LayerCount: 2
Fore
SplineSet
50 537 m 1,0,1
 65 537 65 537 80 539 c 128,-1,2
 95 541 95 541 107.5 545 c 128,-1,3
 120 549 120 549 130.5 554.5 c 128,-1,4
 141 560 141 560 147 567 c 0,5,6
 154 575 154 575 157.5 582.5 c 128,-1,7
 161 590 161 590 163.5 598 c 128,-1,8
 166 606 166 606 167 616.5 c 128,-1,9
 168 627 168 627 169 641 c 1,10,-1
 147 641 l 1,11,12
 146 618 146 618 142.5 603.5 c 128,-1,13
 139 589 139 589 131 580 c 0,14,15
 121 569 121 569 98.5 563 c 128,-1,16
 76 557 76 557 50 557 c 1,17,-1
 50 537 l 1,0,1
EndSplineSet
EndChar

StartChar: dotbelowcomb
Encoding: 803 803 407
Width: 120
GlyphClass: 1
Flags: W
LayerCount: 2
Fore
SplineSet
26 -91 m 256,0,1
 26 -105 26 -105 36 -115 c 128,-1,2
 46 -125 46 -125 60 -125 c 256,3,4
 74 -125 74 -125 84 -115 c 128,-1,5
 94 -105 94 -105 94 -91 c 256,6,7
 94 -77 94 -77 84 -67.5 c 128,-1,8
 74 -58 74 -58 60 -58 c 256,9,10
 46 -58 46 -58 36 -67.5 c 128,-1,11
 26 -77 26 -77 26 -91 c 256,0,1
EndSplineSet
EndChar

StartChar: uni0324
Encoding: 804 804 408
Width: 236
GlyphClass: 1
Flags: W
LayerCount: 2
Fore
SplineSet
27 -90 m 256,0,1
 27 -104 27 -104 37 -114 c 128,-1,2
 47 -124 47 -124 61 -124 c 256,3,4
 75 -124 75 -124 85 -114 c 128,-1,5
 95 -104 95 -104 95 -90 c 256,6,7
 95 -76 95 -76 85 -66.5 c 128,-1,8
 75 -57 75 -57 61 -57 c 256,9,10
 47 -57 47 -57 37 -66.5 c 128,-1,11
 27 -76 27 -76 27 -90 c 256,0,1
141 -90 m 256,12,13
 141 -104 141 -104 151 -114 c 128,-1,14
 161 -124 161 -124 175 -124 c 256,15,16
 189 -124 189 -124 199 -114 c 128,-1,17
 209 -104 209 -104 209 -90 c 256,18,19
 209 -76 209 -76 199 -66.5 c 128,-1,20
 189 -57 189 -57 175 -57 c 256,21,22
 161 -57 161 -57 151 -66.5 c 128,-1,23
 141 -76 141 -76 141 -90 c 256,12,13
EndSplineSet
EndChar

StartChar: uni0326
Encoding: 806 806 409
Width: 120
GlyphClass: 1
Flags: W
LayerCount: 2
Fore
SplineSet
55 -196 m 1,0,-1
 88 -51 l 1,1,-1
 52 -51 l 1,2,-1
 31 -196 l 1,3,-1
 55 -196 l 1,0,-1
EndSplineSet
EndChar

StartChar: uni0327
Encoding: 807 807 410
Width: 252
GlyphClass: 1
Flags: W
LayerCount: 2
Fore
SplineSet
53 -146 m 1,0,1
 74 -155 74 -155 99 -160 c 128,-1,2
 124 -165 124 -165 147 -165 c 0,3,4
 162 -165 162 -165 176.5 -162.5 c 128,-1,5
 191 -160 191 -160 202.5 -154 c 128,-1,6
 214 -148 214 -148 221 -137 c 128,-1,7
 228 -126 228 -126 228 -108 c 0,8,9
 228 -77 228 -77 208 -65.5 c 128,-1,10
 188 -54 188 -54 160 -54 c 0,11,12
 149 -54 149 -54 138.5 -55 c 128,-1,13
 128 -56 128 -56 118 -60 c 1,14,-1
 151 -3 l 1,15,16
 149 -2 149 -2 146.5 -0.5 c 128,-1,17
 144 1 144 1 142 2.5 c 128,-1,18
 140 4 140 4 137.5 5.5 c 128,-1,19
 135 7 135 7 133 8 c 2,20,-1
 79 -86 l 1,21,22
 99 -79 99 -79 119 -74.5 c 128,-1,23
 139 -70 139 -70 160 -70 c 0,24,25
 180 -70 180 -70 194 -77.5 c 128,-1,26
 208 -85 208 -85 208 -108 c 0,27,28
 208 -120 208 -120 202.5 -127.5 c 128,-1,29
 197 -135 197 -135 188.5 -139 c 128,-1,30
 180 -143 180 -143 170 -144.5 c 128,-1,31
 160 -146 160 -146 150 -146 c 0,32,33
 127 -146 127 -146 105 -142 c 128,-1,34
 83 -138 83 -138 63 -128 c 1,35,36
 62 -130 62 -130 60.5 -132.5 c 128,-1,37
 59 -135 59 -135 58 -137 c 128,-1,38
 57 -139 57 -139 55.5 -141.5 c 128,-1,39
 54 -144 54 -144 53 -146 c 1,0,1
EndSplineSet
EndChar

StartChar: uni0328
Encoding: 808 808 411
Width: 203
GlyphClass: 1
Flags: W
LayerCount: 2
Fore
SplineSet
52 -100 m 0,0,1
 52 -112 52 -112 56.5 -122 c 128,-1,2
 61 -132 61 -132 70.5 -140 c 128,-1,3
 80 -148 80 -148 95.5 -154 c 128,-1,4
 111 -160 111 -160 133 -164 c 1,5,-1
 145 -147 l 1,6,7
 104 -138 104 -138 88.5 -127 c 128,-1,8
 73 -116 73 -116 73 -97 c 0,9,10
 73 -76 73 -76 90.5 -54 c 128,-1,11
 108 -32 108 -32 149 0 c 1,12,-1
 139 12 l 1,13,-1
 134 12 l 1,14,15
 94 -20 94 -20 73 -46.5 c 128,-1,16
 52 -73 52 -73 52 -100 c 0,0,1
EndSplineSet
EndChar

StartChar: uni032E
Encoding: 814 814 412
Width: 248
GlyphClass: 1
Flags: W
LayerCount: 2
Fore
SplineSet
124 -102 m 0,0,1
 103 -102 103 -102 86 -83.5 c 128,-1,2
 69 -65 69 -65 69 -42 c 1,3,-1
 50 -42 l 1,4,5
 50 -57 50 -57 56 -71 c 128,-1,6
 62 -85 62 -85 72.5 -95.5 c 128,-1,7
 83 -106 83 -106 96 -112.5 c 128,-1,8
 109 -119 109 -119 124 -119 c 256,9,10
 139 -119 139 -119 152 -112.5 c 128,-1,11
 165 -106 165 -106 175.5 -95.5 c 128,-1,12
 186 -85 186 -85 192 -71 c 128,-1,13
 198 -57 198 -57 198 -42 c 1,14,-1
 180 -42 l 1,15,16
 177 -67 177 -67 160.5 -84.5 c 128,-1,17
 144 -102 144 -102 124 -102 c 0,0,1
EndSplineSet
EndChar

StartChar: uni0331
Encoding: 817 817 413
Width: 380
GlyphClass: 1
Flags: W
LayerCount: 2
Fore
SplineSet
330 -95 m 1,0,-1
 330 -75 l 1,1,-1
 50 -75 l 1,2,-1
 50 -95 l 1,3,-1
 330 -95 l 1,0,-1
EndSplineSet
EndChar

StartChar: uni0335
Encoding: 821 821 414
Width: 310
GlyphClass: 1
Flags: W
LayerCount: 2
Fore
SplineSet
260 299 m 1,0,-1
 260 319 l 1,1,-1
 50 319 l 1,2,-1
 50 299 l 1,3,-1
 260 299 l 1,0,-1
EndSplineSet
EndChar

StartChar: tonos
Encoding: 900 900 416
Width: 129
GlyphClass: 1
Flags: W
LayerCount: 2
Fore
SplineSet
66 767 m 1,0,-1
 42 576 l 1,1,-1
 66 572 l 1,2,-1
 87 765 l 1,3,-1
 66 767 l 1,0,-1
EndSplineSet
EndChar

StartChar: dieresistonos
Encoding: 901 901 417
Width: 288
GlyphClass: 1
Flags: W
LayerCount: 2
Fore
SplineSet
-3 637 m 0,0,1
 -3 622 -3 622 8 610 c 128,-1,2
 19 598 19 598 36 598 c 256,3,4
 53 598 53 598 62.5 610 c 128,-1,5
 72 622 72 622 72 637 c 0,6,7
 72 654 72 654 62.5 663.5 c 128,-1,8
 53 673 53 673 36 673 c 256,9,10
 19 673 19 673 8 663.5 c 128,-1,11
 -3 654 -3 654 -3 637 c 0,0,1
215 637 m 0,12,13
 215 622 215 622 227 610 c 128,-1,14
 239 598 239 598 254 598 c 0,15,16
 271 598 271 598 280.5 610 c 128,-1,17
 290 622 290 622 290 637 c 0,18,19
 290 654 290 654 280.5 663.5 c 128,-1,20
 271 673 271 673 254 673 c 0,21,22
 239 673 239 673 227 663.5 c 128,-1,23
 215 654 215 654 215 637 c 0,12,13
150 788 m 1,24,-1
 126 597 l 1,25,-1
 150 593 l 1,26,-1
 171 786 l 1,27,-1
 150 788 l 1,24,-1
EndSplineSet
EndChar

StartChar: Alphatonos
Encoding: 902 902 418
Width: 663
GlyphClass: 1
Flags: W
LayerCount: 2
Fore
SplineSet
18 0 m 1,0,-1
 40 0 l 1,1,-1
 151 254 l 1,2,-1
 522 254 l 1,3,-1
 633 0 l 1,4,-1
 655 0 l 1,5,-1
 346 710 l 1,6,-1
 328 710 l 1,7,-1
 18 0 l 1,0,-1
159 274 m 1,8,-1
 337 681 l 1,9,-1
 513 274 l 1,10,-1
 159 274 l 1,8,-1
279 840 m 1,11,-1
 175 644 l 1,12,-1
 188 630 l 1,13,-1
 298 825 l 1,14,-1
 279 840 l 1,11,-1
EndSplineSet
EndChar

StartChar: Epsilontonos
Encoding: 904 904 420
Width: 609
GlyphClass: 1
Flags: W
LayerCount: 2
Fore
SplineSet
111 20 m 1,0,-1
 111 353 l 1,1,-1
 494 353 l 1,2,-1
 494 373 l 1,3,-1
 111 373 l 1,4,-1
 111 690 l 1,5,-1
 548 690 l 1,6,-1
 548 710 l 1,7,-1
 91 710 l 1,8,-1
 91 0 l 1,9,-1
 557 0 l 1,10,-1
 557 20 l 1,11,-1
 111 20 l 1,0,-1
121 931 m 1,12,-1
 17 735 l 1,13,-1
 30 721 l 1,14,-1
 140 916 l 1,15,-1
 121 931 l 1,12,-1
EndSplineSet
EndChar

StartChar: Etatonos
Encoding: 905 905 421
Width: 671
GlyphClass: 1
Flags: W
LayerCount: 2
Fore
SplineSet
604 710 m 1,0,-1
 604 373 l 1,1,-1
 111 373 l 1,2,-1
 111 710 l 1,3,-1
 91 710 l 1,4,-1
 91 0 l 1,5,-1
 111 0 l 1,6,-1
 111 353 l 1,7,-1
 604 353 l 1,8,-1
 604 0 l 1,9,-1
 624 0 l 1,10,-1
 624 710 l 1,11,-1
 604 710 l 1,0,-1
84 836 m 1,12,-1
 -20 640 l 1,13,-1
 -7 626 l 1,14,-1
 103 821 l 1,15,-1
 84 836 l 1,12,-1
EndSplineSet
EndChar

StartChar: Iotatonos
Encoding: 906 906 422
Width: 224
GlyphClass: 1
Flags: W
LayerCount: 2
Fore
SplineSet
112 0 m 1,0,-1
 112 710 l 1,1,-1
 92 710 l 1,2,-1
 92 0 l 1,3,-1
 112 0 l 1,0,-1
92 831 m 1,4,-1
 -12 635 l 1,5,-1
 1 621 l 1,6,-1
 111 816 l 1,7,-1
 92 831 l 1,4,-1
EndSplineSet
EndChar

StartChar: Omicrontonos
Encoding: 908 908 423
Width: 791
GlyphClass: 1
Flags: W
LayerCount: 2
Fore
SplineSet
375 -5 m 0,0,1
 445 -5 445 -5 505 24.5 c 128,-1,2
 565 54 565 54 609.5 103.5 c 128,-1,3
 654 153 654 153 679.5 218 c 128,-1,4
 705 283 705 283 705 355 c 0,5,6
 705 421 705 421 681 485.5 c 128,-1,7
 657 550 657 550 613.5 601 c 128,-1,8
 570 652 570 652 509.5 683.5 c 128,-1,9
 449 715 449 715 375 715 c 0,10,11
 305 715 305 715 244.5 685.5 c 128,-1,12
 184 656 184 656 139.5 606 c 128,-1,13
 95 556 95 556 69.5 491 c 128,-1,14
 44 426 44 426 44 355 c 0,15,16
 44 287 44 287 68 222 c 128,-1,17
 92 157 92 157 136 107 c 128,-1,18
 180 57 180 57 241 26 c 128,-1,19
 302 -5 302 -5 375 -5 c 0,0,1
64 355 m 0,20,21
 64 418 64 418 86.5 479 c 128,-1,22
 109 540 109 540 150 588 c 128,-1,23
 191 636 191 636 248.5 665.5 c 128,-1,24
 306 695 306 695 375 695 c 0,25,26
 441 695 441 695 497.5 667 c 128,-1,27
 554 639 554 639 596 591.5 c 128,-1,28
 638 544 638 544 661.5 482.5 c 128,-1,29
 685 421 685 421 685 355 c 0,30,31
 685 292 685 292 662.5 231 c 128,-1,32
 640 170 640 170 599.5 122 c 128,-1,33
 559 74 559 74 501.5 44.5 c 128,-1,34
 444 15 444 15 375 15 c 0,35,36
 308 15 308 15 250.5 43 c 128,-1,37
 193 71 193 71 152 118.5 c 128,-1,38
 111 166 111 166 87.5 227.5 c 128,-1,39
 64 289 64 289 64 355 c 0,20,21
113 831 m 1,40,-1
 9 635 l 1,41,-1
 22 621 l 1,42,-1
 132 816 l 1,43,-1
 113 831 l 1,40,-1
EndSplineSet
EndChar

StartChar: Upsilontonos
Encoding: 910 910 424
Width: 631
GlyphClass: 1
Flags: W
LayerCount: 2
Fore
SplineSet
317 0 m 1,0,-1
 335 0 l 1,1,-1
 335 252 l 2,2,3
 336 318 336 318 352 375.5 c 128,-1,4
 368 433 368 433 397.5 485 c 128,-1,5
 427 537 427 537 469.5 586.5 c 128,-1,6
 512 636 512 636 564 686 c 1,7,-1
 552 703 l 1,8,9
 504 654 504 654 469 616.5 c 128,-1,10
 434 579 434 579 408 543 c 128,-1,11
 382 507 382 507 363.5 466 c 128,-1,12
 345 425 345 425 328 368 c 1,13,-1
 322 368 l 1,14,15
 305 425 305 425 286 466 c 128,-1,16
 267 507 267 507 241.5 543.5 c 128,-1,17
 216 580 216 580 181.5 617.5 c 128,-1,18
 147 655 147 655 99 703 c 1,19,-1
 89 686 l 1,20,21
 135 642 135 642 176 596 c 128,-1,22
 217 550 217 550 248.5 498 c 128,-1,23
 280 446 280 446 298.5 385.5 c 128,-1,24
 317 325 317 325 317 252 c 2,25,-1
 317 0 l 1,0,-1
111 831 m 1,26,-1
 7 635 l 1,27,-1
 20 621 l 1,28,-1
 130 816 l 1,29,-1
 111 831 l 1,26,-1
EndSplineSet
EndChar

StartChar: Omegatonos
Encoding: 911 911 425
Width: 700
GlyphClass: 1
Flags: W
LayerCount: 2
Fore
SplineSet
73 0 m 1,0,-1
 301 0 l 1,1,-1
 301 101 l 1,2,3
 254 114 254 114 212.5 140 c 128,-1,4
 171 166 171 166 140 204.5 c 128,-1,5
 109 243 109 243 91 294 c 128,-1,6
 73 345 73 345 73 406 c 0,7,8
 73 468 73 468 94 521.5 c 128,-1,9
 115 575 115 575 152 614 c 128,-1,10
 189 653 189 653 239 675 c 128,-1,11
 289 697 289 697 347 696 c 0,12,13
 406 697 406 697 456.5 675 c 128,-1,14
 507 653 507 653 543.5 614 c 128,-1,15
 580 575 580 575 601 521.5 c 128,-1,16
 622 468 622 468 621 405 c 0,17,18
 622 344 622 344 604.5 293.5 c 128,-1,19
 587 243 587 243 556.5 205 c 128,-1,20
 526 167 526 167 483.5 140.5 c 128,-1,21
 441 114 441 114 392 101 c 1,22,-1
 392 0 l 1,23,-1
 621 0 l 1,24,-1
 621 21 l 1,25,-1
 409 21 l 1,26,-1
 415 10 l 1,27,-1
 415 93 l 1,28,-1
 412 84 l 1,29,30
 460 100 460 100 501.5 129.5 c 128,-1,31
 543 159 543 159 574.5 199.5 c 128,-1,32
 606 240 606 240 624 292 c 128,-1,33
 642 344 642 344 642 405 c 0,34,35
 642 471 642 471 620 528 c 128,-1,36
 598 585 598 585 558.5 626.5 c 128,-1,37
 519 668 519 668 465 692 c 128,-1,38
 411 716 411 716 347 716 c 0,39,40
 284 716 284 716 230.5 692 c 128,-1,41
 177 668 177 668 138 626.5 c 128,-1,42
 99 585 99 585 77 528 c 128,-1,43
 55 471 55 471 55 405 c 0,44,45
 55 343 55 343 72.5 291 c 128,-1,46
 90 239 90 239 121 198.5 c 128,-1,47
 152 158 152 158 193 129 c 128,-1,48
 234 100 234 100 282 84 c 1,49,-1
 279 93 l 1,50,-1
 279 10 l 1,51,-1
 286 21 l 1,52,-1
 73 21 l 1,53,-1
 73 0 l 1,0,-1
145 831 m 1,54,-1
 41 635 l 1,55,-1
 54 621 l 1,56,-1
 164 816 l 1,57,-1
 145 831 l 1,54,-1
EndSplineSet
EndChar

StartChar: iotadieresistonos
Encoding: 912 912 426
Width: 290
GlyphClass: 1
Flags: W
LayerCount: 2
Fore
SplineSet
191 -8 m 2,0,1
 191 -8 191 -8 202.5 -7.5 c 128,-1,2
 214 -7 214 -7 228 -1 c 1,3,-1
 217 19 l 1,4,5
 207 16 207 16 201.5 14 c 128,-1,6
 196 12 196 12 188 11 c 0,7,8
 164 12 164 12 156 33 c 128,-1,9
 148 54 148 54 146 110 c 0,10,11
 147 135 147 135 148.5 181.5 c 128,-1,12
 150 228 150 228 151.5 284.5 c 128,-1,13
 153 341 153 341 155 401.5 c 128,-1,14
 157 462 157 462 159 515 c 1,15,-1
 133 515 l 1,16,17
 131 458 131 458 130 401 c 128,-1,18
 129 344 129 344 128 288 c 128,-1,19
 127 232 127 232 126.5 178.5 c 128,-1,20
 126 125 126 125 126 76 c 0,21,22
 126 51 126 51 131.5 34.5 c 128,-1,23
 137 18 137 18 146 8.5 c 128,-1,24
 155 -1 155 -1 166.5 -4.5 c 128,-1,25
 178 -8 178 -8 191 -8 c 2,0,1
-4 638 m 0,26,27
 -4 623 -4 623 7 611 c 128,-1,28
 18 599 18 599 35 599 c 0,29,30
 51 599 51 599 60.5 611 c 128,-1,31
 70 623 70 623 70 638 c 0,32,33
 70 654 70 654 60.5 663.5 c 128,-1,34
 51 673 51 673 35 673 c 0,35,36
 18 673 18 673 7 663.5 c 128,-1,37
 -4 654 -4 654 -4 638 c 0,26,27
212 638 m 0,38,39
 212 623 212 623 224 611 c 128,-1,40
 236 599 236 599 251 599 c 0,41,42
 267 599 267 599 277 611 c 128,-1,43
 287 623 287 623 287 638 c 0,44,45
 287 654 287 654 277 663.5 c 128,-1,46
 267 673 267 673 251 673 c 0,47,48
 236 673 236 673 224 663.5 c 128,-1,49
 212 654 212 654 212 638 c 0,38,39
148 787 m 1,50,-1
 124 598 l 1,51,-1
 148 594 l 1,52,-1
 169 785 l 1,53,-1
 148 787 l 1,50,-1
EndSplineSet
EndChar

StartChar: Gamma
Encoding: 915 915 429
Width: 487
GlyphClass: 1
Flags: W
LayerCount: 2
Fore
SplineSet
556 708 m 1,0,-1
 556 688 l 1,1,-1
 117 688 l 1,2,-1
 117 10 l 1,3,-1
 97 10 l 1,4,-1
 97 708 l 1,5,-1
 556 708 l 1,0,-1
EndSplineSet
EndChar

StartChar: uni0394
Encoding: 916 916 430
Width: 602
GlyphClass: 1
Flags: W
LayerCount: 2
Fore
SplineSet
25 0 m 1,0,-1
 576 0 l 1,1,-1
 576 18 l 1,2,-1
 307 708 l 1,3,-1
 295 708 l 1,4,-1
 25 18 l 1,5,-1
 25 0 l 1,0,-1
50 20 m 1,6,-1
 214 442 l 1,7,-1
 298 668 l 1,8,-1
 302 668 l 1,9,-1
 389 442 l 1,10,-1
 550 20 l 1,11,-1
 50 20 l 1,6,-1
EndSplineSet
EndChar

StartChar: Theta
Encoding: 920 920 434
Width: 757
GlyphClass: 1
Flags: W
LayerCount: 2
Fore
SplineSet
129 344 m 1,0,-1
 606 344 l 1,1,-1
 606 364 l 1,2,-1
 129 364 l 1,3,-1
 129 344 l 1,0,-1
373 -5 m 0,4,5
 441 -5 441 -5 500.5 24 c 128,-1,6
 560 53 560 53 603.5 101.5 c 128,-1,7
 647 150 647 150 672 214.5 c 128,-1,8
 697 279 697 279 697 349 c 0,9,10
 697 414 697 414 673.5 477.5 c 128,-1,11
 650 541 650 541 607 591 c 128,-1,12
 564 641 564 641 504.5 672 c 128,-1,13
 445 703 445 703 373 703 c 0,14,15
 304 703 304 703 244.5 674 c 128,-1,16
 185 645 185 645 141 596 c 128,-1,17
 97 547 97 547 72 483 c 128,-1,18
 47 419 47 419 47 349 c 0,19,20
 47 282 47 282 71 218.5 c 128,-1,21
 95 155 95 155 138 105.5 c 128,-1,22
 181 56 181 56 240.5 25.5 c 128,-1,23
 300 -5 300 -5 373 -5 c 0,4,5
67 349 m 0,24,25
 67 411 67 411 89 471 c 128,-1,26
 111 531 111 531 151.5 578 c 128,-1,27
 192 625 192 625 248 654 c 128,-1,28
 304 683 304 683 373 683 c 0,29,30
 438 683 438 683 493.5 655.5 c 128,-1,31
 549 628 549 628 590 581.5 c 128,-1,32
 631 535 631 535 654 474.5 c 128,-1,33
 677 414 677 414 677 349 c 0,34,35
 677 287 677 287 655 227.5 c 128,-1,36
 633 168 633 168 593 120.5 c 128,-1,37
 553 73 553 73 497 44 c 128,-1,38
 441 15 441 15 373 15 c 0,39,40
 306 15 306 15 250 42.5 c 128,-1,41
 194 70 194 70 153.5 116.5 c 128,-1,42
 113 163 113 163 90 223.5 c 128,-1,43
 67 284 67 284 67 349 c 0,24,25
EndSplineSet
EndChar

StartChar: Lambda
Encoding: 923 923 437
Width: 634
GlyphClass: 1
Flags: W
LayerCount: 2
Fore
SplineSet
34 0 m 1,0,-1
 58 0 l 1,1,-1
 220 425 l 1,2,-1
 314 680 l 1,3,-1
 318 680 l 1,4,-1
 414 425 l 1,5,-1
 576 0 l 1,6,-1
 600 0 l 1,7,-1
 330 708 l 1,8,-1
 307 708 l 1,9,-1
 34 0 l 1,0,-1
EndSplineSet
EndChar

StartChar: Xi
Encoding: 926 926 440
Width: 602
GlyphClass: 1
Flags: W
LayerCount: 2
Fore
SplineSet
77 0 m 1,0,-1
 522 0 l 1,1,-1
 522 20 l 1,2,-1
 77 20 l 1,3,-1
 77 0 l 1,0,-1
143 353 m 1,4,-1
 455 353 l 1,5,-1
 455 373 l 1,6,-1
 143 373 l 1,7,-1
 143 353 l 1,4,-1
77 692 m 1,8,-1
 522 692 l 1,9,-1
 522 715 l 1,10,-1
 77 715 l 1,11,-1
 77 692 l 1,8,-1
EndSplineSet
EndChar

StartChar: Pi
Encoding: 928 928 442
Width: 612
GlyphClass: 1
Flags: W
LayerCount: 2
Fore
SplineSet
94 0 m 1,0,-1
 118 0 l 1,1,-1
 118 692 l 1,2,-1
 496 692 l 1,3,-1
 496 0 l 1,4,-1
 518 0 l 1,5,-1
 518 715 l 1,6,-1
 94 715 l 1,7,-1
 94 0 l 1,0,-1
EndSplineSet
EndChar

StartChar: Sigma
Encoding: 931 931 444
Width: 528
GlyphClass: 1
Flags: W
LayerCount: 2
Fore
SplineSet
50 0 m 1,0,-1
 489 0 l 1,1,-1
 489 20 l 1,2,-1
 81 20 l 1,3,-1
 346 364 l 1,4,-1
 85 692 l 1,5,-1
 454 692 l 1,6,-1
 454 715 l 1,7,-1
 56 715 l 1,8,-1
 56 703 l 1,9,-1
 318 365 l 1,10,-1
 50 12 l 1,11,-1
 50 0 l 1,0,-1
EndSplineSet
EndChar

StartChar: Upsilon
Encoding: 933 933 446
Width: 599
GlyphClass: 1
Flags: W
LayerCount: 2
Fore
SplineSet
289 0 m 1,0,-1
 307 0 l 1,1,-1
 307 252 l 2,2,3
 308 318 308 318 324 375.5 c 128,-1,4
 340 433 340 433 369.5 485 c 128,-1,5
 399 537 399 537 441.5 586.5 c 128,-1,6
 484 636 484 636 536 686 c 1,7,-1
 524 703 l 1,8,9
 476 654 476 654 441 616.5 c 128,-1,10
 406 579 406 579 380 543 c 128,-1,11
 354 507 354 507 335.5 466 c 128,-1,12
 317 425 317 425 300 368 c 1,13,-1
 294 368 l 1,14,15
 277 425 277 425 258 466 c 128,-1,16
 239 507 239 507 213.5 543.5 c 128,-1,17
 188 580 188 580 153.5 617.5 c 128,-1,18
 119 655 119 655 71 703 c 1,19,-1
 61 686 l 1,20,21
 107 642 107 642 148 596 c 128,-1,22
 189 550 189 550 220.5 498 c 128,-1,23
 252 446 252 446 270.5 385.5 c 128,-1,24
 289 325 289 325 289 252 c 2,25,-1
 289 0 l 1,0,-1
EndSplineSet
EndChar

StartChar: Phi
Encoding: 934 934 447
Width: 676
GlyphClass: 1
Flags: W
LayerCount: 2
Fore
SplineSet
330 108 m 1,0,1
 275 108 275 108 227.5 127 c 128,-1,2
 180 146 180 146 145.5 179 c 128,-1,3
 111 212 111 212 91.5 257.5 c 128,-1,4
 72 303 72 303 72 356 c 0,5,6
 72 410 72 410 91.5 456 c 128,-1,7
 111 502 111 502 145.5 535.5 c 128,-1,8
 180 569 180 569 227.5 588 c 128,-1,9
 275 607 275 607 330 607 c 1,10,-1
 330 630 l 1,11,12
 271 630 271 630 220 609 c 128,-1,13
 169 588 169 588 131.5 551 c 128,-1,14
 94 514 94 514 72.5 464 c 128,-1,15
 51 414 51 414 51 356 c 0,16,17
 51 299 51 299 72.5 249.5 c 128,-1,18
 94 200 94 200 131.5 163.5 c 128,-1,19
 169 127 169 127 220 106 c 128,-1,20
 271 85 271 85 330 85 c 1,21,-1
 330 108 l 1,0,1
350 -26 m 1,22,-1
 350 740 l 1,23,-1
 327 740 l 1,24,-1
 327 -26 l 1,25,-1
 350 -26 l 1,22,-1
349 85 m 1,26,27
 409 85 409 85 460.5 106 c 128,-1,28
 512 127 512 127 549.5 163.5 c 128,-1,29
 587 200 587 200 608 249.5 c 128,-1,30
 629 299 629 299 629 356 c 0,31,32
 629 414 629 414 608 464 c 128,-1,33
 587 514 587 514 549.5 551 c 128,-1,34
 512 588 512 588 460.5 609 c 128,-1,35
 409 630 409 630 349 630 c 1,36,-1
 349 607 l 1,37,38
 405 607 405 607 452 588 c 128,-1,39
 499 569 499 569 533 535.5 c 128,-1,40
 567 502 567 502 586 456 c 128,-1,41
 605 410 605 410 604 356 c 0,42,43
 605 303 605 303 586 257.5 c 128,-1,44
 567 212 567 212 533 179 c 128,-1,45
 499 146 499 146 452 127 c 128,-1,46
 405 108 405 108 349 108 c 1,47,-1
 349 85 l 1,26,27
EndSplineSet
EndChar

StartChar: Psi
Encoding: 936 936 449
Width: 674
GlyphClass: 1
Flags: W
LayerCount: 2
Fore
SplineSet
326 0 m 1,0,-1
 351 0 l 1,1,-1
 351 708 l 1,2,-1
 326 708 l 1,3,-1
 326 0 l 1,0,-1
83 423 m 2,4,5
 83 365 83 365 100 320.5 c 128,-1,6
 117 276 117 276 149.5 246 c 128,-1,7
 182 216 182 216 227.5 200.5 c 128,-1,8
 273 185 273 185 330 185 c 1,9,-1
 332 206 l 1,10,11
 277 206 277 206 234.5 220.5 c 128,-1,12
 192 235 192 235 162 263 c 128,-1,13
 132 291 132 291 116.5 332 c 128,-1,14
 101 373 101 373 100 426 c 0,15,16
 101 436 101 436 101.5 454.5 c 128,-1,17
 102 473 102 473 102.5 496 c 128,-1,18
 103 519 103 519 103.5 546.5 c 128,-1,19
 104 574 104 574 104 602 c 0,20,21
 104 635 104 635 101.5 659.5 c 128,-1,22
 99 684 99 684 94 708 c 1,23,-1
 73 708 l 1,24,25
 76 689 76 689 78 674.5 c 128,-1,26
 80 660 80 660 81 646.5 c 128,-1,27
 82 633 82 633 82.5 620 c 128,-1,28
 83 607 83 607 83 590 c 2,29,-1
 83 423 l 2,4,5
590 590 m 2,30,31
 590 606 590 606 590 619.5 c 128,-1,32
 590 633 590 633 591 646 c 128,-1,33
 592 659 592 659 594 674 c 128,-1,34
 596 689 596 689 600 708 c 1,35,-1
 579 708 l 1,36,37
 573 684 573 684 572 659.5 c 128,-1,38
 571 635 571 635 571 602 c 0,39,40
 571 574 571 574 571.5 546.5 c 128,-1,41
 572 519 572 519 572 496 c 128,-1,42
 572 473 572 473 572.5 454.5 c 128,-1,43
 573 436 573 436 573 426 c 0,44,45
 573 373 573 373 557 332 c 128,-1,46
 541 291 541 291 511.5 263 c 128,-1,47
 482 235 482 235 439.5 220.5 c 128,-1,48
 397 206 397 206 344 206 c 1,49,-1
 347 185 l 1,50,51
 404 185 404 185 449 200.5 c 128,-1,52
 494 216 494 216 525.5 246.5 c 128,-1,53
 557 277 557 277 573.5 321.5 c 128,-1,54
 590 366 590 366 590 423 c 2,55,-1
 590 590 l 2,30,31
EndSplineSet
EndChar

StartChar: uni03A9
Encoding: 937 937 450
Width: 694
GlyphClass: 1
Flags: W
LayerCount: 2
Fore
SplineSet
73 0 m 1,0,-1
 301 0 l 1,1,-1
 301 101 l 1,2,3
 254 114 254 114 212.5 140 c 128,-1,4
 171 166 171 166 140 204.5 c 128,-1,5
 109 243 109 243 91 294 c 128,-1,6
 73 345 73 345 73 406 c 0,7,8
 73 468 73 468 94 521.5 c 128,-1,9
 115 575 115 575 152 614 c 128,-1,10
 189 653 189 653 239 675 c 128,-1,11
 289 697 289 697 347 696 c 0,12,13
 406 697 406 697 456.5 675 c 128,-1,14
 507 653 507 653 543.5 614 c 128,-1,15
 580 575 580 575 601 521.5 c 128,-1,16
 622 468 622 468 621 405 c 0,17,18
 622 344 622 344 604.5 293.5 c 128,-1,19
 587 243 587 243 556.5 205 c 128,-1,20
 526 167 526 167 483.5 140.5 c 128,-1,21
 441 114 441 114 392 101 c 1,22,-1
 392 0 l 1,23,-1
 621 0 l 1,24,-1
 621 21 l 1,25,-1
 409 21 l 1,26,-1
 415 10 l 1,27,-1
 415 93 l 1,28,-1
 412 84 l 1,29,30
 460 100 460 100 501.5 129.5 c 128,-1,31
 543 159 543 159 574.5 199.5 c 128,-1,32
 606 240 606 240 624 292 c 128,-1,33
 642 344 642 344 642 405 c 0,34,35
 642 471 642 471 620 528 c 128,-1,36
 598 585 598 585 558.5 626.5 c 128,-1,37
 519 668 519 668 465 692 c 128,-1,38
 411 716 411 716 347 716 c 0,39,40
 284 716 284 716 230.5 692 c 128,-1,41
 177 668 177 668 138 626.5 c 128,-1,42
 99 585 99 585 77 528 c 128,-1,43
 55 471 55 471 55 405 c 0,44,45
 55 343 55 343 72.5 291 c 128,-1,46
 90 239 90 239 121 198.5 c 128,-1,47
 152 158 152 158 193 129 c 128,-1,48
 234 100 234 100 282 84 c 1,49,-1
 279 93 l 1,50,-1
 279 10 l 1,51,-1
 286 21 l 1,52,-1
 73 21 l 1,53,-1
 73 0 l 1,0,-1
EndSplineSet
EndChar

StartChar: Iotadieresis
Encoding: 938 938 451
Width: 278
GlyphClass: 1
Flags: W
LayerCount: 2
Fore
SplineSet
117 0 m 1,0,-1
 117 698 l 1,1,-1
 97 698 l 1,2,-1
 97 0 l 1,3,-1
 117 0 l 1,0,-1
18 865 m 256,4,5
 18 851 18 851 27.5 841.5 c 128,-1,6
 37 832 37 832 51 832 c 256,7,8
 65 832 65 832 75 841.5 c 128,-1,9
 85 851 85 851 85 865 c 256,10,11
 85 879 85 879 75 888.5 c 128,-1,12
 65 898 65 898 51 898 c 256,13,14
 37 898 37 898 27.5 888.5 c 128,-1,15
 18 879 18 879 18 865 c 256,4,5
130 865 m 256,16,17
 130 851 130 851 139.5 841.5 c 128,-1,18
 149 832 149 832 163 832 c 256,19,20
 177 832 177 832 187 841.5 c 128,-1,21
 197 851 197 851 197 865 c 256,22,23
 197 879 197 879 187 888.5 c 128,-1,24
 177 898 177 898 163 898 c 256,25,26
 149 898 149 898 139.5 888.5 c 128,-1,27
 130 879 130 879 130 865 c 256,16,17
EndSplineSet
EndChar

StartChar: alphatonos
Encoding: 940 940 453
Width: 640
GlyphClass: 1
Flags: W
LayerCount: 2
Fore
SplineSet
494 252 m 2,0,1
 486 223 486 223 473.5 182 c 128,-1,2
 461 141 461 141 437.5 104 c 128,-1,3
 414 67 414 67 376.5 40.5 c 128,-1,4
 339 14 339 14 281 13 c 0,5,6
 234 14 234 14 196.5 33 c 128,-1,7
 159 52 159 52 133 85 c 128,-1,8
 107 118 107 118 93 161 c 128,-1,9
 79 204 79 204 79 253 c 0,10,11
 79 309 79 309 92.5 355.5 c 128,-1,12
 106 402 106 402 130 436 c 128,-1,13
 154 470 154 470 188.5 489 c 128,-1,14
 223 508 223 508 266 508 c 0,15,16
 306 508 306 508 335.5 490 c 128,-1,17
 365 472 365 472 386.5 443 c 128,-1,18
 408 414 408 414 423 377 c 128,-1,19
 438 340 438 340 448 301.5 c 128,-1,20
 458 263 458 263 465 227.5 c 128,-1,21
 472 192 472 192 477 165 c 1,22,-1
 496 204 l 1,23,24
 491 245 491 245 479.5 301 c 128,-1,25
 468 357 468 357 443 407.5 c 128,-1,26
 418 458 418 458 377 493.5 c 128,-1,27
 336 529 336 529 272 529 c 0,28,29
 225 529 225 529 186 509.5 c 128,-1,30
 147 490 147 490 119.5 454 c 128,-1,31
 92 418 92 418 76.5 367.5 c 128,-1,32
 61 317 61 317 61 255 c 0,33,34
 61 200 61 200 76.5 152 c 128,-1,35
 92 104 92 104 120.5 68.5 c 128,-1,36
 149 33 149 33 189.5 12.5 c 128,-1,37
 230 -8 230 -8 280 -8 c 0,38,39
 319 -8 319 -8 352.5 4.5 c 128,-1,40
 386 17 386 17 413.5 41.5 c 128,-1,41
 441 66 441 66 462.5 103 c 128,-1,42
 484 140 484 140 498 188 c 2,43,-1
 598 519 l 1,44,-1
 569 519 l 1,45,-1
 494 252 l 2,0,1
596 14 m 1,46,-1
 567 28 l 2,47,48
 554 36 554 36 542 49 c 128,-1,49
 530 62 530 62 520.5 80 c 128,-1,50
 511 98 511 98 503.5 120 c 128,-1,51
 496 142 496 142 493 167 c 1,52,-1
 469 154 l 1,53,54
 472 132 472 132 481 110.5 c 128,-1,55
 490 89 490 89 502 69.5 c 128,-1,56
 514 50 514 50 529.5 34 c 128,-1,57
 545 18 545 18 562 7 c 2,58,-1
 590 -8 l 1,59,-1
 596 14 l 1,46,-1
298 775 m 1,60,-1
 274 584 l 1,61,-1
 298 580 l 1,62,-1
 319 773 l 1,63,-1
 298 775 l 1,60,-1
EndSplineSet
EndChar

StartChar: epsilontonos
Encoding: 941 941 454
Width: 454
GlyphClass: 1
Flags: W
LayerCount: 2
Fore
SplineSet
407 34 m 1,0,1
 384 26 384 26 345.5 20.5 c 128,-1,2
 307 15 307 15 274 13 c 0,3,4
 191 15 191 15 141.5 46.5 c 128,-1,5
 92 78 92 78 90 135 c 0,6,7
 91 166 91 166 107.5 190 c 128,-1,8
 124 214 124 214 152 229.5 c 128,-1,9
 180 245 180 245 218 253 c 128,-1,10
 256 261 256 261 299 260 c 2,11,-1
 341 260 l 1,12,-1
 341 284 l 1,13,-1
 285 284 l 2,14,15
 249 284 249 284 218 293 c 128,-1,16
 187 302 187 302 164 317.5 c 128,-1,17
 141 333 141 333 128 354.5 c 128,-1,18
 115 376 115 376 115 401 c 0,19,20
 115 419 115 419 123 438 c 128,-1,21
 131 457 131 457 148 473 c 128,-1,22
 165 489 165 489 193 499 c 128,-1,23
 221 509 221 509 260 509 c 0,24,25
 277 509 277 509 297 507.5 c 128,-1,26
 317 506 317 506 336 503 c 128,-1,27
 355 500 355 500 371.5 495.5 c 128,-1,28
 388 491 388 491 398 485 c 1,29,-1
 405 508 l 1,30,31
 394 512 394 512 377.5 515.5 c 128,-1,32
 361 519 361 519 342.5 522 c 128,-1,33
 324 525 324 525 305 527 c 128,-1,34
 286 529 286 529 269 529 c 0,35,36
 222 529 222 529 188.5 518 c 128,-1,37
 155 507 155 507 134 489.5 c 128,-1,38
 113 472 113 472 103 449.5 c 128,-1,39
 93 427 93 427 93 403 c 0,40,41
 93 382 93 382 101.5 361.5 c 128,-1,42
 110 341 110 341 125.5 324 c 128,-1,43
 141 307 141 307 162 294 c 128,-1,44
 183 281 183 281 208 276 c 1,45,-1
 208 274 l 1,46,47
 177 267 177 267 151.5 254 c 128,-1,48
 126 241 126 241 108 223.5 c 128,-1,49
 90 206 90 206 80 183.5 c 128,-1,50
 70 161 70 161 70 135 c 0,51,52
 70 104 70 104 85 77.5 c 128,-1,53
 100 51 100 51 127 32 c 128,-1,54
 154 13 154 13 193 2.5 c 128,-1,55
 232 -8 232 -8 280 -8 c 0,56,57
 300 -8 300 -8 318 -6.5 c 128,-1,58
 336 -5 336 -5 352.5 -2.5 c 128,-1,59
 369 0 369 0 383 2.5 c 128,-1,60
 397 5 397 5 409 7 c 1,61,-1
 407 34 l 1,0,1
283 812 m 1,62,-1
 259 621 l 1,63,-1
 283 617 l 1,64,-1
 304 810 l 1,65,-1
 283 812 l 1,62,-1
EndSplineSet
EndChar

StartChar: etatonos
Encoding: 942 942 455
Width: 542
GlyphClass: 1
Flags: W
LayerCount: 2
Fore
SplineSet
114 0 m 1,0,1
 125 95 125 95 130 182 c 128,-1,2
 135 269 135 269 135 348 c 0,3,4
 135 377 135 377 134 403 c 128,-1,5
 133 429 133 429 126.5 451.5 c 128,-1,6
 120 474 120 474 106 493.5 c 128,-1,7
 92 513 92 513 67 529 c 1,8,-1
 56 509 l 1,9,10
 70 502 70 502 80.5 493.5 c 128,-1,11
 91 485 91 485 98.5 467 c 128,-1,12
 106 449 106 449 109.5 417.5 c 128,-1,13
 113 386 113 386 112 334 c 0,14,15
 114 265 114 265 108 177.5 c 128,-1,16
 102 90 102 90 91 0 c 1,17,-1
 114 0 l 1,0,1
409 -210 m 1,18,19
 420 -176 420 -176 431 -121.5 c 128,-1,20
 442 -67 442 -67 451 -3.5 c 128,-1,21
 460 60 460 60 465 127 c 128,-1,22
 470 194 470 194 470 252 c 0,23,24
 471 395 471 395 435 462 c 128,-1,25
 399 529 399 529 319 529 c 0,26,27
 279 529 279 529 247.5 514 c 128,-1,28
 216 499 216 499 192 474 c 128,-1,29
 168 449 168 449 151.5 418 c 128,-1,30
 135 387 135 387 124 355 c 1,31,-1
 129 229 l 1,32,33
 129 274 129 274 141 323 c 128,-1,34
 153 372 153 372 177.5 413 c 128,-1,35
 202 454 202 454 238.5 480.5 c 128,-1,36
 275 507 275 507 322 507 c 0,37,38
 389 507 389 507 419 444 c 128,-1,39
 449 381 449 381 449 243 c 0,40,41
 449 198 449 198 445.5 144.5 c 128,-1,42
 442 91 442 91 435 32.5 c 128,-1,43
 428 -26 428 -26 417 -86.5 c 128,-1,44
 406 -147 406 -147 390 -205 c 1,45,-1
 409 -210 l 1,18,19
313 775 m 1,46,-1
 289 584 l 1,47,-1
 313 580 l 1,48,-1
 334 773 l 1,49,-1
 313 775 l 1,46,-1
EndSplineSet
EndChar

StartChar: iotatonos
Encoding: 943 943 456
Width: 242
GlyphClass: 1
Flags: W
LayerCount: 2
Fore
SplineSet
157 -8 m 0,0,1
 158 -8 158 -8 169.5 -7.5 c 128,-1,2
 181 -7 181 -7 195 -1 c 1,3,-1
 184 19 l 1,4,5
 173 16 173 16 167.5 14.5 c 128,-1,6
 162 13 162 13 154 11 c 0,7,8
 130 13 130 13 122 33.5 c 128,-1,9
 114 54 114 54 112 111 c 0,10,11
 113 136 113 136 114.5 183 c 128,-1,12
 116 230 116 230 117.5 287 c 128,-1,13
 119 344 119 344 121 405 c 128,-1,14
 123 466 123 466 125 519 c 1,15,-1
 99 519 l 1,16,17
 97 462 97 462 95.5 404.5 c 128,-1,18
 94 347 94 347 93.5 290.5 c 128,-1,19
 93 234 93 234 92.5 180 c 128,-1,20
 92 126 92 126 92 77 c 0,21,22
 92 52 92 52 97.5 35.5 c 128,-1,23
 103 19 103 19 112 9 c 128,-1,24
 121 -1 121 -1 133 -4.5 c 128,-1,25
 145 -8 145 -8 157 -8 c 0,0,1
118 773 m 1,26,-1
 94 582 l 1,27,-1
 118 578 l 1,28,-1
 139 771 l 1,29,-1
 118 773 l 1,26,-1
EndSplineSet
EndChar

StartChar: upsilondieresistonos
Encoding: 944 944 457
Width: 524
GlyphClass: 1
Flags: W
LayerCount: 2
Fore
SplineSet
83 162 m 0,0,1
 83 112 83 112 100 79 c 128,-1,2
 117 46 117 46 144 26.5 c 128,-1,3
 171 7 171 7 203.5 -0.5 c 128,-1,4
 236 -8 236 -8 267 -8 c 0,5,6
 307 -8 307 -8 342 6 c 128,-1,7
 377 20 377 20 402.5 52 c 128,-1,8
 428 84 428 84 443 136.5 c 128,-1,9
 458 189 458 189 458 267 c 0,10,11
 458 287 458 287 456.5 316 c 128,-1,12
 455 345 455 345 452 379.5 c 128,-1,13
 449 414 449 414 444 450 c 128,-1,14
 439 486 439 486 431 519 c 1,15,-1
 409 519 l 1,16,17
 417 485 417 485 423 449 c 128,-1,18
 429 413 429 413 432.5 379.5 c 128,-1,19
 436 346 436 346 437.5 317.5 c 128,-1,20
 439 289 439 289 439 269 c 0,21,22
 439 136 439 136 394.5 76 c 128,-1,23
 350 16 350 16 269 14 c 0,24,25
 238 15 238 15 208.5 23 c 128,-1,26
 179 31 179 31 156 48 c 128,-1,27
 133 65 133 65 118.5 92.5 c 128,-1,28
 104 120 104 120 103 160 c 0,29,30
 104 172 104 172 105.5 193.5 c 128,-1,31
 107 215 107 215 108.5 239.5 c 128,-1,32
 110 264 110 264 111 288.5 c 128,-1,33
 112 313 112 313 112 331 c 0,34,35
 112 354 112 354 110.5 376.5 c 128,-1,36
 109 399 109 399 105.5 422 c 128,-1,37
 102 445 102 445 97 469 c 128,-1,38
 92 493 92 493 84 519 c 1,39,-1
 65 519 l 1,40,41
 79 460 79 460 84 411.5 c 128,-1,42
 89 363 89 363 89 322 c 0,43,44
 89 301 89 301 88 278.5 c 128,-1,45
 87 256 87 256 86 234 c 128,-1,46
 85 212 85 212 84 193 c 128,-1,47
 83 174 83 174 83 162 c 0,0,1
90 645 m 0,48,49
 90 630 90 630 101.5 618 c 128,-1,50
 113 606 113 606 130 606 c 0,51,52
 146 606 146 606 156 618 c 128,-1,53
 166 630 166 630 166 645 c 0,54,55
 166 662 166 662 156 671.5 c 128,-1,56
 146 681 146 681 130 681 c 0,57,58
 113 681 113 681 101.5 671.5 c 128,-1,59
 90 662 90 662 90 645 c 0,48,49
311 645 m 0,60,61
 311 630 311 630 323 618 c 128,-1,62
 335 606 335 606 351 606 c 0,63,64
 368 606 368 606 377.5 618 c 128,-1,65
 387 630 387 630 387 645 c 0,66,67
 387 662 387 662 377.5 671.5 c 128,-1,68
 368 681 368 681 351 681 c 0,69,70
 335 681 335 681 323 671.5 c 128,-1,71
 311 662 311 662 311 645 c 0,60,61
245 796 m 1,72,-1
 221 605 l 1,73,-1
 245 601 l 1,74,-1
 266 794 l 1,75,-1
 245 796 l 1,72,-1
EndSplineSet
EndChar

StartChar: alpha
Encoding: 945 945 458
Width: 655
GlyphClass: 1
Flags: W
LayerCount: 2
Fore
SplineSet
494 252 m 2,0,1
 486 223 486 223 473.5 182 c 128,-1,2
 461 141 461 141 437.5 104 c 128,-1,3
 414 67 414 67 376.5 40.5 c 128,-1,4
 339 14 339 14 281 13 c 0,5,6
 234 14 234 14 196.5 33 c 128,-1,7
 159 52 159 52 133 85 c 128,-1,8
 107 118 107 118 93 161 c 128,-1,9
 79 204 79 204 79 253 c 0,10,11
 79 309 79 309 92.5 355.5 c 128,-1,12
 106 402 106 402 130 436 c 128,-1,13
 154 470 154 470 188.5 489 c 128,-1,14
 223 508 223 508 266 508 c 0,15,16
 306 508 306 508 335.5 490 c 128,-1,17
 365 472 365 472 386.5 443 c 128,-1,18
 408 414 408 414 423 377 c 128,-1,19
 438 340 438 340 448 301.5 c 128,-1,20
 458 263 458 263 465 227.5 c 128,-1,21
 472 192 472 192 477 165 c 1,22,-1
 496 204 l 1,23,24
 491 245 491 245 479.5 301 c 128,-1,25
 468 357 468 357 443 407.5 c 128,-1,26
 418 458 418 458 377 493.5 c 128,-1,27
 336 529 336 529 272 529 c 0,28,29
 225 529 225 529 186 509.5 c 128,-1,30
 147 490 147 490 119.5 454 c 128,-1,31
 92 418 92 418 76.5 367.5 c 128,-1,32
 61 317 61 317 61 255 c 0,33,34
 61 200 61 200 76.5 152 c 128,-1,35
 92 104 92 104 120.5 68.5 c 128,-1,36
 149 33 149 33 189.5 12.5 c 128,-1,37
 230 -8 230 -8 280 -8 c 0,38,39
 319 -8 319 -8 352.5 4.5 c 128,-1,40
 386 17 386 17 413.5 41.5 c 128,-1,41
 441 66 441 66 462.5 103 c 128,-1,42
 484 140 484 140 498 188 c 2,43,-1
 598 519 l 1,44,-1
 569 519 l 1,45,-1
 494 252 l 2,0,1
596 14 m 1,46,-1
 567 28 l 2,47,48
 554 36 554 36 542 49 c 128,-1,49
 530 62 530 62 520.5 80 c 128,-1,50
 511 98 511 98 503.5 120 c 128,-1,51
 496 142 496 142 493 167 c 1,52,-1
 469 154 l 1,53,54
 472 132 472 132 481 110.5 c 128,-1,55
 490 89 490 89 502 69.5 c 128,-1,56
 514 50 514 50 529.5 34 c 128,-1,57
 545 18 545 18 562 7 c 2,58,-1
 590 -8 l 1,59,-1
 596 14 l 1,46,-1
EndSplineSet
EndChar

StartChar: beta
Encoding: 946 946 459
Width: 626
GlyphClass: 1
Flags: W
LayerCount: 2
Fore
SplineSet
114 83 m 1,0,1
 140 58 140 58 168 40.5 c 128,-1,2
 196 23 196 23 224 12 c 128,-1,3
 252 1 252 1 279 -3.5 c 128,-1,4
 306 -8 306 -8 330 -8 c 0,5,6
 378 -8 378 -8 419.5 10.5 c 128,-1,7
 461 29 461 29 492 60 c 128,-1,8
 523 91 523 91 541 132 c 128,-1,9
 559 173 559 173 558 219 c 0,10,11
 559 261 559 261 544 299 c 128,-1,12
 529 337 529 337 501 365.5 c 128,-1,13
 473 394 473 394 433 412.5 c 128,-1,14
 393 431 393 431 342 434 c 1,15,-1
 342 438 l 1,16,17
 370 455 370 455 393 473.5 c 128,-1,18
 416 492 416 492 432.5 513.5 c 128,-1,19
 449 535 449 535 458 559.5 c 128,-1,20
 467 584 467 584 467 612 c 0,21,22
 467 642 467 642 456.5 670.5 c 128,-1,23
 446 699 446 699 424 721.5 c 128,-1,24
 402 744 402 744 368 758 c 128,-1,25
 334 772 334 772 288 771 c 0,26,27
 230 772 230 772 193 750.5 c 128,-1,28
 156 729 156 729 134 691 c 128,-1,29
 112 653 112 653 103.5 601 c 128,-1,30
 95 549 95 549 95 489 c 2,31,-1
 95 -209 l 1,32,-1
 118 -209 l 1,33,34
 119 -143 119 -143 119 -64.5 c 128,-1,35
 119 14 119 14 120 84 c 2,36,-1
 120 93 l 2,37,38
 120 128 120 128 119.5 166 c 128,-1,39
 119 204 119 204 119 249.5 c 128,-1,40
 119 295 119 295 119 350.5 c 128,-1,41
 119 406 119 406 119 476 c 0,42,43
 119 538 119 538 127 588 c 128,-1,44
 135 638 135 638 154.5 673.5 c 128,-1,45
 174 709 174 709 207 728.5 c 128,-1,46
 240 748 240 748 291 748 c 0,47,48
 330 748 330 748 359 736.5 c 128,-1,49
 388 725 388 725 406.5 706 c 128,-1,50
 425 687 425 687 434 663.5 c 128,-1,51
 443 640 443 640 443 617 c 0,52,53
 443 589 443 589 431 560.5 c 128,-1,54
 419 532 419 532 393.5 506 c 128,-1,55
 368 480 368 480 328.5 459 c 128,-1,56
 289 438 289 438 235 425 c 1,57,-1
 235 402 l 1,58,59
 237 403 237 403 245.5 404 c 128,-1,60
 254 405 254 405 267 406.5 c 128,-1,61
 280 408 280 408 294.5 408.5 c 128,-1,62
 309 409 309 409 321 408 c 0,63,64
 371 409 371 409 410.5 394 c 128,-1,65
 450 379 450 379 478 353.5 c 128,-1,66
 506 328 506 328 521 293 c 128,-1,67
 536 258 536 258 536 218 c 0,68,69
 536 175 536 175 519.5 138 c 128,-1,70
 503 101 503 101 475 73 c 128,-1,71
 447 45 447 45 409.5 29 c 128,-1,72
 372 13 372 13 330 12 c 0,73,74
 309 13 309 13 282.5 18 c 128,-1,75
 256 23 256 23 228 34.5 c 128,-1,76
 200 46 200 46 171 65.5 c 128,-1,77
 142 85 142 85 116 114 c 1,78,-1
 114 83 l 1,0,1
EndSplineSet
EndChar

StartChar: gamma
Encoding: 947 947 460
Width: 488
GlyphClass: 1
Flags: W
LayerCount: 2
Fore
SplineSet
189 -209 m 1,0,1
 207 -94 207 -94 217 11 c 128,-1,2
 227 116 227 116 217 209 c 128,-1,3
 207 302 207 302 170.5 382 c 128,-1,4
 134 462 134 462 58 528 c 1,5,-1
 43 516 l 1,6,7
 92 476 92 476 123 426.5 c 128,-1,8
 154 377 154 377 172 320.5 c 128,-1,9
 190 264 190 264 195.5 201 c 128,-1,10
 201 138 201 138 198.5 71 c 128,-1,11
 196 4 196 4 186.5 -66.5 c 128,-1,12
 177 -137 177 -137 165 -209 c 1,13,-1
 189 -209 l 1,0,1
190 2 m 1,14,15
 245 78 245 78 288 145.5 c 128,-1,16
 331 213 331 213 362.5 275.5 c 128,-1,17
 394 338 394 338 416 398 c 128,-1,18
 438 458 438 458 451 519 c 1,19,-1
 428 519 l 1,20,21
 418 461 418 461 394 400 c 128,-1,22
 370 339 370 339 338 279 c 128,-1,23
 306 219 306 219 269 161.5 c 128,-1,24
 232 104 232 104 197 51 c 1,25,-1
 190 2 l 1,14,15
EndSplineSet
EndChar

StartChar: delta
Encoding: 948 948 461
Width: 617
GlyphClass: 1
Flags: W
LayerCount: 2
Fore
SplineSet
291 -8 m 0,0,1
 345 -8 345 -8 390 12 c 128,-1,2
 435 32 435 32 467.5 67.5 c 128,-1,3
 500 103 500 103 518 150.5 c 128,-1,4
 536 198 536 198 536 253 c 0,5,6
 536 312 536 312 518 356 c 128,-1,7
 500 400 500 400 470.5 434 c 128,-1,8
 441 468 441 468 402.5 494.5 c 128,-1,9
 364 521 364 521 324 545 c 0,10,11
 297 565 297 565 272 582 c 128,-1,12
 247 599 247 599 228 616 c 128,-1,13
 209 633 209 633 197.5 651 c 128,-1,14
 186 669 186 669 186 690 c 0,15,16
 186 722 186 722 210.5 738.5 c 128,-1,17
 235 755 235 755 280 755 c 0,18,19
 313 755 313 755 352.5 746.5 c 128,-1,20
 392 738 392 738 430 724.5 c 128,-1,21
 468 711 468 711 500 694 c 128,-1,22
 532 677 532 677 550 659 c 1,23,-1
 569 670 l 1,24,25
 549 690 549 690 515 708.5 c 128,-1,26
 481 727 481 727 441.5 742 c 128,-1,27
 402 757 402 757 360.5 766 c 128,-1,28
 319 775 319 775 284 774 c 0,29,30
 227 776 227 776 196 751 c 128,-1,31
 165 726 165 726 165 688 c 0,32,33
 165 663 165 663 178 641 c 128,-1,34
 191 619 191 619 211.5 599.5 c 128,-1,35
 232 580 232 580 258.5 562.5 c 128,-1,36
 285 545 285 545 312 527 c 0,37,38
 347 506 347 506 383.5 481 c 128,-1,39
 420 456 420 456 450 423 c 128,-1,40
 480 390 480 390 499 347.5 c 128,-1,41
 518 305 518 305 518 249 c 0,42,43
 518 200 518 200 500.5 157.5 c 128,-1,44
 483 115 483 115 453 83.5 c 128,-1,45
 423 52 423 52 381.5 34 c 128,-1,46
 340 16 340 16 291 15 c 0,47,48
 243 16 243 16 201.5 33.5 c 128,-1,49
 160 51 160 51 130 82 c 128,-1,50
 100 113 100 113 83 155 c 128,-1,51
 66 197 66 197 66 246 c 0,52,53
 66 299 66 299 84.5 343 c 128,-1,54
 103 387 103 387 134 418.5 c 128,-1,55
 165 450 165 450 205.5 467 c 128,-1,56
 246 484 246 484 291 483 c 0,57,58
 335 485 335 485 372.5 471 c 128,-1,59
 410 457 410 457 446 432 c 1,60,-1
 423 471 l 1,61,62
 393 491 393 491 359.5 501 c 128,-1,63
 326 511 326 511 295 510 c 0,64,65
 246 510 246 510 201 491.5 c 128,-1,66
 156 473 156 473 121.5 438.5 c 128,-1,67
 87 404 87 404 67 355 c 128,-1,68
 47 306 47 306 47 246 c 0,69,70
 47 193 47 193 65.5 146.5 c 128,-1,71
 84 100 84 100 117 65.5 c 128,-1,72
 150 31 150 31 194.5 11.5 c 128,-1,73
 239 -8 239 -8 291 -8 c 0,0,1
EndSplineSet
EndChar

StartChar: epsilon
Encoding: 949 949 462
Width: 462
GlyphClass: 1
Flags: W
LayerCount: 2
Fore
SplineSet
407 34 m 1,0,1
 384 26 384 26 345.5 20.5 c 128,-1,2
 307 15 307 15 274 13 c 0,3,4
 191 15 191 15 141.5 46.5 c 128,-1,5
 92 78 92 78 90 135 c 0,6,7
 91 166 91 166 107.5 190 c 128,-1,8
 124 214 124 214 152 229.5 c 128,-1,9
 180 245 180 245 218 253 c 128,-1,10
 256 261 256 261 299 260 c 2,11,-1
 341 260 l 1,12,-1
 341 284 l 1,13,-1
 285 284 l 2,14,15
 249 284 249 284 218 293 c 128,-1,16
 187 302 187 302 164 317.5 c 128,-1,17
 141 333 141 333 128 354.5 c 128,-1,18
 115 376 115 376 115 401 c 0,19,20
 115 419 115 419 123 438 c 128,-1,21
 131 457 131 457 148 473 c 128,-1,22
 165 489 165 489 193 499 c 128,-1,23
 221 509 221 509 260 509 c 0,24,25
 277 509 277 509 297 507.5 c 128,-1,26
 317 506 317 506 336 503 c 128,-1,27
 355 500 355 500 371.5 495.5 c 128,-1,28
 388 491 388 491 398 485 c 1,29,-1
 405 508 l 1,30,31
 394 512 394 512 377.5 515.5 c 128,-1,32
 361 519 361 519 342.5 522 c 128,-1,33
 324 525 324 525 305 527 c 128,-1,34
 286 529 286 529 269 529 c 0,35,36
 222 529 222 529 188.5 518 c 128,-1,37
 155 507 155 507 134 489.5 c 128,-1,38
 113 472 113 472 103 449.5 c 128,-1,39
 93 427 93 427 93 403 c 0,40,41
 93 382 93 382 101.5 361.5 c 128,-1,42
 110 341 110 341 125.5 324 c 128,-1,43
 141 307 141 307 162 294 c 128,-1,44
 183 281 183 281 208 276 c 1,45,-1
 208 274 l 1,46,47
 177 267 177 267 151.5 254 c 128,-1,48
 126 241 126 241 108 223.5 c 128,-1,49
 90 206 90 206 80 183.5 c 128,-1,50
 70 161 70 161 70 135 c 0,51,52
 70 104 70 104 85 77.5 c 128,-1,53
 100 51 100 51 127 32 c 128,-1,54
 154 13 154 13 193 2.5 c 128,-1,55
 232 -8 232 -8 280 -8 c 0,56,57
 300 -8 300 -8 318 -6.5 c 128,-1,58
 336 -5 336 -5 352.5 -2.5 c 128,-1,59
 369 0 369 0 383 2.5 c 128,-1,60
 397 5 397 5 409 7 c 1,61,-1
 407 34 l 1,0,1
EndSplineSet
EndChar

StartChar: zeta
Encoding: 950 950 463
Width: 492
GlyphClass: 1
Flags: W
LayerCount: 2
Fore
SplineSet
338 -145 m 0,0,1
 368 -145 368 -145 393 -137.5 c 128,-1,2
 418 -130 418 -130 436.5 -117.5 c 128,-1,3
 455 -105 455 -105 465 -88 c 128,-1,4
 475 -71 475 -71 474 -52 c 0,5,6
 475 -36 475 -36 468 -22 c 128,-1,7
 461 -8 461 -8 448 2 c 128,-1,8
 435 12 435 12 417 17 c 128,-1,9
 399 22 399 22 377 21 c 0,10,11
 352 23 352 23 324 17.5 c 128,-1,12
 296 12 296 12 253 10 c 0,13,14
 224 11 224 11 197 17.5 c 128,-1,15
 170 24 170 24 149 42 c 128,-1,16
 128 60 128 60 115 92 c 128,-1,17
 102 124 102 124 101 175 c 0,18,19
 102 217 102 217 110.5 262 c 128,-1,20
 119 307 119 307 136 354 c 128,-1,21
 153 401 153 401 178.5 448 c 128,-1,22
 204 495 204 495 238 540.5 c 128,-1,23
 272 586 272 586 315.5 629.5 c 128,-1,24
 359 673 359 673 412 711 c 1,25,-1
 412 732 l 1,26,-1
 242 732 l 2,27,28
 223 732 223 732 212 734.5 c 128,-1,29
 201 737 201 737 195.5 741.5 c 128,-1,30
 190 746 190 746 188 752 c 128,-1,31
 186 758 186 758 185 764 c 0,32,33
 187 768 187 768 189.5 777.5 c 128,-1,34
 192 787 192 787 197 791 c 1,35,-1
 172 802 l 1,36,37
 165 791 165 791 163.5 782.5 c 128,-1,38
 162 774 162 774 162 766 c 0,39,40
 162 740 162 740 179.5 724 c 128,-1,41
 197 708 197 708 244 706 c 2,42,-1
 375 706 l 1,43,-1
 374 715 l 1,44,45
 335 690 335 690 284 635 c 128,-1,46
 233 580 233 580 187.5 507 c 128,-1,47
 142 434 142 434 110.5 349 c 128,-1,48
 79 264 79 264 79 177 c 0,49,50
 79 111 79 111 98 74 c 128,-1,51
 117 37 117 37 144.5 18.5 c 128,-1,52
 172 0 172 0 202.5 -4 c 128,-1,53
 233 -8 233 -8 257 -8 c 0,54,55
 280 -8 280 -8 297.5 -7 c 128,-1,56
 315 -6 315 -6 329.5 -4.5 c 128,-1,57
 344 -3 344 -3 355.5 -1.5 c 128,-1,58
 367 0 367 0 377 0 c 0,59,60
 413 0 413 0 433 -15 c 128,-1,61
 453 -30 453 -30 453 -53 c 0,62,63
 453 -68 453 -68 444 -81.5 c 128,-1,64
 435 -95 435 -95 419.5 -105 c 128,-1,65
 404 -115 404 -115 382.5 -121 c 128,-1,66
 361 -127 361 -127 337 -127 c 0,67,68
 317 -127 317 -127 291.5 -122.5 c 128,-1,69
 266 -118 266 -118 240 -109 c 1,70,-1
 240 -133 l 1,71,72
 271 -139 271 -139 296 -142 c 128,-1,73
 321 -145 321 -145 338 -145 c 0,0,1
EndSplineSet
EndChar

StartChar: eta
Encoding: 951 951 464
Width: 556
GlyphClass: 1
Flags: W
LayerCount: 2
Fore
SplineSet
114 0 m 1,0,1
 125 95 125 95 130 182 c 128,-1,2
 135 269 135 269 135 348 c 0,3,4
 135 377 135 377 134 403 c 128,-1,5
 133 429 133 429 126.5 451.5 c 128,-1,6
 120 474 120 474 106 493.5 c 128,-1,7
 92 513 92 513 67 529 c 1,8,-1
 56 509 l 1,9,10
 70 502 70 502 80.5 493.5 c 128,-1,11
 91 485 91 485 98.5 467 c 128,-1,12
 106 449 106 449 109.5 417.5 c 128,-1,13
 113 386 113 386 112 334 c 0,14,15
 114 265 114 265 108 177.5 c 128,-1,16
 102 90 102 90 91 0 c 1,17,-1
 114 0 l 1,0,1
409 -210 m 1,18,19
 420 -176 420 -176 431 -121.5 c 128,-1,20
 442 -67 442 -67 451 -3.5 c 128,-1,21
 460 60 460 60 465 127 c 128,-1,22
 470 194 470 194 470 252 c 0,23,24
 471 395 471 395 435 462 c 128,-1,25
 399 529 399 529 319 529 c 0,26,27
 279 529 279 529 247.5 514 c 128,-1,28
 216 499 216 499 192 474 c 128,-1,29
 168 449 168 449 151.5 418 c 128,-1,30
 135 387 135 387 124 355 c 1,31,-1
 129 229 l 1,32,33
 129 274 129 274 141 323 c 128,-1,34
 153 372 153 372 177.5 413 c 128,-1,35
 202 454 202 454 238.5 480.5 c 128,-1,36
 275 507 275 507 322 507 c 0,37,38
 389 507 389 507 419 444 c 128,-1,39
 449 381 449 381 449 243 c 0,40,41
 449 198 449 198 445.5 144.5 c 128,-1,42
 442 91 442 91 435 32.5 c 128,-1,43
 428 -26 428 -26 417 -86.5 c 128,-1,44
 406 -147 406 -147 390 -205 c 1,45,-1
 409 -210 l 1,18,19
EndSplineSet
EndChar

